<?xml version="1.0" encoding="UTF-8" standalone="no"?><svg xmlns="http://www.w3.org/2000/svg" xmlns:xlink="http://www.w3.org/1999/xlink" contentScriptType="application/ecmascript" contentStyleType="text/css" height="209px" preserveAspectRatio="none" style="width:550px;height:209px;background:#FFFFFF;" version="1.1" viewBox="0 0 550 209" width="550px" zoomAndPan="magnify"><defs><filter height="300%" id="fh5aga6m650ch" width="300%" x="-1" y="-1"><feGaussianBlur result="blurOut" stdDeviation="2.0"/><feColorMatrix in="blurOut" result="blurOut2" type="matrix" values="0 0 0 0 0 0 0 0 0 0 0 0 0 0 0 0 0 0 .4 0"/><feOffset dx="4.0" dy="4.0" in="blurOut2" result="blurOut3"/><feBlend in="SourceGraphic" in2="blurOut3" mode="normal"/></filter></defs><g><!--MD5=[ecd1e4a4990785f367527cb461530c11]
class HttpRequestDecoder--><rect codeLine="1" fill="#FEFECE" filter="url(#fh5aga6m650ch)" height="60.8047" id="HttpRequestDecoder" style="stroke:#A80036;stroke-width:1.5;" width="366" x="69.5" y="135"/><ellipse cx="182.25" cy="151" fill="#ADD1B2" rx="11" ry="11" style="stroke:#A80036;stroke-width:1.0;"/><path d="M185.2188,156.6406 Q184.6406,156.9375 184,157.0781 Q183.3594,157.2344 182.6563,157.2344 Q180.1563,157.2344 178.8281,155.5938 Q177.5156,153.9375 177.5156,150.8125 Q177.5156,147.6875 178.8281,146.0313 Q180.1563,144.375 182.6563,144.375 Q183.3594,144.375 184,144.5313 Q184.6563,144.6875 185.2188,144.9844 L185.2188,147.7031 Q184.5938,147.125 184,146.8594 Q183.4063,146.5781 182.7813,146.5781 Q181.4375,146.5781 180.75,147.6563 Q180.0625,148.7188 180.0625,150.8125 Q180.0625,152.9063 180.75,153.9844 Q181.4375,155.0469 182.7813,155.0469 Q183.4063,155.0469 184,154.7813 Q184.5938,154.5 185.2188,153.9219 L185.2188,156.6406 Z " fill="#000000"/><text fill="#000000" font-family="sans-serif" font-size="12" lengthAdjust="spacing" textLength="132" x="202.75" y="155.1543">HttpRequestDecoder</text><line style="stroke:#A80036;stroke-width:1.5;" x1="70.5" x2="434.5" y1="167" y2="167"/><line style="stroke:#A80036;stroke-width:1.5;" x1="70.5" x2="434.5" y1="175" y2="175"/><ellipse cx="80.5" cy="186" fill="#84BE84" rx="3" ry="3" style="stroke:#038048;stroke-width:1.0;"/><text fill="#000000" font-family="sans-serif" font-size="11" lengthAdjust="spacing" textLength="340" x="89.5" y="189.2104">Result decode(ByteBuffer in, Buffer out, boolean endOfInput)</text><!--MD5=[1bb33ff08ccce78e377ec62c4a7439a9]
class HttpDecoder--><rect codeLine="5" fill="#FEFECE" filter="url(#fh5aga6m650ch)" height="48" id="HttpDecoder" style="stroke:#A80036;stroke-width:1.5;" width="491" x="7" y="10"/><ellipse cx="22" cy="26" fill="#ADD1B2" rx="11" ry="11" style="stroke:#A80036;stroke-width:1.0;"/><path d="M24.9688,31.6406 Q24.3906,31.9375 23.75,32.0781 Q23.1094,32.2344 22.4063,32.2344 Q19.9063,32.2344 18.5781,30.5938 Q17.2656,28.9375 17.2656,25.8125 Q17.2656,22.6875 18.5781,21.0313 Q19.9063,19.375 22.4063,19.375 Q23.1094,19.375 23.75,19.5313 Q24.4063,19.6875 24.9688,19.9844 L24.9688,22.7031 Q24.3438,22.125 23.75,21.8594 Q23.1563,21.5781 22.5313,21.5781 Q21.1875,21.5781 20.5,22.6563 Q19.8125,23.7188 19.8125,25.8125 Q19.8125,27.9063 20.5,28.9844 Q21.1875,30.0469 22.5313,30.0469 Q23.1563,30.0469 23.75,29.7813 Q24.3438,29.5 24.9688,28.9219 L24.9688,31.6406 Z " fill="#000000"/><text fill="#000000" font-family="sans-serif" font-size="12" lengthAdjust="spacing" textLength="80" x="36" y="30.1543">HttpDecoder</text><rect fill="#FFFFFF" height="15.9688" style="stroke:#000000;stroke-width:1.0;stroke-dasharray:2.0,2.0;" width="377" x="124" y="7"/><text fill="#000000" font-family="sans-serif" font-size="12" font-style="italic" lengthAdjust="spacing" textLength="375" x="125" y="19.1387">T extends HttpMessageHeader, R extends HttpMessageHeader</text><line style="stroke:#A80036;stroke-width:1.5;" x1="8" x2="497" y1="42" y2="42"/><line style="stroke:#A80036;stroke-width:1.5;" x1="8" x2="497" y1="50" y2="50"/><!--MD5=[d975e8a1705ee66eea422ecb38174551]
reverse link HttpDecoder to HttpRequestDecoder--><path codeLine="8" d="M252.5,78.27 C252.5,96.8 252.5,117.98 252.5,134.71 " fill="none" id="HttpDecoder-backto-HttpRequestDecoder" style="stroke:#A80036;stroke-width:1.0;"/><polygon fill="none" points="245.5,78.15,252.5,58.15,259.5,78.15,245.5,78.15" style="stroke:#A80036;stroke-width:1.0;"/><text fill="#000000" font-family="sans-serif" font-size="13" lengthAdjust="spacing" textLength="289" x="253.5" y="101.0669">&lt;&gt; &lt;T -&gt; HttpRequest, R -&gt; HttpResponse&gt;</text><!--MD5=[19455a89d60c96212c1cb6260377c758]
@startuml
class HttpRequestDecoder {
 	+Result decode(ByteBuffer in, Buffer out, boolean endOfInput)
 }
 
 class HttpDecoder<T extends HttpMessageHeader, R extends HttpMessageHeader> {
 }
 
 HttpDecoder <|- - HttpRequestDecoder: <> <T -> HttpRequest, R -> HttpResponse>
@enduml

PlantUML version 1.2022.1(Tue Feb 01 19:19:58 CET 2022)
(GPL source distribution)
Java Runtime: Java(TM) SE Runtime Environment
JVM: Java HotSpot(TM) 64-Bit Server VM
Default Encoding: UTF-8
Language: de
Country: DE
--></g></svg>