<?xml version="1.0" encoding="UTF-8" standalone="no"?><svg xmlns="http://www.w3.org/2000/svg" xmlns:xlink="http://www.w3.org/1999/xlink" contentScriptType="application/ecmascript" contentStyleType="text/css" height="228px" preserveAspectRatio="none" style="width:387px;height:228px;" version="1.1" viewBox="0 0 387 228" width="387px" zoomAndPan="magnify"><defs><filter height="300%" id="fspf84c" width="300%" x="-1" y="-1"><feGaussianBlur result="blurOut" stdDeviation="2.0"/><feColorMatrix in="blurOut" result="blurOut2" type="matrix" values="0 0 0 0 0 0 0 0 0 0 0 0 0 0 0 0 0 0 .4 0"/><feOffset dx="4.0" dy="4.0" in="blurOut2" result="blurOut3"/><feBlend in="SourceGraphic" in2="blurOut3" mode="normal"/></filter></defs><g><!--class HttpResponseEncoder--><rect fill="#FEFECE" filter="url(#fspf84c)" height="86.4141" style="stroke: #A80036; stroke-width: 1.5;" width="372" x="6" y="133"/><ellipse cx="117.25" cy="149" fill="#ADD1B2" rx="11" ry="11" style="stroke: #A80036; stroke-width: 1.0;"/><path d="M120.2188,154.6406 Q119.6406,154.9375 119,155.0859 Q118.3594,155.2344 117.6563,155.2344 Q115.1563,155.2344 113.8359,153.5859 Q112.5156,151.9375 112.5156,148.8125 Q112.5156,145.6875 113.8359,144.0313 Q115.1563,142.375 117.6563,142.375 Q118.3594,142.375 119.0078,142.5313 Q119.6563,142.6875 120.2188,142.9844 L120.2188,145.7031 Q119.5938,145.125 119,144.8516 Q118.4063,144.5781 117.7813,144.5781 Q116.4375,144.5781 115.75,145.6484 Q115.0625,146.7188 115.0625,148.8125 Q115.0625,150.9063 115.75,151.9766 Q116.4375,153.0469 117.7813,153.0469 Q118.4063,153.0469 119,152.7734 Q119.5938,152.5 120.2188,151.9219 L120.2188,154.6406 Z "/><text fill="#000000" font-family="sans-serif" font-size="12" lengthAdjust="spacingAndGlyphs" textLength="141" x="137.75" y="153.1543">HttpResponseEncoder</text><line style="stroke: #A80036; stroke-width: 1.5;" x1="7" x2="377" y1="165" y2="165"/><line style="stroke: #A80036; stroke-width: 1.5;" x1="7" x2="377" y1="173" y2="173"/><ellipse cx="17" cy="184.9023" fill="#84BE84" rx="3" ry="3" style="stroke: #038048; stroke-width: 1.0;"/><text fill="#000000" font-family="sans-serif" font-size="11" lengthAdjust="spacingAndGlyphs" textLength="133" x="26" y="187.2104">HttpResponseEncoder()</text><ellipse cx="17" cy="197.707" fill="#84BE84" rx="3" ry="3" style="stroke: #038048; stroke-width: 1.0;"/><text fill="#000000" font-family="sans-serif" font-size="11" lengthAdjust="spacingAndGlyphs" textLength="253" x="26" y="200.0151">void encode(HttpResponse messageHeader)</text><ellipse cx="17" cy="210.5117" fill="#84BE84" rx="3" ry="3" style="stroke: #038048; stroke-width: 1.0;"/><text fill="#000000" font-family="sans-serif" font-size="11" lengthAdjust="spacingAndGlyphs" textLength="346" x="26" y="212.8198">Result encode(Buffer in, ByteBuffer out, boolean endOfInput)</text><!--class HttpEncoder--><rect fill="#FEFECE" filter="url(#fspf84c)" height="48" style="stroke: #A80036; stroke-width: 1.5;" width="307" x="38.5" y="8"/><ellipse cx="53.5" cy="24" fill="#ADD1B2" rx="11" ry="11" style="stroke: #A80036; stroke-width: 1.0;"/><path d="M56.4688,29.6406 Q55.8906,29.9375 55.25,30.0859 Q54.6094,30.2344 53.9063,30.2344 Q51.4063,30.2344 50.0859,28.5859 Q48.7656,26.9375 48.7656,23.8125 Q48.7656,20.6875 50.0859,19.0313 Q51.4063,17.375 53.9063,17.375 Q54.6094,17.375 55.2578,17.5313 Q55.9063,17.6875 56.4688,17.9844 L56.4688,20.7031 Q55.8438,20.125 55.25,19.8516 Q54.6563,19.5781 54.0313,19.5781 Q52.6875,19.5781 52,20.6484 Q51.3125,21.7188 51.3125,23.8125 Q51.3125,25.9063 52,26.9766 Q52.6875,28.0469 54.0313,28.0469 Q54.6563,28.0469 55.25,27.7734 Q55.8438,27.5 56.4688,26.9219 L56.4688,29.6406 Z "/><text fill="#000000" font-family="sans-serif" font-size="12" lengthAdjust="spacingAndGlyphs" textLength="79" x="67.5" y="28.1543">HttpEncoder</text><rect fill="#FFFFFF" height="15.9688" style="stroke: #000000; stroke-width: 1.0; stroke-dasharray: 2.0,2.0;" width="194" x="154.5" y="5"/><text fill="#000000" font-family="sans-serif" font-size="12" font-style="italic" lengthAdjust="spacingAndGlyphs" textLength="192" x="155.5" y="17.1387">T extends HttpMessageHeader</text><line style="stroke: #A80036; stroke-width: 1.5;" x1="39.5" x2="344.5" y1="40" y2="40"/><line style="stroke: #A80036; stroke-width: 1.5;" x1="39.5" x2="344.5" y1="48" y2="48"/><path d="M192,76.294 C192,94.287 192,115.095 192,132.9537 " fill="none" style="stroke: #A80036; stroke-width: 1.0;"/><polygon fill="none" points="185,76.131,192,56.131,199,76.131,185,76.131" style="stroke: #A80036; stroke-width: 1.0;"/><text fill="#000000" font-family="sans-serif" font-size="13" lengthAdjust="spacingAndGlyphs" textLength="190" x="193" y="99.0669">«bind» &lt;T -&gt; HttpResponse&gt;</text></g></svg>