<?xml version="1.0" encoding="UTF-8" standalone="no"?><svg xmlns="http://www.w3.org/2000/svg" xmlns:xlink="http://www.w3.org/1999/xlink" contentScriptType="application/ecmascript" contentStyleType="text/css" height="228px" preserveAspectRatio="none" style="width:388px;height:228px;" version="1.1" viewBox="0 0 388 228" width="388px" zoomAndPan="magnify"><defs><filter height="300%" id="fdb5fw1" width="300%" x="-1" y="-1"><feGaussianBlur result="blurOut" stdDeviation="2.0"/><feColorMatrix in="blurOut" result="blurOut2" type="matrix" values="0 0 0 0 0 0 0 0 0 0 0 0 0 0 0 0 0 0 .4 0"/><feOffset dx="4.0" dy="4.0" in="blurOut2" result="blurOut3"/><feBlend in="SourceGraphic" in2="blurOut3" mode="normal"/></filter></defs><g><!--class HttpResponseEncoder--><rect fill="#FEFECE" filter="url(#fdb5fw1)" height="86.4141" style="stroke: #A80036; stroke-width: 1.5;" width="373" x="6" y="133"/><ellipse cx="121.25" cy="149" fill="#ADD1B2" rx="11" ry="11" style="stroke: #A80036; stroke-width: 1.0;"/><path d="M124.2188,154.6406 Q123.6406,154.9375 123,155.0859 Q122.3594,155.2344 121.6563,155.2344 Q119.1563,155.2344 117.8359,153.5859 Q116.5156,151.9375 116.5156,148.8125 Q116.5156,145.6875 117.8359,144.0313 Q119.1563,142.375 121.6563,142.375 Q122.3594,142.375 123.0078,142.5313 Q123.6563,142.6875 124.2188,142.9844 L124.2188,145.7031 Q123.5938,145.125 123,144.8516 Q122.4063,144.5781 121.7813,144.5781 Q120.4375,144.5781 119.75,145.6484 Q119.0625,146.7188 119.0625,148.8125 Q119.0625,150.9063 119.75,151.9766 Q120.4375,153.0469 121.7813,153.0469 Q122.4063,153.0469 123,152.7734 Q123.5938,152.5 124.2188,151.9219 L124.2188,154.6406 Z "/><text fill="#000000" font-family="sans-serif" font-size="12" lengthAdjust="spacingAndGlyphs" textLength="134" x="141.75" y="153.1543">HttpResponseEncoder</text><line style="stroke: #A80036; stroke-width: 1.5;" x1="7" x2="378" y1="165" y2="165"/><line style="stroke: #A80036; stroke-width: 1.5;" x1="7" x2="378" y1="173" y2="173"/><ellipse cx="17" cy="184.9023" fill="#84BE84" rx="3" ry="3" style="stroke: #038048; stroke-width: 1.0;"/><text fill="#000000" font-family="sans-serif" font-size="11" lengthAdjust="spacingAndGlyphs" textLength="132" x="26" y="187.2104">HttpResponseEncoder()</text><ellipse cx="17" cy="197.707" fill="#84BE84" rx="3" ry="3" style="stroke: #038048; stroke-width: 1.0;"/><text fill="#000000" font-family="sans-serif" font-size="11" lengthAdjust="spacingAndGlyphs" textLength="251" x="26" y="200.0151">void encode(HttpResponse messageHeader)</text><ellipse cx="17" cy="210.5117" fill="#84BE84" rx="3" ry="3" style="stroke: #038048; stroke-width: 1.0;"/><text fill="#000000" font-family="sans-serif" font-size="11" lengthAdjust="spacingAndGlyphs" textLength="347" x="26" y="212.8198">Result encode(Buffer in, ByteBuffer out, boolean endOfInput)</text><!--class HttpEncoder--><rect fill="#FEFECE" filter="url(#fdb5fw1)" height="48" style="stroke: #A80036; stroke-width: 1.5;" width="297" x="44" y="8"/><ellipse cx="59" cy="24" fill="#ADD1B2" rx="11" ry="11" style="stroke: #A80036; stroke-width: 1.0;"/><path d="M61.9688,29.6406 Q61.3906,29.9375 60.75,30.0859 Q60.1094,30.2344 59.4063,30.2344 Q56.9063,30.2344 55.5859,28.5859 Q54.2656,26.9375 54.2656,23.8125 Q54.2656,20.6875 55.5859,19.0313 Q56.9063,17.375 59.4063,17.375 Q60.1094,17.375 60.7578,17.5313 Q61.4063,17.6875 61.9688,17.9844 L61.9688,20.7031 Q61.3438,20.125 60.75,19.8516 Q60.1563,19.5781 59.5313,19.5781 Q58.1875,19.5781 57.5,20.6484 Q56.8125,21.7188 56.8125,23.8125 Q56.8125,25.9063 57.5,26.9766 Q58.1875,28.0469 59.5313,28.0469 Q60.1563,28.0469 60.75,27.7734 Q61.3438,27.5 61.9688,26.9219 L61.9688,29.6406 Z "/><text fill="#000000" font-family="sans-serif" font-size="12" lengthAdjust="spacingAndGlyphs" textLength="77" x="73" y="28.1543">HttpEncoder</text><rect fill="#FFFFFF" height="15.9688" style="stroke: #000000; stroke-width: 1.0; stroke-dasharray: 2.0,2.0;" width="186" x="158" y="5"/><text fill="#000000" font-family="sans-serif" font-size="12" font-style="italic" lengthAdjust="spacingAndGlyphs" textLength="184" x="159" y="17.1387">T extends HttpMessageHeader</text><line style="stroke: #A80036; stroke-width: 1.5;" x1="45" x2="340" y1="40" y2="40"/><line style="stroke: #A80036; stroke-width: 1.5;" x1="45" x2="340" y1="48" y2="48"/><path d="M192.5,76.3197 C192.5,94.306 192.5,115.0108 192.5,132.8738 " fill="none" style="stroke: #A80036; stroke-width: 1.0;"/><polygon fill="none" points="185.5001,76.1024,192.5,56.1024,199.5001,76.1023,185.5001,76.1024" style="stroke: #A80036; stroke-width: 1.0;"/><text fill="#000000" font-family="sans-serif" font-size="13" lengthAdjust="spacingAndGlyphs" textLength="193" x="193.5" y="99.0669">«bind» &lt;T -&gt; HttpResponse&gt;</text></g></svg>