<?xml version="1.0" encoding="UTF-8" standalone="no"?><svg xmlns="http://www.w3.org/2000/svg" xmlns:xlink="http://www.w3.org/1999/xlink" contentScriptType="application/ecmascript" contentStyleType="text/css" height="232px" preserveAspectRatio="none" style="width:387px;height:232px;background:#FFFFFF;" version="1.1" viewBox="0 0 387 232" width="387px" zoomAndPan="magnify"><defs><filter height="300%" id="fpfedsot46vn4" width="300%" x="-1" y="-1"><feGaussianBlur result="blurOut" stdDeviation="2.0"/><feColorMatrix in="blurOut" result="blurOut2" type="matrix" values="0 0 0 0 0 0 0 0 0 0 0 0 0 0 0 0 0 0 .4 0"/><feOffset dx="4.0" dy="4.0" in="blurOut2" result="blurOut3"/><feBlend in="SourceGraphic" in2="blurOut3" mode="normal"/></filter></defs><g><!--MD5=[bc34defe2c3302021661392e6ecc9bf3]
class HttpResponseEncoder--><rect codeLine="1" fill="#FEFECE" filter="url(#fpfedsot46vn4)" height="86.4141" id="HttpResponseEncoder" style="stroke:#A80036;stroke-width:1.5;" width="366" x="7" y="132"/><ellipse cx="115.25" cy="148" fill="#ADD1B2" rx="11" ry="11" style="stroke:#A80036;stroke-width:1.0;"/><path d="M118.2188,153.6406 Q117.6406,153.9375 117,154.0781 Q116.3594,154.2344 115.6563,154.2344 Q113.1563,154.2344 111.8281,152.5938 Q110.5156,150.9375 110.5156,147.8125 Q110.5156,144.6875 111.8281,143.0313 Q113.1563,141.375 115.6563,141.375 Q116.3594,141.375 117,141.5313 Q117.6563,141.6875 118.2188,141.9844 L118.2188,144.7031 Q117.5938,144.125 117,143.8594 Q116.4063,143.5781 115.7813,143.5781 Q114.4375,143.5781 113.75,144.6563 Q113.0625,145.7188 113.0625,147.8125 Q113.0625,149.9063 113.75,150.9844 Q114.4375,152.0469 115.7813,152.0469 Q116.4063,152.0469 117,151.7813 Q117.5938,151.5 118.2188,150.9219 L118.2188,153.6406 Z " fill="#000000"/><text fill="#000000" font-family="sans-serif" font-size="12" lengthAdjust="spacing" textLength="141" x="135.75" y="152.1543">HttpResponseEncoder</text><line style="stroke:#A80036;stroke-width:1.5;" x1="8" x2="372" y1="164" y2="164"/><line style="stroke:#A80036;stroke-width:1.5;" x1="8" x2="372" y1="172" y2="172"/><ellipse cx="18" cy="183" fill="#84BE84" rx="3" ry="3" style="stroke:#038048;stroke-width:1.0;"/><text fill="#000000" font-family="sans-serif" font-size="11" lengthAdjust="spacing" textLength="133" x="27" y="186.2104">HttpResponseEncoder()</text><ellipse cx="18" cy="195.8047" fill="#84BE84" rx="3" ry="3" style="stroke:#038048;stroke-width:1.0;"/><text fill="#000000" font-family="sans-serif" font-size="11" lengthAdjust="spacing" textLength="251" x="27" y="199.0151">void encode(HttpResponse messageHeader)</text><ellipse cx="18" cy="208.6094" fill="#84BE84" rx="3" ry="3" style="stroke:#038048;stroke-width:1.0;"/><text fill="#000000" font-family="sans-serif" font-size="11" lengthAdjust="spacing" textLength="340" x="27" y="211.8198">Result encode(Buffer in, ByteBuffer out, boolean endOfInput)</text><!--MD5=[ec76d1500d17f2dfacb7d5cee4503f52]
class HttpEncoder--><rect codeLine="7" fill="#FEFECE" filter="url(#fpfedsot46vn4)" height="48" id="HttpEncoder" style="stroke:#A80036;stroke-width:1.5;" width="111" x="134.5" y="7"/><ellipse cx="149.5" cy="23" fill="#ADD1B2" rx="11" ry="11" style="stroke:#A80036;stroke-width:1.0;"/><path d="M152.4688,28.6406 Q151.8906,28.9375 151.25,29.0781 Q150.6094,29.2344 149.9063,29.2344 Q147.4063,29.2344 146.0781,27.5938 Q144.7656,25.9375 144.7656,22.8125 Q144.7656,19.6875 146.0781,18.0313 Q147.4063,16.375 149.9063,16.375 Q150.6094,16.375 151.25,16.5313 Q151.9063,16.6875 152.4688,16.9844 L152.4688,19.7031 Q151.8438,19.125 151.25,18.8594 Q150.6563,18.5781 150.0313,18.5781 Q148.6875,18.5781 148,19.6563 Q147.3125,20.7188 147.3125,22.8125 Q147.3125,24.9063 148,25.9844 Q148.6875,27.0469 150.0313,27.0469 Q150.6563,27.0469 151.25,26.7813 Q151.8438,26.5 152.4688,25.9219 L152.4688,28.6406 Z " fill="#000000"/><text fill="#000000" font-family="sans-serif" font-size="12" lengthAdjust="spacing" textLength="79" x="163.5" y="27.1543">HttpEncoder</text><line style="stroke:#A80036;stroke-width:1.5;" x1="135.5" x2="244.5" y1="39" y2="39"/><line style="stroke:#A80036;stroke-width:1.5;" x1="135.5" x2="244.5" y1="47" y2="47"/><!--MD5=[660f1163566fb41afa8ee0f304409dd7]
reverse link HttpEncoder to HttpResponseEncoder--><path codeLine="10" d="M190,75.29 C190,93.29 190,114.09 190,131.95 " fill="none" id="HttpEncoder-backto-HttpResponseEncoder" style="stroke:#A80036;stroke-width:1.0;"/><polygon fill="none" points="183,75.13,190,55.13,197,75.13,183,75.13" style="stroke:#A80036;stroke-width:1.0;"/><text fill="#000000" font-family="sans-serif" font-size="13" lengthAdjust="spacing" textLength="169" x="191" y="98.0669">&lt;&gt; &lt;T -&gt; HttpResponse&gt;</text><!--MD5=[3aa0f03815d6cd01e8016fea71e9b28d]
@startuml
class HttpResponseEncoder {
 	+HttpResponseEncoder()
 	+void encode(HttpResponse messageHeader)
 +Result encode(Buffer in, ByteBuffer out, boolean endOfInput)
 }
 
 class HttpEncoder {
 }
 
 HttpEncoder <|- - HttpResponseEncoder : <> <T -> HttpResponse>
@enduml

PlantUML version 1.2022.1(Tue Feb 01 19:19:58 CET 2022)
(GPL source distribution)
Java Runtime: Java(TM) SE Runtime Environment
JVM: Java HotSpot(TM) 64-Bit Server VM
Default Encoding: UTF-8
Language: de
Country: DE
--></g></svg>