<?xml version="1.0" encoding="UTF-8" standalone="no"?><svg xmlns="http://www.w3.org/2000/svg" xmlns:xlink="http://www.w3.org/1999/xlink" contentScriptType="application/ecmascript" contentStyleType="text/css" height="198px" preserveAspectRatio="none" style="width:424px;height:198px;" version="1.1" viewBox="0 0 424 198" width="424px" zoomAndPan="magnify"><defs><filter height="300%" id="f0n2xmn" width="300%" x="-1" y="-1"><feGaussianBlur result="blurOut" stdDeviation="2.0"/><feColorMatrix in="blurOut" result="blurOut2" type="matrix" values="0 0 0 0 0 0 0 0 0 0 0 0 0 0 0 0 0 0 .4 0"/><feOffset dx="4.0" dy="4.0" in="blurOut2" result="blurOut3"/><feBlend in="SourceGraphic" in2="blurOut3" mode="normal"/></filter></defs><g><!--class Decoder--><rect fill="#FEFECE" filter="url(#f0n2xmn)" height="73.6094" style="stroke: #A80036; stroke-width: 1.5;" width="409" x="6" y="116"/><ellipse cx="21" cy="132" fill="#B4A7E5" rx="11" ry="11" style="stroke: #A80036; stroke-width: 1.0;"/><path d="M17.4219,127.7656 L17.4219,125.6094 L24.8125,125.6094 L24.8125,127.7656 L22.3438,127.7656 L22.3438,135.8438 L24.8125,135.8438 L24.8125,138 L17.4219,138 L17.4219,135.8438 L19.8906,135.8438 L19.8906,127.7656 L17.4219,127.7656 Z "/><text fill="#000000" font-family="sans-serif" font-size="12" font-style="italic" lengthAdjust="spacingAndGlyphs" textLength="50" x="35" y="136.1543">Decoder</text><rect fill="#FFFFFF" height="15.9688" style="stroke: #000000; stroke-width: 1.0; stroke-dasharray: 2.0,2.0;" width="325" x="93" y="113"/><text fill="#000000" font-family="sans-serif" font-size="12" font-style="italic" lengthAdjust="spacingAndGlyphs" textLength="323" x="94" y="125.1387">T extends MessageHeader, R extends MessageHeader</text><line style="stroke: #A80036; stroke-width: 1.5;" x1="7" x2="414" y1="148" y2="148"/><line style="stroke: #A80036; stroke-width: 1.5;" x1="7" x2="414" y1="156" y2="156"/><text fill="#000000" font-family="sans-serif" font-size="11" lengthAdjust="spacingAndGlyphs" textLength="373" x="12" y="170.2104">Result&lt;R&gt; decode(ByteBuffer in, Buffer out, boolean endOfInput)</text><text fill="#000000" font-family="sans-serif" font-size="11" lengthAdjust="spacingAndGlyphs" textLength="124" x="12" y="183.0151">Optional&lt;T&gt; header()</text><!--class Codec--><rect fill="#FEFECE" filter="url(#f0n2xmn)" height="48" style="stroke: #A80036; stroke-width: 1.5;" width="69" x="176" y="8"/><ellipse cx="191" cy="24" fill="#B4A7E5" rx="11" ry="11" style="stroke: #A80036; stroke-width: 1.0;"/><path d="M187.4219,19.7656 L187.4219,17.6094 L194.8125,17.6094 L194.8125,19.7656 L192.3438,19.7656 L192.3438,27.8438 L194.8125,27.8438 L194.8125,30 L187.4219,30 L187.4219,27.8438 L189.8906,27.8438 L189.8906,19.7656 L187.4219,19.7656 Z "/><text fill="#000000" font-family="sans-serif" font-size="12" font-style="italic" lengthAdjust="spacingAndGlyphs" textLength="37" x="205" y="28.1543">Codec</text><line style="stroke: #A80036; stroke-width: 1.5;" x1="177" x2="244" y1="40" y2="40"/><line style="stroke: #A80036; stroke-width: 1.5;" x1="177" x2="244" y1="48" y2="48"/><path d="M210.5,76.5529 C210.5,89.5142 210.5,103.5269 210.5,115.9716 " fill="none" style="stroke: #A80036; stroke-width: 1.0;"/><polygon fill="none" points="203.5001,76.1954,210.5,56.1953,217.5001,76.1953,203.5001,76.1954" style="stroke: #A80036; stroke-width: 1.0;"/></g></svg>