<?xml version="1.0" encoding="UTF-8" standalone="no"?><svg xmlns="http://www.w3.org/2000/svg" xmlns:xlink="http://www.w3.org/1999/xlink" contentScriptType="application/ecmascript" contentStyleType="text/css" height="249px" preserveAspectRatio="none" style="width:304px;height:249px;" version="1.1" viewBox="0 0 304 249" width="304px" zoomAndPan="magnify"><defs><filter height="300%" id="faek9yg" width="300%" x="-1" y="-1"><feGaussianBlur result="blurOut" stdDeviation="2.0"/><feColorMatrix in="blurOut" result="blurOut2" type="matrix" values="0 0 0 0 0 0 0 0 0 0 0 0 0 0 0 0 0 0 .4 0"/><feOffset dx="4.0" dy="4.0" in="blurOut2" result="blurOut3"/><feBlend in="SourceGraphic" in2="blurOut3" mode="normal"/></filter></defs><g><!--class Codec::Result--><rect fill="#FEFECE" filter="url(#faek9yg)" height="86.4141" style="stroke: #A80036; stroke-width: 1.5;" width="179" x="61" y="8"/><ellipse cx="105.25" cy="24" fill="#ADD1B2" rx="11" ry="11" style="stroke: #A80036; stroke-width: 1.0;"/><path d="M108.2188,29.6406 Q107.6406,29.9375 107,30.0859 Q106.3594,30.2344 105.6563,30.2344 Q103.1563,30.2344 101.8359,28.5859 Q100.5156,26.9375 100.5156,23.8125 Q100.5156,20.6875 101.8359,19.0313 Q103.1563,17.375 105.6563,17.375 Q106.3594,17.375 107.0078,17.5313 Q107.6563,17.6875 108.2188,17.9844 L108.2188,20.7031 Q107.5938,20.125 107,19.8516 Q106.4063,19.5781 105.7813,19.5781 Q104.4375,19.5781 103.75,20.6484 Q103.0625,21.7188 103.0625,23.8125 Q103.0625,25.9063 103.75,26.9766 Q104.4375,28.0469 105.7813,28.0469 Q106.4063,28.0469 107,27.7734 Q107.5938,27.5 108.2188,26.9219 L108.2188,29.6406 Z "/><text fill="#000000" font-family="sans-serif" font-size="12" lengthAdjust="spacingAndGlyphs" textLength="82" x="125.75" y="28.1543">Codec::Result</text><line style="stroke: #A80036; stroke-width: 1.5;" x1="62" x2="239" y1="40" y2="40"/><line style="stroke: #A80036; stroke-width: 1.5;" x1="62" x2="239" y1="48" y2="48"/><ellipse cx="72" cy="59.9023" fill="#84BE84" rx="3" ry="3" style="stroke: #038048; stroke-width: 1.0;"/><text fill="#000000" font-family="sans-serif" font-size="11" lengthAdjust="spacingAndGlyphs" textLength="121" x="81" y="62.2104">isOverflow(): boolean</text><ellipse cx="72" cy="72.707" fill="#84BE84" rx="3" ry="3" style="stroke: #038048; stroke-width: 1.0;"/><text fill="#000000" font-family="sans-serif" font-size="11" lengthAdjust="spacingAndGlyphs" textLength="127" x="81" y="75.0151">isUnderflow(): boolean</text><ellipse cx="72" cy="85.5117" fill="#84BE84" rx="3" ry="3" style="stroke: #038048; stroke-width: 1.0;"/><text fill="#000000" font-family="sans-serif" font-size="11" lengthAdjust="spacingAndGlyphs" textLength="153" x="81" y="87.8198">closeConnection(): boolean</text><!--class Decoder::Result--><rect fill="#FEFECE" filter="url(#faek9yg)" height="86.4141" style="stroke: #A80036; stroke-width: 1.5;" width="289" x="6" y="154"/><ellipse cx="21" cy="170" fill="#ADD1B2" rx="11" ry="11" style="stroke: #A80036; stroke-width: 1.0;"/><path d="M23.9688,175.6406 Q23.3906,175.9375 22.75,176.0859 Q22.1094,176.2344 21.4063,176.2344 Q18.9063,176.2344 17.5859,174.5859 Q16.2656,172.9375 16.2656,169.8125 Q16.2656,166.6875 17.5859,165.0313 Q18.9063,163.375 21.4063,163.375 Q22.1094,163.375 22.7578,163.5313 Q23.4063,163.6875 23.9688,163.9844 L23.9688,166.7031 Q23.3438,166.125 22.75,165.8516 Q22.1563,165.5781 21.5313,165.5781 Q20.1875,165.5781 19.5,166.6484 Q18.8125,167.7188 18.8125,169.8125 Q18.8125,171.9063 19.5,172.9766 Q20.1875,174.0469 21.5313,174.0469 Q22.1563,174.0469 22.75,173.7734 Q23.3438,173.5 23.9688,172.9219 L23.9688,175.6406 Z "/><text fill="#000000" font-family="sans-serif" font-size="12" lengthAdjust="spacingAndGlyphs" textLength="95" x="35" y="174.1543">Decoder::Result</text><rect fill="#FFFFFF" height="15.9688" style="stroke: #000000; stroke-width: 1.0; stroke-dasharray: 2.0,2.0;" width="160" x="138" y="151"/><text fill="#000000" font-family="sans-serif" font-size="12" font-style="italic" lengthAdjust="spacingAndGlyphs" textLength="158" x="139" y="163.1387">R extends MessageHeader</text><line style="stroke: #A80036; stroke-width: 1.5;" x1="7" x2="294" y1="186" y2="186"/><line style="stroke: #A80036; stroke-width: 1.5;" x1="7" x2="294" y1="194" y2="194"/><ellipse cx="17" cy="205.9023" fill="#84BE84" rx="3" ry="3" style="stroke: #038048; stroke-width: 1.0;"/><text fill="#000000" font-family="sans-serif" font-size="11" lengthAdjust="spacingAndGlyphs" textLength="176" x="26" y="208.2104">isHeaderCompleted() : boolean</text><ellipse cx="17" cy="218.707" fill="#84BE84" rx="3" ry="3" style="stroke: #038048; stroke-width: 1.0;"/><text fill="#000000" font-family="sans-serif" font-size="11" lengthAdjust="spacingAndGlyphs" textLength="145" x="26" y="221.0151">response() : Optional&lt;R&gt;</text><ellipse cx="17" cy="231.5117" fill="#84BE84" rx="3" ry="3" style="stroke: #038048; stroke-width: 1.0;"/><text fill="#000000" font-family="sans-serif" font-size="11" lengthAdjust="spacingAndGlyphs" textLength="147" x="26" y="233.8198">boolean isResponseOnly()</text><path d="M150.5,114.3278 C150.5,127.6494 150.5,141.4083 150.5,153.7878 " fill="none" style="stroke: #A80036; stroke-width: 1.0;"/><polygon fill="none" points="143.5001,114.0152,150.5,94.0152,157.5001,114.0151,143.5001,114.0152" style="stroke: #A80036; stroke-width: 1.0;"/></g></svg>