<?xml version="1.0" encoding="UTF-8" standalone="no"?><svg xmlns="http://www.w3.org/2000/svg" xmlns:xlink="http://www.w3.org/1999/xlink" contentScriptType="application/ecmascript" contentStyleType="text/css" height="198px" preserveAspectRatio="none" style="width:443px;height:198px;" version="1.1" viewBox="0 0 443 198" width="443px" zoomAndPan="magnify"><defs><filter height="300%" id="feizvuw" width="300%" x="-1" y="-1"><feGaussianBlur result="blurOut" stdDeviation="2.0"/><feColorMatrix in="blurOut" result="blurOut2" type="matrix" values="0 0 0 0 0 0 0 0 0 0 0 0 0 0 0 0 0 0 .4 0"/><feOffset dx="4.0" dy="4.0" in="blurOut2" result="blurOut3"/><feBlend in="SourceGraphic" in2="blurOut3" mode="normal"/></filter></defs><g><!--class Decoder--><rect fill="#FEFECE" filter="url(#feizvuw)" height="73.6094" style="stroke: #A80036; stroke-width: 1.5;" width="428" x="6" y="116"/><ellipse cx="21" cy="132" fill="#B4A7E5" rx="11" ry="11" style="stroke: #A80036; stroke-width: 1.0;"/><path d="M16.9219,127.7656 L16.9219,125.6094 L24.3125,125.6094 L24.3125,127.7656 L21.8438,127.7656 L21.8438,135.8438 L24.3125,135.8438 L24.3125,138 L16.9219,138 L16.9219,135.8438 L19.3906,135.8438 L19.3906,127.7656 L16.9219,127.7656 Z "/><text fill="#000000" font-family="sans-serif" font-size="12" font-style="italic" lengthAdjust="spacingAndGlyphs" textLength="53" x="35" y="136.1543">Decoder</text><rect fill="#FFFFFF" height="15.9688" style="stroke: #000000; stroke-width: 1.0; stroke-dasharray: 2.0,2.0;" width="341" x="96" y="113"/><text fill="#000000" font-family="sans-serif" font-size="12" font-style="italic" lengthAdjust="spacingAndGlyphs" textLength="339" x="97" y="125.1387">T extends MessageHeader, R extends MessageHeader</text><line style="stroke: #A80036; stroke-width: 1.5;" x1="7" x2="433" y1="148" y2="148"/><line style="stroke: #A80036; stroke-width: 1.5;" x1="7" x2="433" y1="156" y2="156"/><text fill="#000000" font-family="sans-serif" font-size="11" lengthAdjust="spacingAndGlyphs" textLength="371" x="12" y="170.2104">Result&lt;R&gt; decode(ByteBuffer in, Buffer out, boolean endOfInput)</text><text fill="#000000" font-family="sans-serif" font-size="11" lengthAdjust="spacingAndGlyphs" textLength="124" x="12" y="183.0151">Optional&lt;T&gt; header()</text><!--class Codec--><rect fill="#FEFECE" filter="url(#feizvuw)" height="48" style="stroke: #A80036; stroke-width: 1.5;" width="71" x="184.5" y="8"/><ellipse cx="199.5" cy="24" fill="#B4A7E5" rx="11" ry="11" style="stroke: #A80036; stroke-width: 1.0;"/><path d="M195.4219,19.7656 L195.4219,17.6094 L202.8125,17.6094 L202.8125,19.7656 L200.3438,19.7656 L200.3438,27.8438 L202.8125,27.8438 L202.8125,30 L195.4219,30 L195.4219,27.8438 L197.8906,27.8438 L197.8906,19.7656 L195.4219,19.7656 Z "/><text fill="#000000" font-family="sans-serif" font-size="12" font-style="italic" lengthAdjust="spacingAndGlyphs" textLength="39" x="213.5" y="28.1543">Codec</text><line style="stroke: #A80036; stroke-width: 1.5;" x1="185.5" x2="254.5" y1="40" y2="40"/><line style="stroke: #A80036; stroke-width: 1.5;" x1="185.5" x2="254.5" y1="48" y2="48"/><path d="M220,76.433 C220,89.332 220,103.3199 220,115.714 " fill="none" style="stroke: #A80036; stroke-width: 1.0;"/><polygon fill="none" points="213,76.227,220,56.227,227,76.227,213,76.227" style="stroke: #A80036; stroke-width: 1.0;"/></g></svg>