<?xml version="1.0" encoding="UTF-8" standalone="no"?><svg xmlns="http://www.w3.org/2000/svg" xmlns:xlink="http://www.w3.org/1999/xlink" contentScriptType="application/ecmascript" contentStyleType="text/css" height="249px" preserveAspectRatio="none" style="width:317px;height:249px;" version="1.1" viewBox="0 0 317 249" width="317px" zoomAndPan="magnify"><defs><filter height="300%" id="f4xn18n" width="300%" x="-1" y="-1"><feGaussianBlur result="blurOut" stdDeviation="2.0"/><feColorMatrix in="blurOut" result="blurOut2" type="matrix" values="0 0 0 0 0 0 0 0 0 0 0 0 0 0 0 0 0 0 .4 0"/><feOffset dx="4.0" dy="4.0" in="blurOut2" result="blurOut3"/><feBlend in="SourceGraphic" in2="blurOut3" mode="normal"/></filter></defs><g><!--class Codec::Result--><rect fill="#FEFECE" filter="url(#f4xn18n)" height="86.4141" style="stroke: #A80036; stroke-width: 1.5;" width="180" x="67" y="8"/><ellipse cx="109.9" cy="24" fill="#ADD1B2" rx="11" ry="11" style="stroke: #A80036; stroke-width: 1.0;"/><path d="M112.8688,29.6406 Q112.2906,29.9375 111.65,30.0859 Q111.0094,30.2344 110.3063,30.2344 Q107.8063,30.2344 106.4859,28.5859 Q105.1656,26.9375 105.1656,23.8125 Q105.1656,20.6875 106.4859,19.0313 Q107.8063,17.375 110.3063,17.375 Q111.0094,17.375 111.6578,17.5313 Q112.3063,17.6875 112.8688,17.9844 L112.8688,20.7031 Q112.2438,20.125 111.65,19.8516 Q111.0563,19.5781 110.4313,19.5781 Q109.0875,19.5781 108.4,20.6484 Q107.7125,21.7188 107.7125,23.8125 Q107.7125,25.9063 108.4,26.9766 Q109.0875,28.0469 110.4313,28.0469 Q111.0563,28.0469 111.65,27.7734 Q112.2438,27.5 112.8688,26.9219 L112.8688,29.6406 Z "/><text fill="#000000" font-family="sans-serif" font-size="12" lengthAdjust="spacingAndGlyphs" textLength="86" x="130.1" y="28.1543">Codec::Result</text><line style="stroke: #A80036; stroke-width: 1.5;" x1="68" x2="246" y1="40" y2="40"/><line style="stroke: #A80036; stroke-width: 1.5;" x1="68" x2="246" y1="48" y2="48"/><ellipse cx="78" cy="59.9023" fill="#84BE84" rx="3" ry="3" style="stroke: #038048; stroke-width: 1.0;"/><text fill="#000000" font-family="sans-serif" font-size="11" lengthAdjust="spacingAndGlyphs" textLength="121" x="87" y="62.2104">isOverflow(): boolean</text><ellipse cx="78" cy="72.707" fill="#84BE84" rx="3" ry="3" style="stroke: #038048; stroke-width: 1.0;"/><text fill="#000000" font-family="sans-serif" font-size="11" lengthAdjust="spacingAndGlyphs" textLength="128" x="87" y="75.0151">isUnderflow(): boolean</text><ellipse cx="78" cy="85.5117" fill="#84BE84" rx="3" ry="3" style="stroke: #038048; stroke-width: 1.0;"/><text fill="#000000" font-family="sans-serif" font-size="11" lengthAdjust="spacingAndGlyphs" textLength="154" x="87" y="87.8198">closeConnection(): boolean</text><!--class Decoder::Result--><rect fill="#FEFECE" filter="url(#f4xn18n)" height="86.4141" style="stroke: #A80036; stroke-width: 1.5;" width="302" x="6" y="154"/><ellipse cx="21" cy="170" fill="#ADD1B2" rx="11" ry="11" style="stroke: #A80036; stroke-width: 1.0;"/><path d="M23.9688,175.6406 Q23.3906,175.9375 22.75,176.0859 Q22.1094,176.2344 21.4063,176.2344 Q18.9063,176.2344 17.5859,174.5859 Q16.2656,172.9375 16.2656,169.8125 Q16.2656,166.6875 17.5859,165.0313 Q18.9063,163.375 21.4063,163.375 Q22.1094,163.375 22.7578,163.5313 Q23.4063,163.6875 23.9688,163.9844 L23.9688,166.7031 Q23.3438,166.125 22.75,165.8516 Q22.1563,165.5781 21.5313,165.5781 Q20.1875,165.5781 19.5,166.6484 Q18.8125,167.7188 18.8125,169.8125 Q18.8125,171.9063 19.5,172.9766 Q20.1875,174.0469 21.5313,174.0469 Q22.1563,174.0469 22.75,173.7734 Q23.3438,173.5 23.9688,172.9219 L23.9688,175.6406 Z "/><text fill="#000000" font-family="sans-serif" font-size="12" lengthAdjust="spacingAndGlyphs" textLength="100" x="35" y="174.1543">Decoder::Result</text><rect fill="#FFFFFF" height="15.9688" style="stroke: #000000; stroke-width: 1.0; stroke-dasharray: 2.0,2.0;" width="168" x="143" y="151"/><text fill="#000000" font-family="sans-serif" font-size="12" font-style="italic" lengthAdjust="spacingAndGlyphs" textLength="166" x="144" y="163.1387">R extends MessageHeader</text><line style="stroke: #A80036; stroke-width: 1.5;" x1="7" x2="307" y1="186" y2="186"/><line style="stroke: #A80036; stroke-width: 1.5;" x1="7" x2="307" y1="194" y2="194"/><ellipse cx="17" cy="205.9023" fill="#84BE84" rx="3" ry="3" style="stroke: #038048; stroke-width: 1.0;"/><text fill="#000000" font-family="sans-serif" font-size="11" lengthAdjust="spacingAndGlyphs" textLength="177" x="26" y="208.2104">isHeaderCompleted() : boolean</text><ellipse cx="17" cy="218.707" fill="#84BE84" rx="3" ry="3" style="stroke: #038048; stroke-width: 1.0;"/><text fill="#000000" font-family="sans-serif" font-size="11" lengthAdjust="spacingAndGlyphs" textLength="146" x="26" y="221.0151">response() : Optional&lt;R&gt;</text><ellipse cx="17" cy="231.5117" fill="#84BE84" rx="3" ry="3" style="stroke: #038048; stroke-width: 1.0;"/><text fill="#000000" font-family="sans-serif" font-size="11" lengthAdjust="spacingAndGlyphs" textLength="148" x="26" y="233.8198">boolean isResponseOnly()</text><path d="M157,114.29 C157,127.583 157,141.3254 157,153.6606 " fill="none" style="stroke: #A80036; stroke-width: 1.0;"/><polygon fill="none" points="150,114.038,157,94.038,164,114.038,150,114.038" style="stroke: #A80036; stroke-width: 1.0;"/></g></svg>