<?xml version="1.0" encoding="UTF-8" standalone="no"?><svg xmlns="http://www.w3.org/2000/svg" xmlns:xlink="http://www.w3.org/1999/xlink" contentScriptType="application/ecmascript" contentStyleType="text/css" height="211px" preserveAspectRatio="none" style="width:374px;height:211px;" version="1.1" viewBox="0 0 374 211" width="374px" zoomAndPan="magnify"><defs><filter height="300%" id="flyfv6e" width="300%" x="-1" y="-1"><feGaussianBlur result="blurOut" stdDeviation="2.0"/><feColorMatrix in="blurOut" result="blurOut2" type="matrix" values="0 0 0 0 0 0 0 0 0 0 0 0 0 0 0 0 0 0 .4 0"/><feOffset dx="4.0" dy="4.0" in="blurOut2" result="blurOut3"/><feBlend in="SourceGraphic" in2="blurOut3" mode="normal"/></filter></defs><g><!--class Encoder--><rect fill="#FEFECE" filter="url(#flyfv6e)" height="86.4141" style="stroke: #A80036; stroke-width: 1.5;" width="359" x="6" y="116"/><ellipse cx="156.25" cy="132" fill="#B4A7E5" rx="11" ry="11" style="stroke: #A80036; stroke-width: 1.0;"/><path d="M152.6719,127.7656 L152.6719,125.6094 L160.0625,125.6094 L160.0625,127.7656 L157.5938,127.7656 L157.5938,135.8438 L160.0625,135.8438 L160.0625,138 L152.6719,138 L152.6719,135.8438 L155.1406,135.8438 L155.1406,127.7656 L152.6719,127.7656 Z "/><text fill="#000000" font-family="sans-serif" font-size="12" font-style="italic" lengthAdjust="spacingAndGlyphs" textLength="50" x="176.75" y="136.1543">Encoder</text><line style="stroke: #A80036; stroke-width: 1.5;" x1="7" x2="364" y1="148" y2="148"/><line style="stroke: #A80036; stroke-width: 1.5;" x1="7" x2="364" y1="156" y2="156"/><text fill="#000000" font-family="sans-serif" font-size="11" lengthAdjust="spacingAndGlyphs" textLength="180" x="12" y="170.2104">void encode(T messageHeader)</text><text fill="#000000" font-family="sans-serif" font-size="11" lengthAdjust="spacingAndGlyphs" textLength="347" x="12" y="183.0151">Result encode(Buffer in, ByteBuffer out, boolean endOfInput)</text><text fill="#000000" font-family="sans-serif" font-size="11" lengthAdjust="spacingAndGlyphs" textLength="171" x="12" y="195.8198">Result encode(ByteBuffer out)</text><!--class Codec--><rect fill="#FEFECE" filter="url(#flyfv6e)" height="48" style="stroke: #A80036; stroke-width: 1.5;" width="69" x="151" y="8"/><ellipse cx="166" cy="24" fill="#B4A7E5" rx="11" ry="11" style="stroke: #A80036; stroke-width: 1.0;"/><path d="M162.4219,19.7656 L162.4219,17.6094 L169.8125,17.6094 L169.8125,19.7656 L167.3438,19.7656 L167.3438,27.8438 L169.8125,27.8438 L169.8125,30 L162.4219,30 L162.4219,27.8438 L164.8906,27.8438 L164.8906,19.7656 L162.4219,19.7656 Z "/><text fill="#000000" font-family="sans-serif" font-size="12" font-style="italic" lengthAdjust="spacingAndGlyphs" textLength="37" x="180" y="28.1543">Codec</text><line style="stroke: #A80036; stroke-width: 1.5;" x1="152" x2="219" y1="40" y2="40"/><line style="stroke: #A80036; stroke-width: 1.5;" x1="152" x2="219" y1="48" y2="48"/><path d="M185.5,76.2782 C185.5,89.1161 185.5,103.1115 185.5,115.8776 " fill="none" style="stroke: #A80036; stroke-width: 1.0;"/><polygon fill="none" points="178.5001,76.1867,185.5,56.1867,192.5001,76.1866,178.5001,76.1867" style="stroke: #A80036; stroke-width: 1.0;"/></g></svg>