<?xml version="1.0" encoding="UTF-8" standalone="no"?><svg xmlns="http://www.w3.org/2000/svg" xmlns:xlink="http://www.w3.org/1999/xlink" contentScriptType="application/ecmascript" contentStyleType="text/css" height="211px" preserveAspectRatio="none" style="width:373px;height:211px;" version="1.1" viewBox="0 0 373 211" width="373px" zoomAndPan="magnify"><defs><filter height="300%" id="f3e5aze" width="300%" x="-1" y="-1"><feGaussianBlur result="blurOut" stdDeviation="2.0"/><feColorMatrix in="blurOut" result="blurOut2" type="matrix" values="0 0 0 0 0 0 0 0 0 0 0 0 0 0 0 0 0 0 .4 0"/><feOffset dx="4.0" dy="4.0" in="blurOut2" result="blurOut3"/><feBlend in="SourceGraphic" in2="blurOut3" mode="normal"/></filter></defs><g><!--class Encoder--><rect fill="#FEFECE" filter="url(#f3e5aze)" height="86.4141" style="stroke: #A80036; stroke-width: 1.5;" width="358" x="6" y="116"/><ellipse cx="154.75" cy="132" fill="#B4A7E5" rx="11" ry="11" style="stroke: #A80036; stroke-width: 1.0;"/><path d="M150.6719,127.7656 L150.6719,125.6094 L158.0625,125.6094 L158.0625,127.7656 L155.5938,127.7656 L155.5938,135.8438 L158.0625,135.8438 L158.0625,138 L150.6719,138 L150.6719,135.8438 L153.1406,135.8438 L153.1406,127.7656 L150.6719,127.7656 Z "/><text fill="#000000" font-family="sans-serif" font-size="12" font-style="italic" lengthAdjust="spacingAndGlyphs" textLength="52" x="175.25" y="136.1543">Encoder</text><line style="stroke: #A80036; stroke-width: 1.5;" x1="7" x2="363" y1="148" y2="148"/><line style="stroke: #A80036; stroke-width: 1.5;" x1="7" x2="363" y1="156" y2="156"/><text fill="#000000" font-family="sans-serif" font-size="11" lengthAdjust="spacingAndGlyphs" textLength="181" x="12" y="170.2104">void encode(T messageHeader)</text><text fill="#000000" font-family="sans-serif" font-size="11" lengthAdjust="spacingAndGlyphs" textLength="346" x="12" y="183.0151">Result encode(Buffer in, ByteBuffer out, boolean endOfInput)</text><text fill="#000000" font-family="sans-serif" font-size="11" lengthAdjust="spacingAndGlyphs" textLength="170" x="12" y="195.8198">Result encode(ByteBuffer out)</text><!--class Codec--><rect fill="#FEFECE" filter="url(#f3e5aze)" height="48" style="stroke: #A80036; stroke-width: 1.5;" width="71" x="149.5" y="8"/><ellipse cx="164.5" cy="24" fill="#B4A7E5" rx="11" ry="11" style="stroke: #A80036; stroke-width: 1.0;"/><path d="M160.4219,19.7656 L160.4219,17.6094 L167.8125,17.6094 L167.8125,19.7656 L165.3438,19.7656 L165.3438,27.8438 L167.8125,27.8438 L167.8125,30 L160.4219,30 L160.4219,27.8438 L162.8906,27.8438 L162.8906,19.7656 L160.4219,19.7656 Z "/><text fill="#000000" font-family="sans-serif" font-size="12" font-style="italic" lengthAdjust="spacingAndGlyphs" textLength="39" x="178.5" y="28.1543">Codec</text><line style="stroke: #A80036; stroke-width: 1.5;" x1="150.5" x2="219.5" y1="40" y2="40"/><line style="stroke: #A80036; stroke-width: 1.5;" x1="150.5" x2="219.5" y1="48" y2="48"/><path d="M185,76.269 C185,89.117 185,103.1658 185,115.9359 " fill="none" style="stroke: #A80036; stroke-width: 1.0;"/><polygon fill="none" points="178,76.219,185,56.219,192,76.219,178,76.219" style="stroke: #A80036; stroke-width: 1.0;"/></g></svg>