<?xml version="1.0" encoding="UTF-8" standalone="no"?><svg xmlns="http://www.w3.org/2000/svg" xmlns:xlink="http://www.w3.org/1999/xlink" contentScriptType="application/ecmascript" contentStyleType="text/css" height="629px" preserveAspectRatio="none" style="width:417px;height:629px;" version="1.1" viewBox="0 0 417 629" width="417px" zoomAndPan="magnify"><defs><filter height="300%" id="fncacbi" width="300%" x="-1" y="-1"><feGaussianBlur result="blurOut" stdDeviation="2.0"/><feColorMatrix in="blurOut" result="blurOut2" type="matrix" values="0 0 0 0 0 0 0 0 0 0 0 0 0 0 0 0 0 0 .4 0"/><feOffset dx="4.0" dy="4.0" in="blurOut2" result="blurOut3"/><feBlend in="SourceGraphic" in2="blurOut3" mode="normal"/></filter></defs><g><text fill="#000000" font-family="sans-serif" font-size="18" lengthAdjust="spacingAndGlyphs" textLength="206" x="110.25" y="26.708">Handle Decoder Result</text><ellipse cx="291.5" cy="40.9531" fill="#000000" filter="url(#fncacbi)" rx="10" ry="10" style="stroke: none; stroke-width: 1.0;"/><rect fill="#FEFECE" filter="url(#fncacbi)" height="61.9063" rx="12.5" ry="12.5" style="stroke: #A80036; stroke-width: 1.5;" width="142" x="220.5" y="119.3555"/><text fill="#000000" font-family="sans-serif" font-size="12" lengthAdjust="spacingAndGlyphs" textLength="115" x="230.5" y="140.4941">Send protocol level</text><text fill="#000000" font-family="sans-serif" font-size="12" lengthAdjust="spacingAndGlyphs" textLength="118" x="230.5" y="154.4629">response contained</text><text fill="#000000" font-family="sans-serif" font-size="12" lengthAdjust="spacingAndGlyphs" textLength="49" x="230.5" y="168.4316">in result</text><polygon fill="#FEFECE" filter="url(#fncacbi)" points="291.5,70.9531,303.5,82.9531,291.5,94.9531,279.5,82.9531,291.5,70.9531" style="stroke: #A80036; stroke-width: 1.5;"/><text fill="#000000" font-family="sans-serif" font-size="11" lengthAdjust="spacingAndGlyphs" textLength="119" x="297.5" y="105.1636">[result has message]</text><text fill="#000000" font-family="sans-serif" font-size="11" lengthAdjust="spacingAndGlyphs" textLength="31" x="303.5" y="80.3589">[else]</text><polygon fill="#FEFECE" filter="url(#fncacbi)" points="291.5,201.2617,303.5,213.2617,291.5,225.2617,279.5,213.2617,291.5,201.2617" style="stroke: #A80036; stroke-width: 1.5;"/><rect fill="#FEFECE" filter="url(#fncacbi)" height="33.9688" rx="12.5" ry="12.5" style="stroke: #A80036; stroke-width: 1.5;" width="122" x="230.5" y="293.6641"/><text fill="#000000" font-family="sans-serif" font-size="12" lengthAdjust="spacingAndGlyphs" textLength="102" x="240.5" y="314.8027">Close connection</text><polygon fill="#FEFECE" filter="url(#fncacbi)" points="291.5,245.2617,303.5,257.2617,291.5,269.2617,279.5,257.2617,291.5,245.2617" style="stroke: #A80036; stroke-width: 1.5;"/><text fill="#000000" font-family="sans-serif" font-size="11" lengthAdjust="spacingAndGlyphs" textLength="102" x="297.5" y="279.4722">[close connection]</text><text fill="#000000" font-family="sans-serif" font-size="11" lengthAdjust="spacingAndGlyphs" textLength="31" x="303.5" y="254.6675">[else]</text><polygon fill="#FEFECE" filter="url(#fncacbi)" points="291.5,347.6328,303.5,359.6328,291.5,371.6328,279.5,359.6328,291.5,347.6328" style="stroke: #A80036; stroke-width: 1.5;"/><polygon fill="#FEFECE" filter="url(#fncacbi)" points="291.5,396.3364,303.5,408.3364,291.5,420.3364,279.5,408.3364,291.5,396.3364" style="stroke: #A80036; stroke-width: 1.5;"/><text fill="#000000" font-family="sans-serif" font-size="11" lengthAdjust="spacingAndGlyphs" textLength="88" x="157.5" y="392.9375">[!response only</text><text fill="#000000" font-family="sans-serif" font-size="11" lengthAdjust="spacingAndGlyphs" textLength="122" x="157.5" y="405.7422">&amp;&amp; header complete]</text><text fill="#000000" font-family="sans-serif" font-size="11" lengthAdjust="spacingAndGlyphs" textLength="31" x="303.5" y="405.7422">[else]</text><polygon fill="#FBFB77" filter="url(#fncacbi)" points="20,430.3364,20,500.8677,162,500.8677,162,440.3364,152,430.3364,20,430.3364" style="stroke: #A80036; stroke-width: 1.0;"/><polygon fill="#FBFB77" points="20,430.3364,20,500.8677,162,500.8677,162,469.6021,182,465.6021,162,461.6021,162,440.3364,152,430.3364,20,430.3364" style="stroke: #A80036; stroke-width: 1.0;"/><line style="stroke: #A80036; stroke-width: 1.0;" x1="152" x2="152" y1="430.3364" y2="440.3364"/><line style="stroke: #A80036; stroke-width: 1.0;" x1="162" x2="152" y1="440.3364" y2="440.3364"/><text fill="#000000" font-family="sans-serif" font-size="13" lengthAdjust="spacingAndGlyphs" textLength="117" x="26" y="447.4033">Includes decoding</text><text fill="#000000" font-family="sans-serif" font-size="13" lengthAdjust="spacingAndGlyphs" textLength="93" x="26" y="462.5361">any body data</text><text fill="#000000" font-family="sans-serif" font-size="13" lengthAdjust="spacingAndGlyphs" textLength="82" x="26" y="477.6689">remaining in</text><text fill="#000000" font-family="sans-serif" font-size="13" lengthAdjust="spacingAndGlyphs" textLength="99" x="26" y="492.8018">received chunk</text><rect fill="#FEFECE" filter="url(#fncacbi)" height="33.9688" rx="12.5" ry="12.5" style="stroke: #A80036; stroke-width: 1.5;" width="119" x="182" y="448.6177"/><text fill="#000000" font-family="sans-serif" font-size="12" lengthAdjust="spacingAndGlyphs" textLength="99" x="192" y="469.7563">Handle message</text><rect fill="#FEFECE" filter="url(#fncacbi)" height="61.9063" rx="12.5" ry="12.5" style="stroke: #A80036; stroke-width: 1.5;" width="130" x="176.5" y="520.8677"/><text fill="#000000" font-family="sans-serif" font-size="12" lengthAdjust="spacingAndGlyphs" textLength="89" x="186.5" y="542.0063">Send response</text><text fill="#000000" font-family="sans-serif" font-size="12" lengthAdjust="spacingAndGlyphs" textLength="81" x="186.5" y="555.9751">created while</text><text fill="#000000" font-family="sans-serif" font-size="12" lengthAdjust="spacingAndGlyphs" textLength="110" x="186.5" y="569.9438">handling message</text><ellipse cx="241.5" cy="612.7739" fill="#FFFFFF" filter="url(#fncacbi)" rx="10" ry="10" style="stroke: #000000; stroke-width: 1.5;"/><line style="stroke: #000000; stroke-width: 2.5;" x1="235.3128" x2="247.6872" y1="606.5867" y2="618.9611"/><line style="stroke: #000000; stroke-width: 2.5;" x1="247.6872" x2="235.3128" y1="606.5867" y2="618.9611"/><ellipse cx="341.5" cy="440.3364" fill="#FFFFFF" filter="url(#fncacbi)" rx="10" ry="10" style="stroke: #000000; stroke-width: 1.5;"/><line style="stroke: #000000; stroke-width: 2.5;" x1="335.3128" x2="347.6872" y1="434.1492" y2="446.5236"/><line style="stroke: #000000; stroke-width: 2.5;" x1="347.6872" x2="335.3128" y1="434.1492" y2="446.5236"/><line style="stroke: #A80036; stroke-width: 1.5;" x1="291.5" x2="291.5" y1="94.9531" y2="119.3555"/><polygon fill="#A80036" points="287.5,109.3555,291.5,119.3555,295.5,109.3555,291.5,113.3555" style="stroke: #A80036; stroke-width: 1.0;"/><line style="stroke: #A80036; stroke-width: 1.5;" x1="303.5" x2="372.5" y1="82.9531" y2="82.9531"/><polygon fill="#A80036" points="368.5,140.3086,372.5,150.3086,376.5,140.3086,372.5,144.3086" style="stroke: #A80036; stroke-width: 1.5;"/><line style="stroke: #A80036; stroke-width: 1.5;" x1="372.5" x2="372.5" y1="82.9531" y2="213.2617"/><line style="stroke: #A80036; stroke-width: 1.5;" x1="372.5" x2="303.5" y1="213.2617" y2="213.2617"/><polygon fill="#A80036" points="313.5,209.2617,303.5,213.2617,313.5,217.2617,309.5,213.2617" style="stroke: #A80036; stroke-width: 1.0;"/><line style="stroke: #A80036; stroke-width: 1.5;" x1="291.5" x2="291.5" y1="181.2617" y2="201.2617"/><polygon fill="#A80036" points="287.5,191.2617,291.5,201.2617,295.5,191.2617,291.5,195.2617" style="stroke: #A80036; stroke-width: 1.0;"/><line style="stroke: #A80036; stroke-width: 1.5;" x1="291.5" x2="291.5" y1="50.9531" y2="70.9531"/><polygon fill="#A80036" points="287.5,60.9531,291.5,70.9531,295.5,60.9531,291.5,64.9531" style="stroke: #A80036; stroke-width: 1.0;"/><line style="stroke: #A80036; stroke-width: 1.5;" x1="291.5" x2="291.5" y1="269.2617" y2="293.6641"/><polygon fill="#A80036" points="287.5,283.6641,291.5,293.6641,295.5,283.6641,291.5,287.6641" style="stroke: #A80036; stroke-width: 1.0;"/><line style="stroke: #A80036; stroke-width: 1.5;" x1="303.5" x2="362.5" y1="257.2617" y2="257.2617"/><polygon fill="#A80036" points="358.5,300.6484,362.5,310.6484,366.5,300.6484,362.5,304.6484" style="stroke: #A80036; stroke-width: 1.5;"/><line style="stroke: #A80036; stroke-width: 1.5;" x1="362.5" x2="362.5" y1="257.2617" y2="359.6328"/><line style="stroke: #A80036; stroke-width: 1.5;" x1="362.5" x2="303.5" y1="359.6328" y2="359.6328"/><polygon fill="#A80036" points="313.5,355.6328,303.5,359.6328,313.5,363.6328,309.5,359.6328" style="stroke: #A80036; stroke-width: 1.0;"/><line style="stroke: #A80036; stroke-width: 1.5;" x1="291.5" x2="291.5" y1="327.6328" y2="347.6328"/><polygon fill="#A80036" points="287.5,337.6328,291.5,347.6328,295.5,337.6328,291.5,341.6328" style="stroke: #A80036; stroke-width: 1.0;"/><line style="stroke: #A80036; stroke-width: 1.5;" x1="291.5" x2="291.5" y1="225.2617" y2="245.2617"/><polygon fill="#A80036" points="287.5,235.2617,291.5,245.2617,295.5,235.2617,291.5,239.2617" style="stroke: #A80036; stroke-width: 1.0;"/><line style="stroke: #A80036; stroke-width: 1.5;" x1="241.5" x2="241.5" y1="482.5864" y2="520.8677"/><polygon fill="#A80036" points="237.5,510.8677,241.5,520.8677,245.5,510.8677,241.5,514.8677" style="stroke: #A80036; stroke-width: 1.0;"/><line style="stroke: #A80036; stroke-width: 1.5;" x1="241.5" x2="241.5" y1="582.7739" y2="602.7739"/><polygon fill="#A80036" points="237.5,592.7739,241.5,602.7739,245.5,592.7739,241.5,596.7739" style="stroke: #A80036; stroke-width: 1.0;"/><line style="stroke: #A80036; stroke-width: 1.5;" x1="279.5" x2="241.5" y1="408.3364" y2="408.3364"/><line style="stroke: #A80036; stroke-width: 1.5;" x1="241.5" x2="241.5" y1="408.3364" y2="448.6177"/><polygon fill="#A80036" points="237.5,438.6177,241.5,448.6177,245.5,438.6177,241.5,442.6177" style="stroke: #A80036; stroke-width: 1.0;"/><line style="stroke: #A80036; stroke-width: 1.5;" x1="303.5" x2="341.5" y1="408.3364" y2="408.3364"/><line style="stroke: #A80036; stroke-width: 1.5;" x1="341.5" x2="341.5" y1="408.3364" y2="430.3364"/><polygon fill="#A80036" points="337.5,420.3364,341.5,430.3364,345.5,420.3364,341.5,424.3364" style="stroke: #A80036; stroke-width: 1.0;"/><line style="stroke: #A80036; stroke-width: 1.5;" x1="291.5" x2="291.5" y1="371.6328" y2="396.3364"/><polygon fill="#A80036" points="287.5,386.3364,291.5,396.3364,295.5,386.3364,291.5,390.3364" style="stroke: #A80036; stroke-width: 1.0;"/></g></svg>