<?xml version="1.0" encoding="UTF-8" standalone="no"?><svg xmlns="http://www.w3.org/2000/svg" xmlns:xlink="http://www.w3.org/1999/xlink" contentScriptType="application/ecmascript" contentStyleType="text/css" height="481px" preserveAspectRatio="none" style="width:434px;height:481px;" version="1.1" viewBox="0 0 434 481" width="434px" zoomAndPan="magnify"><defs><filter height="300%" id="fvfmkrx" width="300%" x="-1" y="-1"><feGaussianBlur result="blurOut" stdDeviation="2.0"/><feColorMatrix in="blurOut" result="blurOut2" type="matrix" values="0 0 0 0 0 0 0 0 0 0 0 0 0 0 0 0 0 0 .4 0"/><feOffset dx="4.0" dy="4.0" in="blurOut2" result="blurOut3"/><feBlend in="SourceGraphic" in2="blurOut3" mode="normal"/></filter></defs><g><text fill="#000000" font-family="sans-serif" font-size="18" lengthAdjust="spacingAndGlyphs" textLength="204" x="119.875" y="26.708">Handle Decoder Result</text><ellipse cx="304.75" cy="40.9531" fill="#000000" filter="url(#fvfmkrx)" rx="10" ry="10" style="stroke: none; stroke-width: 1.0;"/><rect fill="#FEFECE" filter="url(#fvfmkrx)" height="61.9063" rx="12.5" ry="12.5" style="stroke: #A80036; stroke-width: 1.5;" width="115" x="247.25" y="119.3555"/><text fill="#000000" font-family="sans-serif" font-size="12" lengthAdjust="spacingAndGlyphs" textLength="95" x="257.25" y="140.4941">Send response</text><text fill="#000000" font-family="sans-serif" font-size="12" lengthAdjust="spacingAndGlyphs" textLength="78" x="257.25" y="154.4629">contained in</text><text fill="#000000" font-family="sans-serif" font-size="12" lengthAdjust="spacingAndGlyphs" textLength="36" x="257.25" y="168.4316">result</text><polygon fill="#FEFECE" filter="url(#fvfmkrx)" points="304.75,70.9531,316.75,82.9531,304.75,94.9531,292.75,82.9531,304.75,70.9531" style="stroke: #A80036; stroke-width: 1.5;"/><text fill="#000000" font-family="sans-serif" font-size="11" lengthAdjust="spacingAndGlyphs" textLength="123" x="310.75" y="105.1636">[result has message]</text><text fill="#000000" font-family="sans-serif" font-size="11" lengthAdjust="spacingAndGlyphs" textLength="32" x="316.75" y="80.3589">[else]</text><polygon fill="#FEFECE" filter="url(#fvfmkrx)" points="304.75,201.2617,316.75,213.2617,304.75,225.2617,292.75,213.2617,304.75,201.2617" style="stroke: #A80036; stroke-width: 1.5;"/><polygon fill="#FEFECE" filter="url(#fvfmkrx)" points="304.75,262.77,316.75,274.77,304.75,286.77,292.75,274.77,304.75,262.77" style="stroke: #A80036; stroke-width: 1.5;"/><text fill="#000000" font-family="sans-serif" font-size="11" lengthAdjust="spacingAndGlyphs" textLength="88" x="163.75" y="246.5664">[!response only</text><text fill="#000000" font-family="sans-serif" font-size="11" lengthAdjust="spacingAndGlyphs" textLength="129" x="163.75" y="259.3711">&amp;&amp; !connection closed</text><text fill="#000000" font-family="sans-serif" font-size="11" lengthAdjust="spacingAndGlyphs" textLength="124" x="163.75" y="272.1758">&amp;&amp; header complete]</text><text fill="#000000" font-family="sans-serif" font-size="11" lengthAdjust="spacingAndGlyphs" textLength="32" x="316.75" y="272.1758">[else]</text><polygon fill="#FBFB77" filter="url(#fvfmkrx)" points="20,296.77,20,352.1685,171,352.1685,171,306.77,161,296.77,20,296.77" style="stroke: #A80036; stroke-width: 1.0;"/><polygon fill="#FBFB77" points="20,296.77,20,352.1685,171,352.1685,171,328.4692,191,324.4692,171,320.4692,171,306.77,161,296.77,20,296.77" style="stroke: #A80036; stroke-width: 1.0;"/><line style="stroke: #A80036; stroke-width: 1.0;" x1="161" x2="161" y1="296.77" y2="306.77"/><line style="stroke: #A80036; stroke-width: 1.0;" x1="171" x2="161" y1="306.77" y2="306.77"/><text fill="#000000" font-family="sans-serif" font-size="13" lengthAdjust="spacingAndGlyphs" textLength="114" x="26" y="313.8369">Includes decoding</text><text fill="#000000" font-family="sans-serif" font-size="13" lengthAdjust="spacingAndGlyphs" textLength="126" x="26" y="328.9697">any remaining body</text><text fill="#000000" font-family="sans-serif" font-size="13" lengthAdjust="spacingAndGlyphs" textLength="29" x="26" y="344.1025">data</text><rect fill="#FEFECE" filter="url(#fvfmkrx)" height="33.9688" rx="12.5" ry="12.5" style="stroke: #A80036; stroke-width: 1.5;" width="125" x="191" y="307.4849"/><text fill="#000000" font-family="sans-serif" font-size="12" lengthAdjust="spacingAndGlyphs" textLength="105" x="201" y="328.6235">Handle message</text><rect fill="#FEFECE" filter="url(#fvfmkrx)" height="61.9063" rx="12.5" ry="12.5" style="stroke: #A80036; stroke-width: 1.5;" width="135" x="186" y="372.1685"/><text fill="#000000" font-family="sans-serif" font-size="12" lengthAdjust="spacingAndGlyphs" textLength="95" x="196" y="393.3071">Send response</text><text fill="#000000" font-family="sans-serif" font-size="12" lengthAdjust="spacingAndGlyphs" textLength="84" x="196" y="407.2759">created while</text><text fill="#000000" font-family="sans-serif" font-size="12" lengthAdjust="spacingAndGlyphs" textLength="115" x="196" y="421.2446">handling message</text><ellipse cx="253.5" cy="464.0747" fill="#FFFFFF" filter="url(#fvfmkrx)" rx="10" ry="10" style="stroke: #000000; stroke-width: 1.5;"/><line style="stroke: #000000; stroke-width: 2.5;" x1="247.3128" x2="259.6872" y1="457.8875" y2="470.2619"/><line style="stroke: #000000; stroke-width: 2.5;" x1="259.6872" x2="247.3128" y1="457.8875" y2="470.2619"/><ellipse cx="356" cy="306.77" fill="#FFFFFF" filter="url(#fvfmkrx)" rx="10" ry="10" style="stroke: #000000; stroke-width: 1.5;"/><line style="stroke: #000000; stroke-width: 2.5;" x1="349.8128" x2="362.1872" y1="300.5828" y2="312.9572"/><line style="stroke: #000000; stroke-width: 2.5;" x1="362.1872" x2="349.8128" y1="300.5828" y2="312.9572"/><line style="stroke: #A80036; stroke-width: 1.5;" x1="304.75" x2="304.75" y1="94.9531" y2="119.3555"/><polygon fill="#A80036" points="300.75,109.3555,304.75,119.3555,308.75,109.3555,304.75,113.3555" style="stroke: #A80036; stroke-width: 1.0;"/><line style="stroke: #A80036; stroke-width: 1.5;" x1="316.75" x2="372.25" y1="82.9531" y2="82.9531"/><polygon fill="#A80036" points="368.25,140.3086,372.25,150.3086,376.25,140.3086,372.25,144.3086" style="stroke: #A80036; stroke-width: 1.5;"/><line style="stroke: #A80036; stroke-width: 1.5;" x1="372.25" x2="372.25" y1="82.9531" y2="213.2617"/><line style="stroke: #A80036; stroke-width: 1.5;" x1="372.25" x2="316.75" y1="213.2617" y2="213.2617"/><polygon fill="#A80036" points="326.75,209.2617,316.75,213.2617,326.75,217.2617,322.75,213.2617" style="stroke: #A80036; stroke-width: 1.0;"/><line style="stroke: #A80036; stroke-width: 1.5;" x1="304.75" x2="304.75" y1="181.2617" y2="201.2617"/><polygon fill="#A80036" points="300.75,191.2617,304.75,201.2617,308.75,191.2617,304.75,195.2617" style="stroke: #A80036; stroke-width: 1.0;"/><line style="stroke: #A80036; stroke-width: 1.5;" x1="304.75" x2="304.75" y1="50.9531" y2="70.9531"/><polygon fill="#A80036" points="300.75,60.9531,304.75,70.9531,308.75,60.9531,304.75,64.9531" style="stroke: #A80036; stroke-width: 1.0;"/><line style="stroke: #A80036; stroke-width: 1.5;" x1="253.5" x2="253.5" y1="341.4536" y2="372.1685"/><polygon fill="#A80036" points="249.5,362.1685,253.5,372.1685,257.5,362.1685,253.5,366.1685" style="stroke: #A80036; stroke-width: 1.0;"/><line style="stroke: #A80036; stroke-width: 1.5;" x1="253.5" x2="253.5" y1="434.0747" y2="454.0747"/><polygon fill="#A80036" points="249.5,444.0747,253.5,454.0747,257.5,444.0747,253.5,448.0747" style="stroke: #A80036; stroke-width: 1.0;"/><line style="stroke: #A80036; stroke-width: 1.5;" x1="292.75" x2="253.5" y1="274.77" y2="274.77"/><line style="stroke: #A80036; stroke-width: 1.5;" x1="253.5" x2="253.5" y1="274.77" y2="307.4849"/><polygon fill="#A80036" points="249.5,297.4849,253.5,307.4849,257.5,297.4849,253.5,301.4849" style="stroke: #A80036; stroke-width: 1.0;"/><line style="stroke: #A80036; stroke-width: 1.5;" x1="316.75" x2="356" y1="274.77" y2="274.77"/><line style="stroke: #A80036; stroke-width: 1.5;" x1="356" x2="356" y1="274.77" y2="296.77"/><polygon fill="#A80036" points="352,286.77,356,296.77,360,286.77,356,290.77" style="stroke: #A80036; stroke-width: 1.0;"/><line style="stroke: #A80036; stroke-width: 1.5;" x1="304.75" x2="304.75" y1="225.2617" y2="262.77"/><polygon fill="#A80036" points="300.75,252.77,304.75,262.77,308.75,252.77,304.75,256.77" style="stroke: #A80036; stroke-width: 1.0;"/></g></svg>