<?xml version="1.0" encoding="UTF-8" standalone="no"?><svg xmlns="http://www.w3.org/2000/svg" xmlns:xlink="http://www.w3.org/1999/xlink" contentScriptType="application/ecmascript" contentStyleType="text/css" height="564px" preserveAspectRatio="none" style="width:384px;height:564px;" version="1.1" viewBox="0 0 384 564" width="384px" zoomAndPan="magnify"><defs><filter height="300%" id="f2s8zyc" width="300%" x="-1" y="-1"><feGaussianBlur result="blurOut" stdDeviation="2.0"/><feColorMatrix in="blurOut" result="blurOut2" type="matrix" values="0 0 0 0 0 0 0 0 0 0 0 0 0 0 0 0 0 0 .4 0"/><feOffset dx="4.0" dy="4.0" in="blurOut2" result="blurOut3"/><feBlend in="SourceGraphic" in2="blurOut3" mode="normal"/></filter></defs><g><text fill="#000000" font-family="sans-serif" font-size="18" lengthAdjust="spacingAndGlyphs" textLength="204" x="94.75" y="26.708">Handle Decoder Result</text><ellipse cx="253.5" cy="40.9531" fill="#000000" filter="url(#f2s8zyc)" rx="10" ry="10" style="stroke: none; stroke-width: 1.0;"/><rect fill="#FEFECE" filter="url(#f2s8zyc)" height="33.9688" rx="12.5" ry="12.5" style="stroke: #A80036; stroke-width: 1.5;" width="176" x="165.5" y="119.3555"/><text fill="#000000" font-family="sans-serif" font-size="12" lengthAdjust="spacingAndGlyphs" textLength="156" x="175.5" y="140.4941">Send response message</text><polygon fill="#FEFECE" filter="url(#f2s8zyc)" points="253.5,70.9531,265.5,82.9531,253.5,94.9531,241.5,82.9531,253.5,70.9531" style="stroke: #A80036; stroke-width: 1.5;"/><text fill="#000000" font-family="sans-serif" font-size="11" lengthAdjust="spacingAndGlyphs" textLength="123" x="259.5" y="105.1636">[result has message]</text><text fill="#000000" font-family="sans-serif" font-size="11" lengthAdjust="spacingAndGlyphs" textLength="32" x="265.5" y="80.3589">[else]</text><polygon fill="#FEFECE" filter="url(#f2s8zyc)" points="253.5,173.3242,265.5,185.3242,253.5,197.3242,241.5,185.3242,253.5,173.3242" style="stroke: #A80036; stroke-width: 1.5;"/><polygon fill="#FBFB77" filter="url(#f2s8zyc)" points="20,272.1289,20,327.5273,171,327.5273,171,282.1289,161,272.1289,20,272.1289" style="stroke: #A80036; stroke-width: 1.0;"/><polygon fill="#FBFB77" points="20,272.1289,20,327.5273,171,327.5273,171,303.8281,191,299.8281,171,295.8281,171,282.1289,161,272.1289,20,272.1289" style="stroke: #A80036; stroke-width: 1.0;"/><line style="stroke: #A80036; stroke-width: 1.0;" x1="161" x2="161" y1="272.1289" y2="282.1289"/><line style="stroke: #A80036; stroke-width: 1.0;" x1="171" x2="161" y1="282.1289" y2="282.1289"/><text fill="#000000" font-family="sans-serif" font-size="13" lengthAdjust="spacingAndGlyphs" textLength="114" x="26" y="289.1958">Includes decoding</text><text fill="#000000" font-family="sans-serif" font-size="13" lengthAdjust="spacingAndGlyphs" textLength="126" x="26" y="304.3286">any remaining body</text><text fill="#000000" font-family="sans-serif" font-size="13" lengthAdjust="spacingAndGlyphs" textLength="29" x="26" y="319.4614">data</text><rect fill="#FEFECE" filter="url(#f2s8zyc)" height="33.9688" rx="12.5" ry="12.5" style="stroke: #A80036; stroke-width: 1.5;" width="125" x="191" y="282.8438"/><text fill="#000000" font-family="sans-serif" font-size="12" lengthAdjust="spacingAndGlyphs" textLength="105" x="201" y="303.9824">Handle message</text><polygon fill="#FEFECE" filter="url(#f2s8zyc)" points="253.5,217.3242,265.5,229.3242,253.5,241.3242,241.5,229.3242,253.5,217.3242" style="stroke: #A80036; stroke-width: 1.5;"/><text fill="#000000" font-family="sans-serif" font-size="11" lengthAdjust="spacingAndGlyphs" textLength="107" x="259.5" y="251.5347">[not response only</text><text fill="#000000" font-family="sans-serif" font-size="11" lengthAdjust="spacingAndGlyphs" textLength="124" x="259.5" y="264.3394">&amp;&amp; header complete]</text><text fill="#000000" font-family="sans-serif" font-size="11" lengthAdjust="spacingAndGlyphs" textLength="32" x="265.5" y="226.73">[else]</text><polygon fill="#FEFECE" filter="url(#f2s8zyc)" points="253.5,347.5273,265.5,359.5273,253.5,371.5273,241.5,359.5273,253.5,347.5273" style="stroke: #A80036; stroke-width: 1.5;"/><rect fill="#FEFECE" filter="url(#f2s8zyc)" height="33.9688" rx="12.5" ry="12.5" style="stroke: #A80036; stroke-width: 1.5;" width="128" x="189.5" y="439.9297"/><text fill="#000000" font-family="sans-serif" font-size="12" lengthAdjust="spacingAndGlyphs" textLength="108" x="199.5" y="461.0684">Close connection</text><polygon fill="#FEFECE" filter="url(#f2s8zyc)" points="253.5,391.5273,265.5,403.5273,253.5,415.5273,241.5,403.5273,253.5,391.5273" style="stroke: #A80036; stroke-width: 1.5;"/><text fill="#000000" font-family="sans-serif" font-size="11" lengthAdjust="spacingAndGlyphs" textLength="103" x="259.5" y="425.7378">[close connection]</text><text fill="#000000" font-family="sans-serif" font-size="11" lengthAdjust="spacingAndGlyphs" textLength="32" x="265.5" y="400.9331">[else]</text><polygon fill="#FEFECE" filter="url(#f2s8zyc)" points="253.5,493.8984,265.5,505.8984,253.5,517.8984,241.5,505.8984,253.5,493.8984" style="stroke: #A80036; stroke-width: 1.5;"/><ellipse cx="253.5" cy="547.8984" fill="#FFFFFF" filter="url(#f2s8zyc)" rx="10" ry="10" style="stroke: #000000; stroke-width: 1.5;"/><line style="stroke: #000000; stroke-width: 2.5;" x1="247.3128" x2="259.6872" y1="541.7113" y2="554.0856"/><line style="stroke: #000000; stroke-width: 2.5;" x1="259.6872" x2="247.3128" y1="541.7113" y2="554.0856"/><line style="stroke: #A80036; stroke-width: 1.5;" x1="253.5" x2="253.5" y1="94.9531" y2="119.3555"/><polygon fill="#A80036" points="249.5,109.3555,253.5,119.3555,257.5,109.3555,253.5,113.3555" style="stroke: #A80036; stroke-width: 1.0;"/><line style="stroke: #A80036; stroke-width: 1.5;" x1="265.5" x2="351.5" y1="82.9531" y2="82.9531"/><polygon fill="#A80036" points="347.5,126.3398,351.5,136.3398,355.5,126.3398,351.5,130.3398" style="stroke: #A80036; stroke-width: 1.5;"/><line style="stroke: #A80036; stroke-width: 1.5;" x1="351.5" x2="351.5" y1="82.9531" y2="185.3242"/><line style="stroke: #A80036; stroke-width: 1.5;" x1="351.5" x2="265.5" y1="185.3242" y2="185.3242"/><polygon fill="#A80036" points="275.5,181.3242,265.5,185.3242,275.5,189.3242,271.5,185.3242" style="stroke: #A80036; stroke-width: 1.0;"/><line style="stroke: #A80036; stroke-width: 1.5;" x1="253.5" x2="253.5" y1="153.3242" y2="173.3242"/><polygon fill="#A80036" points="249.5,163.3242,253.5,173.3242,257.5,163.3242,253.5,167.3242" style="stroke: #A80036; stroke-width: 1.0;"/><line style="stroke: #A80036; stroke-width: 1.5;" x1="253.5" x2="253.5" y1="50.9531" y2="70.9531"/><polygon fill="#A80036" points="249.5,60.9531,253.5,70.9531,257.5,60.9531,253.5,64.9531" style="stroke: #A80036; stroke-width: 1.0;"/><line style="stroke: #A80036; stroke-width: 1.5;" x1="253.5" x2="253.5" y1="241.3242" y2="282.8438"/><polygon fill="#A80036" points="249.5,272.8438,253.5,282.8438,257.5,272.8438,253.5,276.8438" style="stroke: #A80036; stroke-width: 1.0;"/><line style="stroke: #A80036; stroke-width: 1.5;" x1="265.5" x2="326" y1="229.3242" y2="229.3242"/><polygon fill="#A80036" points="322,289.8281,326,299.8281,330,289.8281,326,293.8281" style="stroke: #A80036; stroke-width: 1.5;"/><line style="stroke: #A80036; stroke-width: 1.5;" x1="326" x2="326" y1="229.3242" y2="359.5273"/><line style="stroke: #A80036; stroke-width: 1.5;" x1="326" x2="265.5" y1="359.5273" y2="359.5273"/><polygon fill="#A80036" points="275.5,355.5273,265.5,359.5273,275.5,363.5273,271.5,359.5273" style="stroke: #A80036; stroke-width: 1.0;"/><line style="stroke: #A80036; stroke-width: 1.5;" x1="253.5" x2="253.5" y1="316.8125" y2="347.5273"/><polygon fill="#A80036" points="249.5,337.5273,253.5,347.5273,257.5,337.5273,253.5,341.5273" style="stroke: #A80036; stroke-width: 1.0;"/><line style="stroke: #A80036; stroke-width: 1.5;" x1="253.5" x2="253.5" y1="197.3242" y2="217.3242"/><polygon fill="#A80036" points="249.5,207.3242,253.5,217.3242,257.5,207.3242,253.5,211.3242" style="stroke: #A80036; stroke-width: 1.0;"/><line style="stroke: #A80036; stroke-width: 1.5;" x1="253.5" x2="253.5" y1="415.5273" y2="439.9297"/><polygon fill="#A80036" points="249.5,429.9297,253.5,439.9297,257.5,429.9297,253.5,433.9297" style="stroke: #A80036; stroke-width: 1.0;"/><line style="stroke: #A80036; stroke-width: 1.5;" x1="265.5" x2="327.5" y1="403.5273" y2="403.5273"/><polygon fill="#A80036" points="323.5,446.9141,327.5,456.9141,331.5,446.9141,327.5,450.9141" style="stroke: #A80036; stroke-width: 1.5;"/><line style="stroke: #A80036; stroke-width: 1.5;" x1="327.5" x2="327.5" y1="403.5273" y2="505.8984"/><line style="stroke: #A80036; stroke-width: 1.5;" x1="327.5" x2="265.5" y1="505.8984" y2="505.8984"/><polygon fill="#A80036" points="275.5,501.8984,265.5,505.8984,275.5,509.8984,271.5,505.8984" style="stroke: #A80036; stroke-width: 1.0;"/><line style="stroke: #A80036; stroke-width: 1.5;" x1="253.5" x2="253.5" y1="473.8984" y2="493.8984"/><polygon fill="#A80036" points="249.5,483.8984,253.5,493.8984,257.5,483.8984,253.5,487.8984" style="stroke: #A80036; stroke-width: 1.0;"/><line style="stroke: #A80036; stroke-width: 1.5;" x1="253.5" x2="253.5" y1="371.5273" y2="391.5273"/><polygon fill="#A80036" points="249.5,381.5273,253.5,391.5273,257.5,381.5273,253.5,385.5273" style="stroke: #A80036; stroke-width: 1.0;"/><line style="stroke: #A80036; stroke-width: 1.5;" x1="253.5" x2="253.5" y1="517.8984" y2="537.8984"/><polygon fill="#A80036" points="249.5,527.8984,253.5,537.8984,257.5,527.8984,253.5,531.8984" style="stroke: #A80036; stroke-width: 1.0;"/></g></svg>