<?xml version="1.0" encoding="UTF-8" standalone="no"?><svg xmlns="http://www.w3.org/2000/svg" xmlns:xlink="http://www.w3.org/1999/xlink" contentScriptType="application/ecmascript" contentStyleType="text/css" height="629px" preserveAspectRatio="none" style="width:422px;height:629px;" version="1.1" viewBox="0 0 422 629" width="422px" zoomAndPan="magnify"><defs><filter height="300%" id="foj32zb" width="300%" x="-1" y="-1"><feGaussianBlur result="blurOut" stdDeviation="2.0"/><feColorMatrix in="blurOut" result="blurOut2" type="matrix" values="0 0 0 0 0 0 0 0 0 0 0 0 0 0 0 0 0 0 .4 0"/><feOffset dx="4.0" dy="4.0" in="blurOut2" result="blurOut3"/><feBlend in="SourceGraphic" in2="blurOut3" mode="normal"/></filter></defs><g><text fill="#000000" font-family="sans-serif" font-size="18" lengthAdjust="spacingAndGlyphs" textLength="204" x="113.875" y="26.708">Handle Decoder Result</text><ellipse cx="292.75" cy="40.9531" fill="#000000" filter="url(#foj32zb)" rx="10" ry="10" style="stroke: none; stroke-width: 1.0;"/><rect fill="#FEFECE" filter="url(#foj32zb)" height="61.9063" rx="12.5" ry="12.5" style="stroke: #A80036; stroke-width: 1.5;" width="150" x="217.75" y="119.3555"/><text fill="#000000" font-family="sans-serif" font-size="12" lengthAdjust="spacingAndGlyphs" textLength="120" x="227.75" y="140.4941">Send protocol level</text><text fill="#000000" font-family="sans-serif" font-size="12" lengthAdjust="spacingAndGlyphs" textLength="126" x="227.75" y="154.4629">response contained</text><text fill="#000000" font-family="sans-serif" font-size="12" lengthAdjust="spacingAndGlyphs" textLength="51" x="227.75" y="168.4316">in result</text><polygon fill="#FEFECE" filter="url(#foj32zb)" points="292.75,70.9531,304.75,82.9531,292.75,94.9531,280.75,82.9531,292.75,70.9531" style="stroke: #A80036; stroke-width: 1.5;"/><text fill="#000000" font-family="sans-serif" font-size="11" lengthAdjust="spacingAndGlyphs" textLength="123" x="298.75" y="105.1636">[result has message]</text><text fill="#000000" font-family="sans-serif" font-size="11" lengthAdjust="spacingAndGlyphs" textLength="32" x="304.75" y="80.3589">[else]</text><polygon fill="#FEFECE" filter="url(#foj32zb)" points="292.75,201.2617,304.75,213.2617,292.75,225.2617,280.75,213.2617,292.75,201.2617" style="stroke: #A80036; stroke-width: 1.5;"/><rect fill="#FEFECE" filter="url(#foj32zb)" height="33.9688" rx="12.5" ry="12.5" style="stroke: #A80036; stroke-width: 1.5;" width="128" x="228.75" y="293.6641"/><text fill="#000000" font-family="sans-serif" font-size="12" lengthAdjust="spacingAndGlyphs" textLength="108" x="238.75" y="314.8027">Close connection</text><polygon fill="#FEFECE" filter="url(#foj32zb)" points="292.75,245.2617,304.75,257.2617,292.75,269.2617,280.75,257.2617,292.75,245.2617" style="stroke: #A80036; stroke-width: 1.5;"/><text fill="#000000" font-family="sans-serif" font-size="11" lengthAdjust="spacingAndGlyphs" textLength="103" x="298.75" y="279.4722">[close connection]</text><text fill="#000000" font-family="sans-serif" font-size="11" lengthAdjust="spacingAndGlyphs" textLength="32" x="304.75" y="254.6675">[else]</text><polygon fill="#FEFECE" filter="url(#foj32zb)" points="292.75,347.6328,304.75,359.6328,292.75,371.6328,280.75,359.6328,292.75,347.6328" style="stroke: #A80036; stroke-width: 1.5;"/><polygon fill="#FEFECE" filter="url(#foj32zb)" points="292.75,396.3364,304.75,408.3364,292.75,420.3364,280.75,408.3364,292.75,396.3364" style="stroke: #A80036; stroke-width: 1.5;"/><text fill="#000000" font-family="sans-serif" font-size="11" lengthAdjust="spacingAndGlyphs" textLength="88" x="156.75" y="392.9375">[!response only</text><text fill="#000000" font-family="sans-serif" font-size="11" lengthAdjust="spacingAndGlyphs" textLength="124" x="156.75" y="405.7422">&amp;&amp; header complete]</text><text fill="#000000" font-family="sans-serif" font-size="11" lengthAdjust="spacingAndGlyphs" textLength="32" x="304.75" y="405.7422">[else]</text><polygon fill="#FBFB77" filter="url(#foj32zb)" points="20,430.3364,20,500.8677,159,500.8677,159,440.3364,149,430.3364,20,430.3364" style="stroke: #A80036; stroke-width: 1.0;"/><polygon fill="#FBFB77" points="20,430.3364,20,500.8677,159,500.8677,159,469.6021,179,465.6021,159,461.6021,159,440.3364,149,430.3364,20,430.3364" style="stroke: #A80036; stroke-width: 1.0;"/><line style="stroke: #A80036; stroke-width: 1.0;" x1="149" x2="149" y1="430.3364" y2="440.3364"/><line style="stroke: #A80036; stroke-width: 1.0;" x1="159" x2="149" y1="440.3364" y2="440.3364"/><text fill="#000000" font-family="sans-serif" font-size="13" lengthAdjust="spacingAndGlyphs" textLength="114" x="26" y="447.4033">Includes decoding</text><text fill="#000000" font-family="sans-serif" font-size="13" lengthAdjust="spacingAndGlyphs" textLength="91" x="26" y="462.5361">any body data</text><text fill="#000000" font-family="sans-serif" font-size="13" lengthAdjust="spacingAndGlyphs" textLength="79" x="26" y="477.6689">remaining in</text><text fill="#000000" font-family="sans-serif" font-size="13" lengthAdjust="spacingAndGlyphs" textLength="96" x="26" y="492.8018">received chunk</text><rect fill="#FEFECE" filter="url(#foj32zb)" height="33.9688" rx="12.5" ry="12.5" style="stroke: #A80036; stroke-width: 1.5;" width="125" x="179" y="448.6177"/><text fill="#000000" font-family="sans-serif" font-size="12" lengthAdjust="spacingAndGlyphs" textLength="105" x="189" y="469.7563">Handle message</text><rect fill="#FEFECE" filter="url(#foj32zb)" height="61.9063" rx="12.5" ry="12.5" style="stroke: #A80036; stroke-width: 1.5;" width="135" x="174" y="520.8677"/><text fill="#000000" font-family="sans-serif" font-size="12" lengthAdjust="spacingAndGlyphs" textLength="95" x="184" y="542.0063">Send response</text><text fill="#000000" font-family="sans-serif" font-size="12" lengthAdjust="spacingAndGlyphs" textLength="84" x="184" y="555.9751">created while</text><text fill="#000000" font-family="sans-serif" font-size="12" lengthAdjust="spacingAndGlyphs" textLength="115" x="184" y="569.9438">handling message</text><ellipse cx="241.5" cy="612.7739" fill="#FFFFFF" filter="url(#foj32zb)" rx="10" ry="10" style="stroke: #000000; stroke-width: 1.5;"/><line style="stroke: #000000; stroke-width: 2.5;" x1="235.3128" x2="247.6872" y1="606.5867" y2="618.9611"/><line style="stroke: #000000; stroke-width: 2.5;" x1="247.6872" x2="235.3128" y1="606.5867" y2="618.9611"/><ellipse cx="344" cy="440.3364" fill="#FFFFFF" filter="url(#foj32zb)" rx="10" ry="10" style="stroke: #000000; stroke-width: 1.5;"/><line style="stroke: #000000; stroke-width: 2.5;" x1="337.8128" x2="350.1872" y1="434.1492" y2="446.5236"/><line style="stroke: #000000; stroke-width: 2.5;" x1="350.1872" x2="337.8128" y1="434.1492" y2="446.5236"/><line style="stroke: #A80036; stroke-width: 1.5;" x1="292.75" x2="292.75" y1="94.9531" y2="119.3555"/><polygon fill="#A80036" points="288.75,109.3555,292.75,119.3555,296.75,109.3555,292.75,113.3555" style="stroke: #A80036; stroke-width: 1.0;"/><line style="stroke: #A80036; stroke-width: 1.5;" x1="304.75" x2="377.75" y1="82.9531" y2="82.9531"/><polygon fill="#A80036" points="373.75,140.3086,377.75,150.3086,381.75,140.3086,377.75,144.3086" style="stroke: #A80036; stroke-width: 1.5;"/><line style="stroke: #A80036; stroke-width: 1.5;" x1="377.75" x2="377.75" y1="82.9531" y2="213.2617"/><line style="stroke: #A80036; stroke-width: 1.5;" x1="377.75" x2="304.75" y1="213.2617" y2="213.2617"/><polygon fill="#A80036" points="314.75,209.2617,304.75,213.2617,314.75,217.2617,310.75,213.2617" style="stroke: #A80036; stroke-width: 1.0;"/><line style="stroke: #A80036; stroke-width: 1.5;" x1="292.75" x2="292.75" y1="181.2617" y2="201.2617"/><polygon fill="#A80036" points="288.75,191.2617,292.75,201.2617,296.75,191.2617,292.75,195.2617" style="stroke: #A80036; stroke-width: 1.0;"/><line style="stroke: #A80036; stroke-width: 1.5;" x1="292.75" x2="292.75" y1="50.9531" y2="70.9531"/><polygon fill="#A80036" points="288.75,60.9531,292.75,70.9531,296.75,60.9531,292.75,64.9531" style="stroke: #A80036; stroke-width: 1.0;"/><line style="stroke: #A80036; stroke-width: 1.5;" x1="292.75" x2="292.75" y1="269.2617" y2="293.6641"/><polygon fill="#A80036" points="288.75,283.6641,292.75,293.6641,296.75,283.6641,292.75,287.6641" style="stroke: #A80036; stroke-width: 1.0;"/><line style="stroke: #A80036; stroke-width: 1.5;" x1="304.75" x2="366.75" y1="257.2617" y2="257.2617"/><polygon fill="#A80036" points="362.75,300.6484,366.75,310.6484,370.75,300.6484,366.75,304.6484" style="stroke: #A80036; stroke-width: 1.5;"/><line style="stroke: #A80036; stroke-width: 1.5;" x1="366.75" x2="366.75" y1="257.2617" y2="359.6328"/><line style="stroke: #A80036; stroke-width: 1.5;" x1="366.75" x2="304.75" y1="359.6328" y2="359.6328"/><polygon fill="#A80036" points="314.75,355.6328,304.75,359.6328,314.75,363.6328,310.75,359.6328" style="stroke: #A80036; stroke-width: 1.0;"/><line style="stroke: #A80036; stroke-width: 1.5;" x1="292.75" x2="292.75" y1="327.6328" y2="347.6328"/><polygon fill="#A80036" points="288.75,337.6328,292.75,347.6328,296.75,337.6328,292.75,341.6328" style="stroke: #A80036; stroke-width: 1.0;"/><line style="stroke: #A80036; stroke-width: 1.5;" x1="292.75" x2="292.75" y1="225.2617" y2="245.2617"/><polygon fill="#A80036" points="288.75,235.2617,292.75,245.2617,296.75,235.2617,292.75,239.2617" style="stroke: #A80036; stroke-width: 1.0;"/><line style="stroke: #A80036; stroke-width: 1.5;" x1="241.5" x2="241.5" y1="482.5864" y2="520.8677"/><polygon fill="#A80036" points="237.5,510.8677,241.5,520.8677,245.5,510.8677,241.5,514.8677" style="stroke: #A80036; stroke-width: 1.0;"/><line style="stroke: #A80036; stroke-width: 1.5;" x1="241.5" x2="241.5" y1="582.7739" y2="602.7739"/><polygon fill="#A80036" points="237.5,592.7739,241.5,602.7739,245.5,592.7739,241.5,596.7739" style="stroke: #A80036; stroke-width: 1.0;"/><line style="stroke: #A80036; stroke-width: 1.5;" x1="280.75" x2="241.5" y1="408.3364" y2="408.3364"/><line style="stroke: #A80036; stroke-width: 1.5;" x1="241.5" x2="241.5" y1="408.3364" y2="448.6177"/><polygon fill="#A80036" points="237.5,438.6177,241.5,448.6177,245.5,438.6177,241.5,442.6177" style="stroke: #A80036; stroke-width: 1.0;"/><line style="stroke: #A80036; stroke-width: 1.5;" x1="304.75" x2="344" y1="408.3364" y2="408.3364"/><line style="stroke: #A80036; stroke-width: 1.5;" x1="344" x2="344" y1="408.3364" y2="430.3364"/><polygon fill="#A80036" points="340,420.3364,344,430.3364,348,420.3364,344,424.3364" style="stroke: #A80036; stroke-width: 1.0;"/><line style="stroke: #A80036; stroke-width: 1.5;" x1="292.75" x2="292.75" y1="371.6328" y2="396.3364"/><polygon fill="#A80036" points="288.75,386.3364,292.75,396.3364,296.75,386.3364,292.75,390.3364" style="stroke: #A80036; stroke-width: 1.0;"/></g></svg>