<?xml version="1.0" encoding="UTF-8" standalone="no"?><svg xmlns="http://www.w3.org/2000/svg" xmlns:xlink="http://www.w3.org/1999/xlink" contentScriptType="application/ecmascript" contentStyleType="text/css" height="481px" preserveAspectRatio="none" style="width:430px;height:481px;" version="1.1" viewBox="0 0 430 481" width="430px" zoomAndPan="magnify"><defs><filter height="300%" id="fma3dfi" width="300%" x="-1" y="-1"><feGaussianBlur result="blurOut" stdDeviation="2.0"/><feColorMatrix in="blurOut" result="blurOut2" type="matrix" values="0 0 0 0 0 0 0 0 0 0 0 0 0 0 0 0 0 0 .4 0"/><feOffset dx="4.0" dy="4.0" in="blurOut2" result="blurOut3"/><feBlend in="SourceGraphic" in2="blurOut3" mode="normal"/></filter></defs><g><text fill="#000000" font-family="sans-serif" font-size="18" lengthAdjust="spacingAndGlyphs" textLength="206" x="116.75" y="26.708">Handle Decoder Result</text><ellipse cx="304.5" cy="40.9531" fill="#000000" filter="url(#fma3dfi)" rx="10" ry="10" style="stroke: none; stroke-width: 1.0;"/><rect fill="#FEFECE" filter="url(#fma3dfi)" height="61.9063" rx="12.5" ry="12.5" style="stroke: #A80036; stroke-width: 1.5;" width="109" x="250" y="119.3555"/><text fill="#000000" font-family="sans-serif" font-size="12" lengthAdjust="spacingAndGlyphs" textLength="89" x="260" y="140.4941">Send response</text><text fill="#000000" font-family="sans-serif" font-size="12" lengthAdjust="spacingAndGlyphs" textLength="75" x="260" y="154.4629">contained in</text><text fill="#000000" font-family="sans-serif" font-size="12" lengthAdjust="spacingAndGlyphs" textLength="34" x="260" y="168.4316">result</text><polygon fill="#FEFECE" filter="url(#fma3dfi)" points="304.5,70.9531,316.5,82.9531,304.5,94.9531,292.5,82.9531,304.5,70.9531" style="stroke: #A80036; stroke-width: 1.5;"/><text fill="#000000" font-family="sans-serif" font-size="11" lengthAdjust="spacingAndGlyphs" textLength="119" x="310.5" y="105.1636">[result has message]</text><text fill="#000000" font-family="sans-serif" font-size="11" lengthAdjust="spacingAndGlyphs" textLength="31" x="316.5" y="80.3589">[else]</text><polygon fill="#FEFECE" filter="url(#fma3dfi)" points="304.5,201.2617,316.5,213.2617,304.5,225.2617,292.5,213.2617,304.5,201.2617" style="stroke: #A80036; stroke-width: 1.5;"/><polygon fill="#FEFECE" filter="url(#fma3dfi)" points="304.5,262.77,316.5,274.77,304.5,286.77,292.5,274.77,304.5,262.77" style="stroke: #A80036; stroke-width: 1.5;"/><text fill="#000000" font-family="sans-serif" font-size="11" lengthAdjust="spacingAndGlyphs" textLength="88" x="165.5" y="246.5664">[!response only</text><text fill="#000000" font-family="sans-serif" font-size="11" lengthAdjust="spacingAndGlyphs" textLength="127" x="165.5" y="259.3711">&amp;&amp; !connection closed</text><text fill="#000000" font-family="sans-serif" font-size="11" lengthAdjust="spacingAndGlyphs" textLength="122" x="165.5" y="272.1758">&amp;&amp; header complete]</text><text fill="#000000" font-family="sans-serif" font-size="11" lengthAdjust="spacingAndGlyphs" textLength="31" x="316.5" y="272.1758">[else]</text><polygon fill="#FBFB77" filter="url(#fma3dfi)" points="20,296.77,20,352.1685,175,352.1685,175,306.77,165,296.77,20,296.77" style="stroke: #A80036; stroke-width: 1.0;"/><polygon fill="#FBFB77" points="20,296.77,20,352.1685,175,352.1685,175,328.4692,195,324.4692,175,320.4692,175,306.77,165,296.77,20,296.77" style="stroke: #A80036; stroke-width: 1.0;"/><line style="stroke: #A80036; stroke-width: 1.0;" x1="165" x2="165" y1="296.77" y2="306.77"/><line style="stroke: #A80036; stroke-width: 1.0;" x1="175" x2="165" y1="306.77" y2="306.77"/><text fill="#000000" font-family="sans-serif" font-size="13" lengthAdjust="spacingAndGlyphs" textLength="117" x="26" y="313.8369">Includes decoding</text><text fill="#000000" font-family="sans-serif" font-size="13" lengthAdjust="spacingAndGlyphs" textLength="130" x="26" y="328.9697">any remaining body</text><text fill="#000000" font-family="sans-serif" font-size="13" lengthAdjust="spacingAndGlyphs" textLength="29" x="26" y="344.1025">data</text><rect fill="#FEFECE" filter="url(#fma3dfi)" height="33.9688" rx="12.5" ry="12.5" style="stroke: #A80036; stroke-width: 1.5;" width="119" x="195" y="307.4849"/><text fill="#000000" font-family="sans-serif" font-size="12" lengthAdjust="spacingAndGlyphs" textLength="99" x="205" y="328.6235">Handle message</text><rect fill="#FEFECE" filter="url(#fma3dfi)" height="61.9063" rx="12.5" ry="12.5" style="stroke: #A80036; stroke-width: 1.5;" width="130" x="189.5" y="372.1685"/><text fill="#000000" font-family="sans-serif" font-size="12" lengthAdjust="spacingAndGlyphs" textLength="89" x="199.5" y="393.3071">Send response</text><text fill="#000000" font-family="sans-serif" font-size="12" lengthAdjust="spacingAndGlyphs" textLength="81" x="199.5" y="407.2759">created while</text><text fill="#000000" font-family="sans-serif" font-size="12" lengthAdjust="spacingAndGlyphs" textLength="110" x="199.5" y="421.2446">handling message</text><ellipse cx="254.5" cy="464.0747" fill="#FFFFFF" filter="url(#fma3dfi)" rx="10" ry="10" style="stroke: #000000; stroke-width: 1.5;"/><line style="stroke: #000000; stroke-width: 2.5;" x1="248.3128" x2="260.6872" y1="457.8875" y2="470.2619"/><line style="stroke: #000000; stroke-width: 2.5;" x1="260.6872" x2="248.3128" y1="457.8875" y2="470.2619"/><ellipse cx="354.5" cy="306.77" fill="#FFFFFF" filter="url(#fma3dfi)" rx="10" ry="10" style="stroke: #000000; stroke-width: 1.5;"/><line style="stroke: #000000; stroke-width: 2.5;" x1="348.3128" x2="360.6872" y1="300.5828" y2="312.9572"/><line style="stroke: #000000; stroke-width: 2.5;" x1="360.6872" x2="348.3128" y1="300.5828" y2="312.9572"/><line style="stroke: #A80036; stroke-width: 1.5;" x1="304.5" x2="304.5" y1="94.9531" y2="119.3555"/><polygon fill="#A80036" points="300.5,109.3555,304.5,119.3555,308.5,109.3555,304.5,113.3555" style="stroke: #A80036; stroke-width: 1.0;"/><line style="stroke: #A80036; stroke-width: 1.5;" x1="316.5" x2="369" y1="82.9531" y2="82.9531"/><polygon fill="#A80036" points="365,140.3086,369,150.3086,373,140.3086,369,144.3086" style="stroke: #A80036; stroke-width: 1.5;"/><line style="stroke: #A80036; stroke-width: 1.5;" x1="369" x2="369" y1="82.9531" y2="213.2617"/><line style="stroke: #A80036; stroke-width: 1.5;" x1="369" x2="316.5" y1="213.2617" y2="213.2617"/><polygon fill="#A80036" points="326.5,209.2617,316.5,213.2617,326.5,217.2617,322.5,213.2617" style="stroke: #A80036; stroke-width: 1.0;"/><line style="stroke: #A80036; stroke-width: 1.5;" x1="304.5" x2="304.5" y1="181.2617" y2="201.2617"/><polygon fill="#A80036" points="300.5,191.2617,304.5,201.2617,308.5,191.2617,304.5,195.2617" style="stroke: #A80036; stroke-width: 1.0;"/><line style="stroke: #A80036; stroke-width: 1.5;" x1="304.5" x2="304.5" y1="50.9531" y2="70.9531"/><polygon fill="#A80036" points="300.5,60.9531,304.5,70.9531,308.5,60.9531,304.5,64.9531" style="stroke: #A80036; stroke-width: 1.0;"/><line style="stroke: #A80036; stroke-width: 1.5;" x1="254.5" x2="254.5" y1="341.4536" y2="372.1685"/><polygon fill="#A80036" points="250.5,362.1685,254.5,372.1685,258.5,362.1685,254.5,366.1685" style="stroke: #A80036; stroke-width: 1.0;"/><line style="stroke: #A80036; stroke-width: 1.5;" x1="254.5" x2="254.5" y1="434.0747" y2="454.0747"/><polygon fill="#A80036" points="250.5,444.0747,254.5,454.0747,258.5,444.0747,254.5,448.0747" style="stroke: #A80036; stroke-width: 1.0;"/><line style="stroke: #A80036; stroke-width: 1.5;" x1="292.5" x2="254.5" y1="274.77" y2="274.77"/><line style="stroke: #A80036; stroke-width: 1.5;" x1="254.5" x2="254.5" y1="274.77" y2="307.4849"/><polygon fill="#A80036" points="250.5,297.4849,254.5,307.4849,258.5,297.4849,254.5,301.4849" style="stroke: #A80036; stroke-width: 1.0;"/><line style="stroke: #A80036; stroke-width: 1.5;" x1="316.5" x2="354.5" y1="274.77" y2="274.77"/><line style="stroke: #A80036; stroke-width: 1.5;" x1="354.5" x2="354.5" y1="274.77" y2="296.77"/><polygon fill="#A80036" points="350.5,286.77,354.5,296.77,358.5,286.77,354.5,290.77" style="stroke: #A80036; stroke-width: 1.0;"/><line style="stroke: #A80036; stroke-width: 1.5;" x1="304.5" x2="304.5" y1="225.2617" y2="262.77"/><polygon fill="#A80036" points="300.5,252.77,304.5,262.77,308.5,252.77,304.5,256.77" style="stroke: #A80036; stroke-width: 1.0;"/></g></svg>