<?xml version="1.0" encoding="UTF-8" standalone="yes"?><svg xmlns="http://www.w3.org/2000/svg" xmlns:xlink="http://www.w3.org/1999/xlink" height="477px" style="width:358px;height:477px;" version="1.1" viewBox="0 0 358 477" width="358px"><defs><filter height="300%" id="f1" width="300%" x="-1" y="-1"><feGaussianBlur result="blurOut" stdDeviation="2.0"/><feColorMatrix in="blurOut" result="blurOut2" type="matrix" values="0 0 0 0 0 0 0 0 0 0 0 0 0 0 0 0 0 0 .4 0"/><feOffset dx="4.0" dy="4.0" in="blurOut2" result="blurOut3"/><feBlend in="SourceGraphic" in2="blurOut3" mode="normal"/></filter></defs><g><text fill="#000000" font-family="sans-serif" font-size="18" lengthAdjust="spacingAndGlyphs" textLength="204" x="81.875" y="26.708">Handle Decoder Result</text><ellipse cx="292.25" cy="40.9531" fill="#000000" filter="url(#f1)" rx="10" ry="10" style="stroke: none; stroke-width: 1.0;"/><polygon fill="#FEFECE" filter="url(#f1)" points="292.25,70.9531,304.25,82.9531,292.25,94.9531,280.25,82.9531,292.25,70.9531" style="stroke: #A80036; stroke-width: 1.5;"/><text fill="#000000" font-family="sans-serif" font-size="11" lengthAdjust="spacingAndGlyphs" textLength="123" x="157.25" y="80.3589">[result has message]</text><text fill="#000000" font-family="sans-serif" font-size="11" lengthAdjust="spacingAndGlyphs" textLength="32" x="304.25" y="80.3589">[else]</text><rect fill="#FEFECE" filter="url(#f1)" height="33.9688" rx="12.5" ry="12.5" style="stroke: #A80036; stroke-width: 1.5;" width="176" x="142.75" y="104.9531"/><text fill="#000000" font-family="sans-serif" font-size="12" lengthAdjust="spacingAndGlyphs" textLength="156" x="152.75" y="126.0918">Send response message</text><polygon fill="#FEFECE" filter="url(#f1)" points="292.25,144.9219,304.25,156.9219,292.25,168.9219,280.25,156.9219,292.25,144.9219" style="stroke: #A80036; stroke-width: 1.5;"/><polygon fill="#FEFECE" filter="url(#f1)" points="292.25,193.6255,304.25,205.6255,292.25,217.6255,280.25,205.6255,292.25,193.6255" style="stroke: #A80036; stroke-width: 1.5;"/><text fill="#000000" font-family="sans-serif" font-size="11" lengthAdjust="spacingAndGlyphs" textLength="107" x="156.25" y="190.2266">[not response only</text><text fill="#000000" font-family="sans-serif" font-size="11" lengthAdjust="spacingAndGlyphs" textLength="124" x="156.25" y="203.0313">&amp;&amp; header complete]</text><text fill="#000000" font-family="sans-serif" font-size="11" lengthAdjust="spacingAndGlyphs" textLength="32" x="304.25" y="203.0313">[else]</text><polygon fill="#FBFB77" filter="url(#f1)" points="10,227.6255,10,283.0239,161,283.0239,161,237.6255,151,227.6255,10,227.6255" style="stroke: #A80036; stroke-width: 1.0;"/><polygon fill="#FBFB77" points="10,227.6255,10,283.0239,161,283.0239,161,259.3247,181,255.3247,161,251.3247,161,237.6255,151,227.6255,10,227.6255" style="stroke: #A80036; stroke-width: 1.0;"/><line style="stroke: #A80036; stroke-width: 1.0;" x1="151" x2="151" y1="227.6255" y2="237.6255"/><line style="stroke: #A80036; stroke-width: 1.0;" x1="161" x2="151" y1="237.6255" y2="237.6255"/><text fill="#000000" font-family="sans-serif" font-size="13" lengthAdjust="spacingAndGlyphs" textLength="114" x="16" y="244.6924">Includes decoding</text><text fill="#000000" font-family="sans-serif" font-size="13" lengthAdjust="spacingAndGlyphs" textLength="126" x="16" y="259.8252">any remaining body</text><text fill="#000000" font-family="sans-serif" font-size="13" lengthAdjust="spacingAndGlyphs" textLength="29" x="16" y="274.958">data</text><rect fill="#FEFECE" filter="url(#f1)" height="33.9688" rx="12.5" ry="12.5" style="stroke: #A80036; stroke-width: 1.5;" width="125" x="181" y="238.3403"/><text fill="#000000" font-family="sans-serif" font-size="12" lengthAdjust="spacingAndGlyphs" textLength="105" x="191" y="259.479">Handle message</text><polygon fill="#FEFECE" filter="url(#f1)" points="292.25,289.0239,304.25,301.0239,292.25,313.0239,280.25,301.0239,292.25,289.0239" style="stroke: #A80036; stroke-width: 1.5;"/><polygon fill="#FEFECE" filter="url(#f1)" points="292.25,333.0239,304.25,345.0239,292.25,357.0239,280.25,345.0239,292.25,333.0239" style="stroke: #A80036; stroke-width: 1.5;"/><text fill="#000000" font-family="sans-serif" font-size="11" lengthAdjust="spacingAndGlyphs" textLength="103" x="177.25" y="342.4297">[close connection]</text><text fill="#000000" font-family="sans-serif" font-size="11" lengthAdjust="spacingAndGlyphs" textLength="32" x="304.25" y="342.4297">[else]</text><rect fill="#FEFECE" filter="url(#f1)" height="33.9688" rx="12.5" ry="12.5" style="stroke: #A80036; stroke-width: 1.5;" width="128" x="178.75" y="367.0239"/><text fill="#000000" font-family="sans-serif" font-size="12" lengthAdjust="spacingAndGlyphs" textLength="108" x="188.75" y="388.1626">Close connection</text><polygon fill="#FEFECE" filter="url(#f1)" points="292.25,406.9927,304.25,418.9927,292.25,430.9927,280.25,418.9927,292.25,406.9927" style="stroke: #A80036; stroke-width: 1.5;"/><ellipse cx="292.25" cy="460.9927" fill="#FFFFFF" filter="url(#f1)" rx="10" ry="10" style="stroke: #000000; stroke-width: 1.5;"/><line style="stroke: #000000; stroke-width: 2.5;" x1="286.0628" x2="298.4372" y1="454.8055" y2="467.1799"/><line style="stroke: #000000; stroke-width: 2.5;" x1="298.4372" x2="286.0628" y1="454.8055" y2="467.1799"/><line style="stroke: #A80036; stroke-width: 1.5;" x1="280.25" x2="230.75" y1="82.9531" y2="82.9531"/><line style="stroke: #A80036; stroke-width: 1.5;" x1="230.75" x2="230.75" y1="82.9531" y2="104.9531"/><polygon fill="#A80036" points="226.75,94.9531,230.75,104.9531,234.75,94.9531,230.75,98.9531" style="stroke: #A80036; stroke-width: 1.0;"/><line style="stroke: #A80036; stroke-width: 1.5;" x1="304.25" x2="353.75" y1="82.9531" y2="82.9531"/><polygon fill="#A80036" points="349.75,109.9375,353.75,119.9375,357.75,109.9375,353.75,113.9375" style="stroke: #A80036; stroke-width: 1.5;"/><line style="stroke: #A80036; stroke-width: 1.5;" x1="353.75" x2="353.75" y1="82.9531" y2="156.9219"/><line style="stroke: #A80036; stroke-width: 1.5;" x1="353.75" x2="304.25" y1="156.9219" y2="156.9219"/><polygon fill="#A80036" points="314.25,152.9219,304.25,156.9219,314.25,160.9219,310.25,156.9219" style="stroke: #A80036; stroke-width: 1.0;"/><line style="stroke: #A80036; stroke-width: 1.5;" x1="230.75" x2="230.75" y1="138.9219" y2="156.9219"/><line style="stroke: #A80036; stroke-width: 1.5;" x1="230.75" x2="280.25" y1="156.9219" y2="156.9219"/><polygon fill="#A80036" points="270.25,152.9219,280.25,156.9219,270.25,160.9219,274.25,156.9219" style="stroke: #A80036; stroke-width: 1.0;"/><line style="stroke: #A80036; stroke-width: 1.5;" x1="292.25" x2="292.25" y1="50.9531" y2="70.9531"/><polygon fill="#A80036" points="288.25,60.9531,292.25,70.9531,296.25,60.9531,292.25,64.9531" style="stroke: #A80036; stroke-width: 1.0;"/><line style="stroke: #A80036; stroke-width: 1.5;" x1="280.25" x2="243.5" y1="205.6255" y2="205.6255"/><line style="stroke: #A80036; stroke-width: 1.5;" x1="243.5" x2="243.5" y1="205.6255" y2="238.3403"/><polygon fill="#A80036" points="239.5,228.3403,243.5,238.3403,247.5,228.3403,243.5,232.3403" style="stroke: #A80036; stroke-width: 1.0;"/><line style="stroke: #A80036; stroke-width: 1.5;" x1="304.25" x2="341" y1="205.6255" y2="205.6255"/><polygon fill="#A80036" points="337,243.3247,341,253.3247,345,243.3247,341,247.3247" style="stroke: #A80036; stroke-width: 1.5;"/><line style="stroke: #A80036; stroke-width: 1.5;" x1="341" x2="341" y1="205.6255" y2="301.0239"/><line style="stroke: #A80036; stroke-width: 1.5;" x1="341" x2="304.25" y1="301.0239" y2="301.0239"/><polygon fill="#A80036" points="314.25,297.0239,304.25,301.0239,314.25,305.0239,310.25,301.0239" style="stroke: #A80036; stroke-width: 1.0;"/><line style="stroke: #A80036; stroke-width: 1.5;" x1="243.5" x2="243.5" y1="272.3091" y2="301.0239"/><line style="stroke: #A80036; stroke-width: 1.5;" x1="243.5" x2="280.25" y1="301.0239" y2="301.0239"/><polygon fill="#A80036" points="270.25,297.0239,280.25,301.0239,270.25,305.0239,274.25,301.0239" style="stroke: #A80036; stroke-width: 1.0;"/><line style="stroke: #A80036; stroke-width: 1.5;" x1="292.25" x2="292.25" y1="168.9219" y2="193.6255"/><polygon fill="#A80036" points="288.25,183.6255,292.25,193.6255,296.25,183.6255,292.25,187.6255" style="stroke: #A80036; stroke-width: 1.0;"/><line style="stroke: #A80036; stroke-width: 1.5;" x1="280.25" x2="242.75" y1="345.0239" y2="345.0239"/><line style="stroke: #A80036; stroke-width: 1.5;" x1="242.75" x2="242.75" y1="345.0239" y2="367.0239"/><polygon fill="#A80036" points="238.75,357.0239,242.75,367.0239,246.75,357.0239,242.75,361.0239" style="stroke: #A80036; stroke-width: 1.0;"/><line style="stroke: #A80036; stroke-width: 1.5;" x1="304.25" x2="341.75" y1="345.0239" y2="345.0239"/><polygon fill="#A80036" points="337.75,372.0083,341.75,382.0083,345.75,372.0083,341.75,376.0083" style="stroke: #A80036; stroke-width: 1.5;"/><line style="stroke: #A80036; stroke-width: 1.5;" x1="341.75" x2="341.75" y1="345.0239" y2="418.9927"/><line style="stroke: #A80036; stroke-width: 1.5;" x1="341.75" x2="304.25" y1="418.9927" y2="418.9927"/><polygon fill="#A80036" points="314.25,414.9927,304.25,418.9927,314.25,422.9927,310.25,418.9927" style="stroke: #A80036; stroke-width: 1.0;"/><line style="stroke: #A80036; stroke-width: 1.5;" x1="242.75" x2="242.75" y1="400.9927" y2="418.9927"/><line style="stroke: #A80036; stroke-width: 1.5;" x1="242.75" x2="280.25" y1="418.9927" y2="418.9927"/><polygon fill="#A80036" points="270.25,414.9927,280.25,418.9927,270.25,422.9927,274.25,418.9927" style="stroke: #A80036; stroke-width: 1.0;"/><line style="stroke: #A80036; stroke-width: 1.5;" x1="292.25" x2="292.25" y1="313.0239" y2="333.0239"/><polygon fill="#A80036" points="288.25,323.0239,292.25,333.0239,296.25,323.0239,292.25,327.0239" style="stroke: #A80036; stroke-width: 1.0;"/><line style="stroke: #A80036; stroke-width: 1.5;" x1="292.25" x2="292.25" y1="430.9927" y2="450.9927"/><polygon fill="#A80036" points="288.25,440.9927,292.25,450.9927,296.25,440.9927,292.25,444.9927" style="stroke: #A80036; stroke-width: 1.0;"/></g></svg>