<?xml version="1.0" encoding="UTF-8" standalone="no"?><svg xmlns="http://www.w3.org/2000/svg" xmlns:xlink="http://www.w3.org/1999/xlink" contentScriptType="application/ecmascript" contentStyleType="text/css" height="357px" preserveAspectRatio="none" style="width:438px;height:357px;" version="1.1" viewBox="0 0 438 357" width="438px" zoomAndPan="magnify"><defs><filter height="300%" id="fco0m5v" width="300%" x="-1" y="-1"><feGaussianBlur result="blurOut" stdDeviation="2.0"/><feColorMatrix in="blurOut" result="blurOut2" type="matrix" values="0 0 0 0 0 0 0 0 0 0 0 0 0 0 0 0 0 0 .4 0"/><feOffset dx="4.0" dy="4.0" in="blurOut2" result="blurOut3"/><feBlend in="SourceGraphic" in2="blurOut3" mode="normal"/></filter></defs><g><!--class Codec--><rect fill="#FEFECE" filter="url(#fco0m5v)" height="48" style="stroke: #A80036; stroke-width: 1.5;" width="69" x="183" y="8"/><ellipse cx="198" cy="24" fill="#B4A7E5" rx="11" ry="11" style="stroke: #A80036; stroke-width: 1.0;"/><path d="M194.4219,19.7656 L194.4219,17.6094 L201.8125,17.6094 L201.8125,19.7656 L199.3438,19.7656 L199.3438,27.8438 L201.8125,27.8438 L201.8125,30 L194.4219,30 L194.4219,27.8438 L196.8906,27.8438 L196.8906,19.7656 L194.4219,19.7656 Z "/><text fill="#000000" font-family="sans-serif" font-size="12" font-style="italic" lengthAdjust="spacingAndGlyphs" textLength="37" x="212" y="28.1543">Codec</text><line style="stroke: #A80036; stroke-width: 1.5;" x1="184" x2="251" y1="40" y2="40"/><line style="stroke: #A80036; stroke-width: 1.5;" x1="184" x2="251" y1="48" y2="48"/><!--class HttpCodec--><rect fill="#FEFECE" filter="url(#fco0m5v)" height="48" style="stroke: #A80036; stroke-width: 1.5;" width="107" x="97" y="116"/><ellipse cx="112" cy="132" fill="#A9DCDF" rx="11" ry="11" style="stroke: #A80036; stroke-width: 1.0;"/><path d="M112.1094,127.0938 L110.9531,132.1719 L113.2813,132.1719 L112.1094,127.0938 Z M110.625,124.8594 L113.6094,124.8594 L116.9688,137.25 L114.5156,137.25 L113.75,134.1875 L110.4688,134.1875 L109.7188,137.25 L107.2813,137.25 L110.625,124.8594 Z "/><text fill="#000000" font-family="sans-serif" font-size="12" font-style="italic" lengthAdjust="spacingAndGlyphs" textLength="64" x="126" y="136.1543">HttpCodec</text><rect fill="#FFFFFF" height="15.9688" style="stroke: #000000; stroke-width: 1.0; stroke-dasharray: 2.0,2.0;" width="9" x="198" y="113"/><text fill="#000000" font-family="sans-serif" font-size="12" font-style="italic" lengthAdjust="spacingAndGlyphs" textLength="7" x="199" y="125.1387">T</text><line style="stroke: #A80036; stroke-width: 1.5;" x1="98" x2="203" y1="148" y2="148"/><line style="stroke: #A80036; stroke-width: 1.5;" x1="98" x2="203" y1="156" y2="156"/><!--class Encoder--><rect fill="#FEFECE" filter="url(#fco0m5v)" height="48" style="stroke: #A80036; stroke-width: 1.5;" width="93" x="239" y="116"/><ellipse cx="254" cy="132" fill="#B4A7E5" rx="11" ry="11" style="stroke: #A80036; stroke-width: 1.0;"/><path d="M250.4219,127.7656 L250.4219,125.6094 L257.8125,125.6094 L257.8125,127.7656 L255.3438,127.7656 L255.3438,135.8438 L257.8125,135.8438 L257.8125,138 L250.4219,138 L250.4219,135.8438 L252.8906,135.8438 L252.8906,127.7656 L250.4219,127.7656 Z "/><text fill="#000000" font-family="sans-serif" font-size="12" font-style="italic" lengthAdjust="spacingAndGlyphs" textLength="50" x="268" y="136.1543">Encoder</text><rect fill="#FFFFFF" height="15.9688" style="stroke: #000000; stroke-width: 1.0; stroke-dasharray: 2.0,2.0;" width="9" x="326" y="113"/><text fill="#000000" font-family="sans-serif" font-size="12" font-style="italic" lengthAdjust="spacingAndGlyphs" textLength="7" x="327" y="125.1387">T</text><line style="stroke: #A80036; stroke-width: 1.5;" x1="240" x2="331" y1="148" y2="148"/><line style="stroke: #A80036; stroke-width: 1.5;" x1="240" x2="331" y1="156" y2="156"/><!--class HttpEncoder--><rect fill="#FEFECE" filter="url(#fco0m5v)" height="124.8281" style="stroke: #A80036; stroke-width: 1.5;" width="423" x="6" y="224"/><ellipse cx="80.75" cy="240" fill="#A9DCDF" rx="11" ry="11" style="stroke: #A80036; stroke-width: 1.0;"/><path d="M80.8594,235.0938 L79.7031,240.1719 L82.0313,240.1719 L80.8594,235.0938 Z M79.375,232.8594 L82.3594,232.8594 L85.7188,245.25 L83.2656,245.25 L82.5,242.1875 L79.2188,242.1875 L78.4688,245.25 L76.0313,245.25 L79.375,232.8594 Z "/><text fill="#000000" font-family="sans-serif" font-size="12" font-style="italic" lengthAdjust="spacingAndGlyphs" textLength="77" x="101.25" y="244.1543">HttpEncoder</text><rect fill="#FFFFFF" height="15.9688" style="stroke: #000000; stroke-width: 1.0; stroke-dasharray: 2.0,2.0;" width="186" x="246" y="221"/><text fill="#000000" font-family="sans-serif" font-size="12" font-style="italic" lengthAdjust="spacingAndGlyphs" textLength="184" x="247" y="233.1387">T extends HttpMessageHeader</text><line style="stroke: #A80036; stroke-width: 1.5;" x1="7" x2="428" y1="256" y2="256"/><line style="stroke: #A80036; stroke-width: 1.5;" x1="7" x2="428" y1="264" y2="264"/><ellipse cx="17" cy="275.9023" fill="#84BE84" rx="3" ry="3" style="stroke: #038048; stroke-width: 1.0;"/><text fill="#000000" font-family="sans-serif" font-size="11" lengthAdjust="spacingAndGlyphs" textLength="77" x="26" y="278.2104">HttpEncoder()</text><ellipse cx="17" cy="288.707" fill="#84BE84" rx="3" ry="3" style="stroke: #038048; stroke-width: 1.0;"/><text fill="#000000" font-family="sans-serif" font-size="11" lengthAdjust="spacingAndGlyphs" textLength="180" x="26" y="291.0151">void encode(T messageHeader)</text><ellipse cx="17" cy="301.5117" fill="#84BE84" rx="3" ry="3" style="stroke: #038048; stroke-width: 1.0;"/><text fill="#000000" font-family="sans-serif" font-size="11" lengthAdjust="spacingAndGlyphs" textLength="397" x="26" y="303.8198">Encoder.Result encode(Buffer in, ByteBuffer out, boolean endOfInput)</text><ellipse cx="17" cy="314.3164" fill="#84BE84" rx="3" ry="3" style="stroke: #038048; stroke-width: 1.0;"/><text fill="#000000" font-family="sans-serif" font-size="11" lengthAdjust="spacingAndGlyphs" textLength="98" x="26" y="316.6245">int pendingLimit()</text><ellipse cx="17" cy="327.1211" fill="#84BE84" rx="3" ry="3" style="stroke: #038048; stroke-width: 1.0;"/><text fill="#000000" font-family="sans-serif" font-size="11" lengthAdjust="spacingAndGlyphs" textLength="215" x="26" y="329.4292">void setPendingLimit(int pendingLimit)</text><ellipse cx="17" cy="339.9258" fill="#84BE84" rx="3" ry="3" style="stroke: #038048; stroke-width: 1.0;"/><text fill="#000000" font-family="sans-serif" font-size="11" lengthAdjust="spacingAndGlyphs" textLength="104" x="26" y="342.2339">boolean isClosed()</text><path d="M191.8125,73.4068 C182.9137,87.751 173.2362,103.3507 165.4859,115.8436 " fill="none" style="stroke: #A80036; stroke-width: 1.0; stroke-dasharray: 7.0,7.0;"/><polygon fill="none" points="185.9722,69.5424,202.4639,56.2373,197.8688,76.9227,185.9722,69.5424" style="stroke: #A80036; stroke-width: 1.0;"/><path d="M243.5709,73.4068 C252.6025,87.751 262.4245,103.3507 270.2904,115.8436 " fill="none" style="stroke: #A80036; stroke-width: 1.0;"/><polygon fill="none" points="237.4932,76.8917,232.7605,56.2373,249.3405,69.4323,237.4932,76.8917" style="stroke: #A80036; stroke-width: 1.0;"/><path d="M170.0639,182.7777 C175.9196,195.5817 182.4667,209.8973 188.7822,223.7067 " fill="none" style="stroke: #A80036; stroke-width: 1.0;"/><polygon fill="none" points="163.516,185.291,161.5637,164.1915,176.2477,179.4683,163.516,185.291" style="stroke: #A80036; stroke-width: 1.0;"/><path d="M265.6441,182.7777 C259.701,195.5817 253.0562,209.8973 246.6464,223.7067 " fill="none" style="stroke: #A80036; stroke-width: 1.0; stroke-dasharray: 7.0,7.0;"/><polygon fill="none" points="259.5014,179.3854,274.2712,164.1915,272.2001,185.2797,259.5014,179.3854" style="stroke: #A80036; stroke-width: 1.0;"/></g></svg>