<?xml version="1.0" encoding="UTF-8" standalone="no"?><svg xmlns="http://www.w3.org/2000/svg" xmlns:xlink="http://www.w3.org/1999/xlink" contentScriptType="application/ecmascript" contentStyleType="text/css" height="281px" preserveAspectRatio="none" style="width:348px;height:281px;" version="1.1" viewBox="0 0 348 281" width="348px" zoomAndPan="magnify"><defs><filter height="300%" id="f7fm1ek" width="300%" x="-1" y="-1"><feGaussianBlur result="blurOut" stdDeviation="2.0"/><feColorMatrix in="blurOut" result="blurOut2" type="matrix" values="0 0 0 0 0 0 0 0 0 0 0 0 0 0 0 0 0 0 .4 0"/><feOffset dx="4.0" dy="4.0" in="blurOut2" result="blurOut3"/><feBlend in="SourceGraphic" in2="blurOut3" mode="normal"/></filter></defs><g><!--class HttpMessageHeader--><rect fill="#FEFECE" filter="url(#f7fm1ek)" height="48" style="stroke: #A80036; stroke-width: 1.5;" width="159" x="57" y="116"/><ellipse cx="72" cy="132" fill="#A9DCDF" rx="11" ry="11" style="stroke: #A80036; stroke-width: 1.0;"/><path d="M72.1094,127.3438 L70.9531,132.4219 L73.2813,132.4219 L72.1094,127.3438 Z M70.625,125.1094 L73.6094,125.1094 L76.9688,137.5 L74.5156,137.5 L73.75,134.4375 L70.4688,134.4375 L69.7188,137.5 L67.2813,137.5 L70.625,125.1094 Z "/><text fill="#000000" font-family="sans-serif" font-size="12" font-style="italic" lengthAdjust="spacingAndGlyphs" textLength="127" x="86" y="136.1543">HttpMessageHeader</text><line style="stroke: #A80036; stroke-width: 1.5;" x1="58" x2="215" y1="148" y2="148"/><line style="stroke: #A80036; stroke-width: 1.5;" x1="58" x2="215" y1="156" y2="156"/><!--class MessageHeader--><rect fill="#FEFECE" filter="url(#f7fm1ek)" height="48" style="stroke: #A80036; stroke-width: 1.5;" width="132" x="70.5" y="8"/><ellipse cx="85.5" cy="24" fill="#B4A7E5" rx="11" ry="11" style="stroke: #A80036; stroke-width: 1.0;"/><path d="M81.4219,19.7656 L81.4219,17.6094 L88.8125,17.6094 L88.8125,19.7656 L86.3438,19.7656 L86.3438,27.8438 L88.8125,27.8438 L88.8125,30 L81.4219,30 L81.4219,27.8438 L83.8906,27.8438 L83.8906,19.7656 L81.4219,19.7656 Z "/><text fill="#000000" font-family="sans-serif" font-size="12" font-style="italic" lengthAdjust="spacingAndGlyphs" textLength="100" x="99.5" y="28.1543">MessageHeader</text><line style="stroke: #A80036; stroke-width: 1.5;" x1="71.5" x2="201.5" y1="40" y2="40"/><line style="stroke: #A80036; stroke-width: 1.5;" x1="71.5" x2="201.5" y1="48" y2="48"/><!--class HttpRequest--><rect fill="#FEFECE" filter="url(#f7fm1ek)" height="48" style="stroke: #A80036; stroke-width: 1.5;" width="111" x="6" y="224"/><ellipse cx="21" cy="240" fill="#ADD1B2" rx="11" ry="11" style="stroke: #A80036; stroke-width: 1.0;"/><path d="M23.9688,245.6406 Q23.3906,245.9375 22.75,246.0859 Q22.1094,246.2344 21.4063,246.2344 Q18.9063,246.2344 17.5859,244.5859 Q16.2656,242.9375 16.2656,239.8125 Q16.2656,236.6875 17.5859,235.0313 Q18.9063,233.375 21.4063,233.375 Q22.1094,233.375 22.7578,233.5313 Q23.4063,233.6875 23.9688,233.9844 L23.9688,236.7031 Q23.3438,236.125 22.75,235.8516 Q22.1563,235.5781 21.5313,235.5781 Q20.1875,235.5781 19.5,236.6484 Q18.8125,237.7188 18.8125,239.8125 Q18.8125,241.9063 19.5,242.9766 Q20.1875,244.0469 21.5313,244.0469 Q22.1563,244.0469 22.75,243.7734 Q23.3438,243.5 23.9688,242.9219 L23.9688,245.6406 Z "/><text fill="#000000" font-family="sans-serif" font-size="12" lengthAdjust="spacingAndGlyphs" textLength="79" x="35" y="244.1543">HttpRequest</text><line style="stroke: #A80036; stroke-width: 1.5;" x1="7" x2="116" y1="256" y2="256"/><line style="stroke: #A80036; stroke-width: 1.5;" x1="7" x2="116" y1="264" y2="264"/><!--class HttpResponse--><rect fill="#FEFECE" filter="url(#f7fm1ek)" height="48" style="stroke: #A80036; stroke-width: 1.5;" width="121" x="152" y="224"/><ellipse cx="167" cy="240" fill="#ADD1B2" rx="11" ry="11" style="stroke: #A80036; stroke-width: 1.0;"/><path d="M169.9688,245.6406 Q169.3906,245.9375 168.75,246.0859 Q168.1094,246.2344 167.4063,246.2344 Q164.9063,246.2344 163.5859,244.5859 Q162.2656,242.9375 162.2656,239.8125 Q162.2656,236.6875 163.5859,235.0313 Q164.9063,233.375 167.4063,233.375 Q168.1094,233.375 168.7578,233.5313 Q169.4063,233.6875 169.9688,233.9844 L169.9688,236.7031 Q169.3438,236.125 168.75,235.8516 Q168.1563,235.5781 167.5313,235.5781 Q166.1875,235.5781 165.5,236.6484 Q164.8125,237.7188 164.8125,239.8125 Q164.8125,241.9063 165.5,242.9766 Q166.1875,244.0469 167.5313,244.0469 Q168.1563,244.0469 168.75,243.7734 Q169.3438,243.5 169.9688,242.9219 L169.9688,245.6406 Z "/><text fill="#000000" font-family="sans-serif" font-size="12" lengthAdjust="spacingAndGlyphs" textLength="89" x="181" y="244.1543">HttpResponse</text><line style="stroke: #A80036; stroke-width: 1.5;" x1="153" x2="272" y1="256" y2="256"/><line style="stroke: #A80036; stroke-width: 1.5;" x1="153" x2="272" y1="264" y2="264"/><!--class HttpField--><rect fill="#FEFECE" filter="url(#f7fm1ek)" height="48" style="stroke: #A80036; stroke-width: 1.5;" width="88" x="251.5" y="116"/><ellipse cx="266.5" cy="132" fill="#ADD1B2" rx="11" ry="11" style="stroke: #A80036; stroke-width: 1.0;"/><path d="M269.4688,137.6406 Q268.8906,137.9375 268.25,138.0859 Q267.6094,138.2344 266.9063,138.2344 Q264.4063,138.2344 263.0859,136.5859 Q261.7656,134.9375 261.7656,131.8125 Q261.7656,128.6875 263.0859,127.0313 Q264.4063,125.375 266.9063,125.375 Q267.6094,125.375 268.2578,125.5313 Q268.9063,125.6875 269.4688,125.9844 L269.4688,128.7031 Q268.8438,128.125 268.25,127.8516 Q267.6563,127.5781 267.0313,127.5781 Q265.6875,127.5781 265,128.6484 Q264.3125,129.7188 264.3125,131.8125 Q264.3125,133.9063 265,134.9766 Q265.6875,136.0469 267.0313,136.0469 Q267.6563,136.0469 268.25,135.7734 Q268.8438,135.5 269.4688,134.9219 L269.4688,137.6406 Z "/><text fill="#000000" font-family="sans-serif" font-size="12" lengthAdjust="spacingAndGlyphs" textLength="56" x="280.5" y="136.1543">HttpField</text><line style="stroke: #A80036; stroke-width: 1.5;" x1="252.5" x2="338.5" y1="148" y2="148"/><line style="stroke: #A80036; stroke-width: 1.5;" x1="252.5" x2="338.5" y1="156" y2="156"/><path d="M164.932,180.6557 C175.324,195.1498 186.737,211.0681 195.779,223.6784 " fill="none" style="stroke: #A80036; stroke-width: 1.0;"/><polygon fill="none" points="158.956,184.3332,152.991,164,170.334,176.1755,158.956,184.3332" style="stroke: #A80036; stroke-width: 1.0;"/><path d="M108.442,180.6557 C98.1865,195.1498 86.9235,211.0681 78.0011,223.6784 " fill="none" style="stroke: #A80036; stroke-width: 1.0;"/><polygon fill="none" points="102.96,176.2838,120.226,164,114.389,184.3701,102.96,176.2838" style="stroke: #A80036; stroke-width: 1.0;"/><path d="M229.419,140 C236.701,140 243.983,140 251.265,140 " fill="none" style="stroke: #A80036; stroke-width: 1.0;"/><polygon fill="#A80036" points="216.311,140,222.311,144,228.311,140,222.311,136,216.311,140" style="stroke: #A80036; stroke-width: 1.0;"/><text fill="#000000" font-family="sans-serif" font-size="13" lengthAdjust="spacingAndGlyphs" textLength="7" x="236.3589" y="135.8357">*</text><path d="M136.5,76.024 C136.5,89.579 136.5,104.038 136.5,115.678 " fill="none" style="stroke: #A80036; stroke-width: 1.0; stroke-dasharray: 7.0,7.0;"/><polygon fill="none" points="129.5,76,136.5,56,143.5,76,129.5,76" style="stroke: #A80036; stroke-width: 1.0;"/></g></svg>