<?xml version="1.0" encoding="UTF-8" standalone="no"?><svg xmlns="http://www.w3.org/2000/svg" xmlns:xlink="http://www.w3.org/1999/xlink" contentScriptType="application/ecmascript" contentStyleType="text/css" height="281px" preserveAspectRatio="none" style="width:340px;height:281px;" version="1.1" viewBox="0 0 340 281" width="340px" zoomAndPan="magnify"><defs><filter height="300%" id="f48500o" width="300%" x="-1" y="-1"><feGaussianBlur result="blurOut" stdDeviation="2.0"/><feColorMatrix in="blurOut" result="blurOut2" type="matrix" values="0 0 0 0 0 0 0 0 0 0 0 0 0 0 0 0 0 0 .4 0"/><feOffset dx="4.0" dy="4.0" in="blurOut2" result="blurOut3"/><feBlend in="SourceGraphic" in2="blurOut3" mode="normal"/></filter></defs><g><!--class HttpMessageHeader--><rect fill="#FEFECE" filter="url(#f48500o)" height="48" style="stroke: #A80036; stroke-width: 1.5;" width="153" x="56.5" y="116"/><ellipse cx="71.5" cy="132" fill="#A9DCDF" rx="11" ry="11" style="stroke: #A80036; stroke-width: 1.0;"/><path d="M71.6094,127.0938 L70.4531,132.1719 L72.7813,132.1719 L71.6094,127.0938 Z M70.125,124.8594 L73.1094,124.8594 L76.4688,137.25 L74.0156,137.25 L73.25,134.1875 L69.9688,134.1875 L69.2188,137.25 L66.7813,137.25 L70.125,124.8594 Z "/><text fill="#000000" font-family="sans-serif" font-size="12" font-style="italic" lengthAdjust="spacingAndGlyphs" textLength="121" x="85.5" y="136.1543">HttpMessageHeader</text><line style="stroke: #A80036; stroke-width: 1.5;" x1="57.5" x2="208.5" y1="148" y2="148"/><line style="stroke: #A80036; stroke-width: 1.5;" x1="57.5" x2="208.5" y1="156" y2="156"/><!--class MessageHeader--><rect fill="#FEFECE" filter="url(#f48500o)" height="48" style="stroke: #A80036; stroke-width: 1.5;" width="126" x="70" y="8"/><ellipse cx="85" cy="24" fill="#B4A7E5" rx="11" ry="11" style="stroke: #A80036; stroke-width: 1.0;"/><path d="M81.4219,19.7656 L81.4219,17.6094 L88.8125,17.6094 L88.8125,19.7656 L86.3438,19.7656 L86.3438,27.8438 L88.8125,27.8438 L88.8125,30 L81.4219,30 L81.4219,27.8438 L83.8906,27.8438 L83.8906,19.7656 L81.4219,19.7656 Z "/><text fill="#000000" font-family="sans-serif" font-size="12" font-style="italic" lengthAdjust="spacingAndGlyphs" textLength="94" x="99" y="28.1543">MessageHeader</text><line style="stroke: #A80036; stroke-width: 1.5;" x1="71" x2="195" y1="40" y2="40"/><line style="stroke: #A80036; stroke-width: 1.5;" x1="71" x2="195" y1="48" y2="48"/><!--class HttpRequest--><rect fill="#FEFECE" filter="url(#f48500o)" height="48" style="stroke: #A80036; stroke-width: 1.5;" width="108" x="6" y="224"/><ellipse cx="21" cy="240" fill="#ADD1B2" rx="11" ry="11" style="stroke: #A80036; stroke-width: 1.0;"/><path d="M23.9688,245.6406 Q23.3906,245.9375 22.75,246.0859 Q22.1094,246.2344 21.4063,246.2344 Q18.9063,246.2344 17.5859,244.5859 Q16.2656,242.9375 16.2656,239.8125 Q16.2656,236.6875 17.5859,235.0313 Q18.9063,233.375 21.4063,233.375 Q22.1094,233.375 22.7578,233.5313 Q23.4063,233.6875 23.9688,233.9844 L23.9688,236.7031 Q23.3438,236.125 22.75,235.8516 Q22.1563,235.5781 21.5313,235.5781 Q20.1875,235.5781 19.5,236.6484 Q18.8125,237.7188 18.8125,239.8125 Q18.8125,241.9063 19.5,242.9766 Q20.1875,244.0469 21.5313,244.0469 Q22.1563,244.0469 22.75,243.7734 Q23.3438,243.5 23.9688,242.9219 L23.9688,245.6406 Z "/><text fill="#000000" font-family="sans-serif" font-size="12" lengthAdjust="spacingAndGlyphs" textLength="76" x="35" y="244.1543">HttpRequest</text><line style="stroke: #A80036; stroke-width: 1.5;" x1="7" x2="113" y1="256" y2="256"/><line style="stroke: #A80036; stroke-width: 1.5;" x1="7" x2="113" y1="264" y2="264"/><!--class HttpResponse--><rect fill="#FEFECE" filter="url(#f48500o)" height="48" style="stroke: #A80036; stroke-width: 1.5;" width="116" x="149" y="224"/><ellipse cx="164" cy="240" fill="#ADD1B2" rx="11" ry="11" style="stroke: #A80036; stroke-width: 1.0;"/><path d="M166.9688,245.6406 Q166.3906,245.9375 165.75,246.0859 Q165.1094,246.2344 164.4063,246.2344 Q161.9063,246.2344 160.5859,244.5859 Q159.2656,242.9375 159.2656,239.8125 Q159.2656,236.6875 160.5859,235.0313 Q161.9063,233.375 164.4063,233.375 Q165.1094,233.375 165.7578,233.5313 Q166.4063,233.6875 166.9688,233.9844 L166.9688,236.7031 Q166.3438,236.125 165.75,235.8516 Q165.1563,235.5781 164.5313,235.5781 Q163.1875,235.5781 162.5,236.6484 Q161.8125,237.7188 161.8125,239.8125 Q161.8125,241.9063 162.5,242.9766 Q163.1875,244.0469 164.5313,244.0469 Q165.1563,244.0469 165.75,243.7734 Q166.3438,243.5 166.9688,242.9219 L166.9688,245.6406 Z "/><text fill="#000000" font-family="sans-serif" font-size="12" lengthAdjust="spacingAndGlyphs" textLength="84" x="178" y="244.1543">HttpResponse</text><line style="stroke: #A80036; stroke-width: 1.5;" x1="150" x2="264" y1="256" y2="256"/><line style="stroke: #A80036; stroke-width: 1.5;" x1="150" x2="264" y1="264" y2="264"/><!--class HttpField--><rect fill="#FEFECE" filter="url(#f48500o)" height="48" style="stroke: #A80036; stroke-width: 1.5;" width="87" x="244.5" y="116"/><ellipse cx="259.5" cy="132" fill="#ADD1B2" rx="11" ry="11" style="stroke: #A80036; stroke-width: 1.0;"/><path d="M262.4688,137.6406 Q261.8906,137.9375 261.25,138.0859 Q260.6094,138.2344 259.9063,138.2344 Q257.4063,138.2344 256.0859,136.5859 Q254.7656,134.9375 254.7656,131.8125 Q254.7656,128.6875 256.0859,127.0313 Q257.4063,125.375 259.9063,125.375 Q260.6094,125.375 261.2578,125.5313 Q261.9063,125.6875 262.4688,125.9844 L262.4688,128.7031 Q261.8438,128.125 261.25,127.8516 Q260.6563,127.5781 260.0313,127.5781 Q258.6875,127.5781 258,128.6484 Q257.3125,129.7188 257.3125,131.8125 Q257.3125,133.9063 258,134.9766 Q258.6875,136.0469 260.0313,136.0469 Q260.6563,136.0469 261.25,135.7734 Q261.8438,135.5 262.4688,134.9219 L262.4688,137.6406 Z "/><text fill="#000000" font-family="sans-serif" font-size="12" lengthAdjust="spacingAndGlyphs" textLength="55" x="273.5" y="136.1543">HttpField</text><line style="stroke: #A80036; stroke-width: 1.5;" x1="245.5" x2="330.5" y1="148" y2="148"/><line style="stroke: #A80036; stroke-width: 1.5;" x1="245.5" x2="330.5" y1="156" y2="156"/><path d="M161.044,180.9291 C170.962,195.4039 181.7933,211.2119 190.4484,223.8436 " fill="none" style="stroke: #A80036; stroke-width: 1.0;"/><polygon fill="none" points="155.1372,184.6926,149.607,164.2373,166.6862,176.7793,155.1372,184.6926" style="stroke: #A80036; stroke-width: 1.0;"/><path d="M105.3349,180.9291 C95.551,195.4039 84.8661,211.2119 76.3279,223.8436 " fill="none" style="stroke: #A80036; stroke-width: 1.0;"/><polygon fill="none" points="99.6179,176.8872,116.6174,164.2373,111.2168,184.7272,99.6179,176.8872" style="stroke: #A80036; stroke-width: 1.0;"/><path d="M222.8409,140 C229.9611,140 237.0814,140 244.2017,140 " fill="none" style="stroke: #A80036; stroke-width: 1.0;"/><polygon fill="#A80036" points="209.5918,140,215.5918,144,221.5918,140,215.5918,136,209.5918,140" style="stroke: #A80036; stroke-width: 1.0;"/><text fill="#000000" font-family="sans-serif" font-size="13" lengthAdjust="spacingAndGlyphs" textLength="7" x="229.3679" y="135.8357">*</text><path d="M133,76.2911 C133,89.8171 133,104.1835 133,115.8436 " fill="none" style="stroke: #A80036; stroke-width: 1.0; stroke-dasharray: 7.0,7.0;"/><polygon fill="none" points="126.0001,76.2373,133,56.2373,140.0001,76.2373,126.0001,76.2373" style="stroke: #A80036; stroke-width: 1.0;"/></g></svg>