<?xml version="1.0" encoding="UTF-8" standalone="no"?><svg xmlns="http://www.w3.org/2000/svg" xmlns:xlink="http://www.w3.org/1999/xlink" contentScriptType="application/ecmascript" contentStyleType="text/css" height="357px" preserveAspectRatio="none" style="width:524px;height:357px;" version="1.1" viewBox="0 0 524 357" width="524px" zoomAndPan="magnify"><defs><filter height="300%" id="fixk7ws" width="300%" x="-1" y="-1"><feGaussianBlur result="blurOut" stdDeviation="2.0"/><feColorMatrix in="blurOut" result="blurOut2" type="matrix" values="0 0 0 0 0 0 0 0 0 0 0 0 0 0 0 0 0 0 .4 0"/><feOffset dx="4.0" dy="4.0" in="blurOut2" result="blurOut3"/><feBlend in="SourceGraphic" in2="blurOut3" mode="normal"/></filter></defs><g><!--class Codec--><rect fill="#FEFECE" filter="url(#fixk7ws)" height="48" style="stroke: #A80036; stroke-width: 1.5;" width="71" x="225" y="8"/><ellipse cx="240" cy="24" fill="#B4A7E5" rx="11" ry="11" style="stroke: #A80036; stroke-width: 1.0;"/><path d="M235.9219,19.7656 L235.9219,17.6094 L243.3125,17.6094 L243.3125,19.7656 L240.8438,19.7656 L240.8438,27.8438 L243.3125,27.8438 L243.3125,30 L235.9219,30 L235.9219,27.8438 L238.3906,27.8438 L238.3906,19.7656 L235.9219,19.7656 Z "/><text fill="#000000" font-family="sans-serif" font-size="12" font-style="italic" lengthAdjust="spacingAndGlyphs" textLength="39" x="254" y="28.1543">Codec</text><line style="stroke: #A80036; stroke-width: 1.5;" x1="226" x2="295" y1="40" y2="40"/><line style="stroke: #A80036; stroke-width: 1.5;" x1="226" x2="295" y1="48" y2="48"/><!--class HttpCodec--><rect fill="#FEFECE" filter="url(#fixk7ws)" height="48" style="stroke: #A80036; stroke-width: 1.5;" width="109" x="133" y="116"/><ellipse cx="148" cy="132" fill="#A9DCDF" rx="11" ry="11" style="stroke: #A80036; stroke-width: 1.0;"/><path d="M148.1094,127.3438 L146.9531,132.4219 L149.2813,132.4219 L148.1094,127.3438 Z M146.625,125.1094 L149.6094,125.1094 L152.9688,137.5 L150.5156,137.5 L149.75,134.4375 L146.4688,134.4375 L145.7188,137.5 L143.2813,137.5 L146.625,125.1094 Z "/><text fill="#000000" font-family="sans-serif" font-size="12" font-style="italic" lengthAdjust="spacingAndGlyphs" textLength="66" x="162" y="136.1543">HttpCodec</text><rect fill="#FFFFFF" height="15.9688" style="stroke: #000000; stroke-width: 1.0; stroke-dasharray: 2.0,2.0;" width="9" x="236" y="113"/><text fill="#000000" font-family="sans-serif" font-size="12" font-style="italic" lengthAdjust="spacingAndGlyphs" textLength="7" x="237" y="125.1387">T</text><line style="stroke: #A80036; stroke-width: 1.5;" x1="134" x2="241" y1="148" y2="148"/><line style="stroke: #A80036; stroke-width: 1.5;" x1="134" x2="241" y1="156" y2="156"/><!--class Decoder--><rect fill="#FEFECE" filter="url(#fixk7ws)" height="48" style="stroke: #A80036; stroke-width: 1.5;" width="112" x="277.5" y="116"/><ellipse cx="292.5" cy="132" fill="#B4A7E5" rx="11" ry="11" style="stroke: #A80036; stroke-width: 1.0;"/><path d="M288.4219,127.7656 L288.4219,125.6094 L295.8125,125.6094 L295.8125,127.7656 L293.3438,127.7656 L293.3438,135.8438 L295.8125,135.8438 L295.8125,138 L288.4219,138 L288.4219,135.8438 L290.8906,135.8438 L290.8906,127.7656 L288.4219,127.7656 Z "/><text fill="#000000" font-family="sans-serif" font-size="12" font-style="italic" lengthAdjust="spacingAndGlyphs" textLength="53" x="306.5" y="136.1543">Decoder</text><rect fill="#FFFFFF" height="15.9688" style="stroke: #000000; stroke-width: 1.0; stroke-dasharray: 2.0,2.0;" width="25" x="367.5" y="113"/><text fill="#000000" font-family="sans-serif" font-size="12" font-style="italic" lengthAdjust="spacingAndGlyphs" textLength="23" x="368.5" y="125.1387">T, R</text><line style="stroke: #A80036; stroke-width: 1.5;" x1="278.5" x2="388.5" y1="148" y2="148"/><line style="stroke: #A80036; stroke-width: 1.5;" x1="278.5" x2="388.5" y1="156" y2="156"/><!--class HttpDecoder--><rect fill="#FEFECE" filter="url(#fixk7ws)" height="124.8281" style="stroke: #A80036; stroke-width: 1.5;" width="509" x="6" y="224"/><ellipse cx="21" cy="240" fill="#A9DCDF" rx="11" ry="11" style="stroke: #A80036; stroke-width: 1.0;"/><path d="M21.1094,235.3438 L19.9531,240.4219 L22.2813,240.4219 L21.1094,235.3438 Z M19.625,233.1094 L22.6094,233.1094 L25.9688,245.5 L23.5156,245.5 L22.75,242.4375 L19.4688,242.4375 L18.7188,245.5 L16.2813,245.5 L19.625,233.1094 Z "/><text fill="#000000" font-family="sans-serif" font-size="12" font-style="italic" lengthAdjust="spacingAndGlyphs" textLength="80" x="35" y="244.1543">HttpDecoder</text><rect fill="#FFFFFF" height="15.9688" style="stroke: #000000; stroke-width: 1.0; stroke-dasharray: 2.0,2.0;" width="395" x="123" y="221"/><text fill="#000000" font-family="sans-serif" font-size="12" font-style="italic" lengthAdjust="spacingAndGlyphs" textLength="393" x="124" y="233.1387">T extends HttpMessageHeader, R extends HttpMessageHeader</text><line style="stroke: #A80036; stroke-width: 1.5;" x1="7" x2="514" y1="256" y2="256"/><line style="stroke: #A80036; stroke-width: 1.5;" x1="7" x2="514" y1="264" y2="264"/><ellipse cx="17" cy="275.9023" fill="#84BE84" rx="3" ry="3" style="stroke: #038048; stroke-width: 1.0;"/><text fill="#000000" font-family="sans-serif" font-size="11" lengthAdjust="spacingAndGlyphs" textLength="78" x="26" y="278.2104">HttpDecoder()</text><ellipse cx="17" cy="288.707" fill="#84BE84" rx="3" ry="3" style="stroke: #038048; stroke-width: 1.0;"/><text fill="#000000" font-family="sans-serif" font-size="11" lengthAdjust="spacingAndGlyphs" textLength="422" x="26" y="291.0151">Decoder.Result&lt;R&gt; decode(ByteBuffer in, Buffer out, boolean endOfInput)</text><ellipse cx="17" cy="301.5117" fill="#84BE84" rx="3" ry="3" style="stroke: #038048; stroke-width: 1.0;"/><text fill="#000000" font-family="sans-serif" font-size="11" lengthAdjust="spacingAndGlyphs" textLength="124" x="26" y="303.8198">Optional&lt;T&gt; header()</text><ellipse cx="17" cy="314.3164" fill="#84BE84" rx="3" ry="3" style="stroke: #038048; stroke-width: 1.0;"/><text fill="#000000" font-family="sans-serif" font-size="11" lengthAdjust="spacingAndGlyphs" textLength="285" x="26" y="316.6245">void setMaxHeaderLength(long maxHeaderLength)</text><ellipse cx="17" cy="327.1211" fill="#84BE84" rx="3" ry="3" style="stroke: #038048; stroke-width: 1.0;"/><text fill="#000000" font-family="sans-serif" font-size="11" lengthAdjust="spacingAndGlyphs" textLength="139" x="26" y="329.4292">long maxHeaderLength()</text><ellipse cx="17" cy="339.9258" fill="#84BE84" rx="3" ry="3" style="stroke: #038048; stroke-width: 1.0;"/><text fill="#000000" font-family="sans-serif" font-size="11" lengthAdjust="spacingAndGlyphs" textLength="106" x="26" y="342.2339">boolean isClosed()</text><path d="M233.19,72.656 C223.208,87.15 212.246,103.068 203.561,115.678 " fill="none" style="stroke: #A80036; stroke-width: 1.0; stroke-dasharray: 7.0,7.0;"/><polygon fill="none" points="227.551,68.502,244.66,56,239.081,76.443,227.551,68.502" style="stroke: #A80036; stroke-width: 1.0;"/><path d="M287.81,72.656 C297.792,87.15 308.754,103.068 317.439,115.678 " fill="none" style="stroke: #A80036; stroke-width: 1.0;"/><polygon fill="none" points="281.919,76.443,276.34,56,293.449,68.502,281.919,76.443" style="stroke: #A80036; stroke-width: 1.0;"/><path d="M208.395,182.362 C214.948,195.332 222.327,209.939 229.426,223.991 " fill="none" style="stroke: #A80036; stroke-width: 1.0;"/><polygon fill="none" points="201.999,185.224,199.229,164.216,214.495,178.911,201.999,185.224" style="stroke: #A80036; stroke-width: 1.0;"/><path d="M312.605,182.362 C306.052,195.332 298.673,209.939 291.574,223.991 " fill="none" style="stroke: #A80036; stroke-width: 1.0; stroke-dasharray: 7.0,7.0;"/><polygon fill="none" points="306.505,178.911,321.771,164.216,319.001,185.224,306.505,178.911" style="stroke: #A80036; stroke-width: 1.0;"/></g></svg>