<?xml version="1.0" encoding="UTF-8" standalone="no"?><svg xmlns="http://www.w3.org/2000/svg" xmlns:xlink="http://www.w3.org/1999/xlink" contentScriptType="application/ecmascript" contentStyleType="text/css" height="357px" preserveAspectRatio="none" style="width:437px;height:357px;" version="1.1" viewBox="0 0 437 357" width="437px" zoomAndPan="magnify"><defs><filter height="300%" id="f6u77v6" width="300%" x="-1" y="-1"><feGaussianBlur result="blurOut" stdDeviation="2.0"/><feColorMatrix in="blurOut" result="blurOut2" type="matrix" values="0 0 0 0 0 0 0 0 0 0 0 0 0 0 0 0 0 0 .4 0"/><feOffset dx="4.0" dy="4.0" in="blurOut2" result="blurOut3"/><feBlend in="SourceGraphic" in2="blurOut3" mode="normal"/></filter></defs><g><!--class Codec--><rect fill="#FEFECE" filter="url(#f6u77v6)" height="48" style="stroke: #A80036; stroke-width: 1.5;" width="71" x="181.5" y="8"/><ellipse cx="196.5" cy="24" fill="#B4A7E5" rx="11" ry="11" style="stroke: #A80036; stroke-width: 1.0;"/><path d="M192.4219,19.7656 L192.4219,17.6094 L199.8125,17.6094 L199.8125,19.7656 L197.3438,19.7656 L197.3438,27.8438 L199.8125,27.8438 L199.8125,30 L192.4219,30 L192.4219,27.8438 L194.8906,27.8438 L194.8906,19.7656 L192.4219,19.7656 Z "/><text fill="#000000" font-family="sans-serif" font-size="12" font-style="italic" lengthAdjust="spacingAndGlyphs" textLength="39" x="210.5" y="28.1543">Codec</text><line style="stroke: #A80036; stroke-width: 1.5;" x1="182.5" x2="251.5" y1="40" y2="40"/><line style="stroke: #A80036; stroke-width: 1.5;" x1="182.5" x2="251.5" y1="48" y2="48"/><!--class HttpCodec--><rect fill="#FEFECE" filter="url(#f6u77v6)" height="48" style="stroke: #A80036; stroke-width: 1.5;" width="109" x="94.5" y="116"/><ellipse cx="109.5" cy="132" fill="#A9DCDF" rx="11" ry="11" style="stroke: #A80036; stroke-width: 1.0;"/><path d="M109.6094,127.3438 L108.4531,132.4219 L110.7813,132.4219 L109.6094,127.3438 Z M108.125,125.1094 L111.1094,125.1094 L114.4688,137.5 L112.0156,137.5 L111.25,134.4375 L107.9688,134.4375 L107.2188,137.5 L104.7813,137.5 L108.125,125.1094 Z "/><text fill="#000000" font-family="sans-serif" font-size="12" font-style="italic" lengthAdjust="spacingAndGlyphs" textLength="66" x="123.5" y="136.1543">HttpCodec</text><rect fill="#FFFFFF" height="15.9688" style="stroke: #000000; stroke-width: 1.0; stroke-dasharray: 2.0,2.0;" width="9" x="197.5" y="113"/><text fill="#000000" font-family="sans-serif" font-size="12" font-style="italic" lengthAdjust="spacingAndGlyphs" textLength="7" x="198.5" y="125.1387">T</text><line style="stroke: #A80036; stroke-width: 1.5;" x1="95.5" x2="202.5" y1="148" y2="148"/><line style="stroke: #A80036; stroke-width: 1.5;" x1="95.5" x2="202.5" y1="156" y2="156"/><!--class Encoder--><rect fill="#FEFECE" filter="url(#f6u77v6)" height="48" style="stroke: #A80036; stroke-width: 1.5;" width="95" x="238.5" y="116"/><ellipse cx="253.5" cy="132" fill="#B4A7E5" rx="11" ry="11" style="stroke: #A80036; stroke-width: 1.0;"/><path d="M249.4219,127.7656 L249.4219,125.6094 L256.8125,125.6094 L256.8125,127.7656 L254.3438,127.7656 L254.3438,135.8438 L256.8125,135.8438 L256.8125,138 L249.4219,138 L249.4219,135.8438 L251.8906,135.8438 L251.8906,127.7656 L249.4219,127.7656 Z "/><text fill="#000000" font-family="sans-serif" font-size="12" font-style="italic" lengthAdjust="spacingAndGlyphs" textLength="52" x="267.5" y="136.1543">Encoder</text><rect fill="#FFFFFF" height="15.9688" style="stroke: #000000; stroke-width: 1.0; stroke-dasharray: 2.0,2.0;" width="9" x="327.5" y="113"/><text fill="#000000" font-family="sans-serif" font-size="12" font-style="italic" lengthAdjust="spacingAndGlyphs" textLength="7" x="328.5" y="125.1387">T</text><line style="stroke: #A80036; stroke-width: 1.5;" x1="239.5" x2="332.5" y1="148" y2="148"/><line style="stroke: #A80036; stroke-width: 1.5;" x1="239.5" x2="332.5" y1="156" y2="156"/><!--class HttpEncoder--><rect fill="#FEFECE" filter="url(#f6u77v6)" height="124.8281" style="stroke: #A80036; stroke-width: 1.5;" width="422" x="6" y="224"/><ellipse cx="75.25" cy="240" fill="#A9DCDF" rx="11" ry="11" style="stroke: #A80036; stroke-width: 1.0;"/><path d="M75.3594,235.3438 L74.2031,240.4219 L76.5313,240.4219 L75.3594,235.3438 Z M73.875,233.1094 L76.8594,233.1094 L80.2188,245.5 L77.7656,245.5 L77,242.4375 L73.7188,242.4375 L72.9688,245.5 L70.5313,245.5 L73.875,233.1094 Z "/><text fill="#000000" font-family="sans-serif" font-size="12" font-style="italic" lengthAdjust="spacingAndGlyphs" textLength="79" x="95.75" y="244.1543">HttpEncoder</text><rect fill="#FFFFFF" height="15.9688" style="stroke: #000000; stroke-width: 1.0; stroke-dasharray: 2.0,2.0;" width="194" x="237" y="221"/><text fill="#000000" font-family="sans-serif" font-size="12" font-style="italic" lengthAdjust="spacingAndGlyphs" textLength="192" x="238" y="233.1387">T extends HttpMessageHeader</text><line style="stroke: #A80036; stroke-width: 1.5;" x1="7" x2="427" y1="256" y2="256"/><line style="stroke: #A80036; stroke-width: 1.5;" x1="7" x2="427" y1="264" y2="264"/><ellipse cx="17" cy="275.9023" fill="#84BE84" rx="3" ry="3" style="stroke: #038048; stroke-width: 1.0;"/><text fill="#000000" font-family="sans-serif" font-size="11" lengthAdjust="spacingAndGlyphs" textLength="77" x="26" y="278.2104">HttpEncoder()</text><ellipse cx="17" cy="288.707" fill="#84BE84" rx="3" ry="3" style="stroke: #038048; stroke-width: 1.0;"/><text fill="#000000" font-family="sans-serif" font-size="11" lengthAdjust="spacingAndGlyphs" textLength="181" x="26" y="291.0151">void encode(T messageHeader)</text><ellipse cx="17" cy="301.5117" fill="#84BE84" rx="3" ry="3" style="stroke: #038048; stroke-width: 1.0;"/><text fill="#000000" font-family="sans-serif" font-size="11" lengthAdjust="spacingAndGlyphs" textLength="396" x="26" y="303.8198">Encoder.Result encode(Buffer in, ByteBuffer out, boolean endOfInput)</text><ellipse cx="17" cy="314.3164" fill="#84BE84" rx="3" ry="3" style="stroke: #038048; stroke-width: 1.0;"/><text fill="#000000" font-family="sans-serif" font-size="11" lengthAdjust="spacingAndGlyphs" textLength="98" x="26" y="316.6245">int pendingLimit()</text><ellipse cx="17" cy="327.1211" fill="#84BE84" rx="3" ry="3" style="stroke: #038048; stroke-width: 1.0;"/><text fill="#000000" font-family="sans-serif" font-size="11" lengthAdjust="spacingAndGlyphs" textLength="215" x="26" y="329.4292">void setPendingLimit(int pendingLimit)</text><ellipse cx="17" cy="339.9258" fill="#84BE84" rx="3" ry="3" style="stroke: #038048; stroke-width: 1.0;"/><text fill="#000000" font-family="sans-serif" font-size="11" lengthAdjust="spacingAndGlyphs" textLength="106" x="26" y="342.2339">boolean isClosed()</text><path d="M191.254,73.134 C182.038,87.499 171.962,103.207 163.961,115.678 " fill="none" style="stroke: #A80036; stroke-width: 1.0; stroke-dasharray: 7.0,7.0;"/><polygon fill="none" points="185.554,69.055,202.245,56,197.338,76.614,185.554,69.055" style="stroke: #A80036; stroke-width: 1.0;"/><path d="M243.125,73.134 C252.476,87.499 262.701,103.207 270.819,115.678 " fill="none" style="stroke: #A80036; stroke-width: 1.0;"/><polygon fill="none" points="237.016,76.581,231.972,56,248.749,68.943,237.016,76.581" style="stroke: #A80036; stroke-width: 1.0;"/><path d="M168.464,182.362 C174.568,195.332 181.442,209.939 188.055,223.991 " fill="none" style="stroke: #A80036; stroke-width: 1.0;"/><polygon fill="none" points="162.108,185.293,159.925,164.216,174.775,179.332,162.108,185.293" style="stroke: #A80036; stroke-width: 1.0;"/><path d="M266.25,182.362 C260.056,195.332 253.081,209.939 246.371,223.991 " fill="none" style="stroke: #A80036; stroke-width: 1.0; stroke-dasharray: 7.0,7.0;"/><polygon fill="none" points="259.979,179.248,274.914,164.216,272.613,185.281,259.979,179.248" style="stroke: #A80036; stroke-width: 1.0;"/></g></svg>