<?xml version="1.0" encoding="UTF-8" standalone="no"?><svg xmlns="http://www.w3.org/2000/svg" xmlns:xlink="http://www.w3.org/1999/xlink" contentScriptType="application/ecmascript" contentStyleType="text/css" height="357px" preserveAspectRatio="none" style="width:505px;height:357px;" version="1.1" viewBox="0 0 505 357" width="505px" zoomAndPan="magnify"><defs><filter height="300%" id="f4lrgum" width="300%" x="-1" y="-1"><feGaussianBlur result="blurOut" stdDeviation="2.0"/><feColorMatrix in="blurOut" result="blurOut2" type="matrix" values="0 0 0 0 0 0 0 0 0 0 0 0 0 0 0 0 0 0 .4 0"/><feOffset dx="4.0" dy="4.0" in="blurOut2" result="blurOut3"/><feBlend in="SourceGraphic" in2="blurOut3" mode="normal"/></filter></defs><g><!--class Codec--><rect fill="#FEFECE" filter="url(#f4lrgum)" height="48" style="stroke: #A80036; stroke-width: 1.5;" width="69" x="216.5" y="8"/><ellipse cx="231.5" cy="24" fill="#B4A7E5" rx="11" ry="11" style="stroke: #A80036; stroke-width: 1.0;"/><path d="M227.9219,19.7656 L227.9219,17.6094 L235.3125,17.6094 L235.3125,19.7656 L232.8438,19.7656 L232.8438,27.8438 L235.3125,27.8438 L235.3125,30 L227.9219,30 L227.9219,27.8438 L230.3906,27.8438 L230.3906,19.7656 L227.9219,19.7656 Z "/><text fill="#000000" font-family="sans-serif" font-size="12" font-style="italic" lengthAdjust="spacingAndGlyphs" textLength="37" x="245.5" y="28.1543">Codec</text><line style="stroke: #A80036; stroke-width: 1.5;" x1="217.5" x2="284.5" y1="40" y2="40"/><line style="stroke: #A80036; stroke-width: 1.5;" x1="217.5" x2="284.5" y1="48" y2="48"/><!--class HttpCodec--><rect fill="#FEFECE" filter="url(#f4lrgum)" height="48" style="stroke: #A80036; stroke-width: 1.5;" width="107" x="126.5" y="116"/><ellipse cx="141.5" cy="132" fill="#A9DCDF" rx="11" ry="11" style="stroke: #A80036; stroke-width: 1.0;"/><path d="M141.6094,127.0938 L140.4531,132.1719 L142.7813,132.1719 L141.6094,127.0938 Z M140.125,124.8594 L143.1094,124.8594 L146.4688,137.25 L144.0156,137.25 L143.25,134.1875 L139.9688,134.1875 L139.2188,137.25 L136.7813,137.25 L140.125,124.8594 Z "/><text fill="#000000" font-family="sans-serif" font-size="12" font-style="italic" lengthAdjust="spacingAndGlyphs" textLength="64" x="155.5" y="136.1543">HttpCodec</text><rect fill="#FFFFFF" height="15.9688" style="stroke: #000000; stroke-width: 1.0; stroke-dasharray: 2.0,2.0;" width="9" x="227.5" y="113"/><text fill="#000000" font-family="sans-serif" font-size="12" font-style="italic" lengthAdjust="spacingAndGlyphs" textLength="7" x="228.5" y="125.1387">T</text><line style="stroke: #A80036; stroke-width: 1.5;" x1="127.5" x2="232.5" y1="148" y2="148"/><line style="stroke: #A80036; stroke-width: 1.5;" x1="127.5" x2="232.5" y1="156" y2="156"/><!--class Decoder--><rect fill="#FEFECE" filter="url(#f4lrgum)" height="48" style="stroke: #A80036; stroke-width: 1.5;" width="109" x="268.5" y="116"/><ellipse cx="283.5" cy="132" fill="#B4A7E5" rx="11" ry="11" style="stroke: #A80036; stroke-width: 1.0;"/><path d="M279.9219,127.7656 L279.9219,125.6094 L287.3125,125.6094 L287.3125,127.7656 L284.8438,127.7656 L284.8438,135.8438 L287.3125,135.8438 L287.3125,138 L279.9219,138 L279.9219,135.8438 L282.3906,135.8438 L282.3906,127.7656 L279.9219,127.7656 Z "/><text fill="#000000" font-family="sans-serif" font-size="12" font-style="italic" lengthAdjust="spacingAndGlyphs" textLength="50" x="297.5" y="136.1543">Decoder</text><rect fill="#FFFFFF" height="15.9688" style="stroke: #000000; stroke-width: 1.0; stroke-dasharray: 2.0,2.0;" width="25" x="355.5" y="113"/><text fill="#000000" font-family="sans-serif" font-size="12" font-style="italic" lengthAdjust="spacingAndGlyphs" textLength="23" x="356.5" y="125.1387">T, R</text><line style="stroke: #A80036; stroke-width: 1.5;" x1="269.5" x2="376.5" y1="148" y2="148"/><line style="stroke: #A80036; stroke-width: 1.5;" x1="269.5" x2="376.5" y1="156" y2="156"/><!--class HttpDecoder--><rect fill="#FEFECE" filter="url(#f4lrgum)" height="124.8281" style="stroke: #A80036; stroke-width: 1.5;" width="490" x="6" y="224"/><ellipse cx="21" cy="240" fill="#A9DCDF" rx="11" ry="11" style="stroke: #A80036; stroke-width: 1.0;"/><path d="M21.1094,235.0938 L19.9531,240.1719 L22.2813,240.1719 L21.1094,235.0938 Z M19.625,232.8594 L22.6094,232.8594 L25.9688,245.25 L23.5156,245.25 L22.75,242.1875 L19.4688,242.1875 L18.7188,245.25 L16.2813,245.25 L19.625,232.8594 Z "/><text fill="#000000" font-family="sans-serif" font-size="12" font-style="italic" lengthAdjust="spacingAndGlyphs" textLength="77" x="35" y="244.1543">HttpDecoder</text><rect fill="#FFFFFF" height="15.9688" style="stroke: #000000; stroke-width: 1.0; stroke-dasharray: 2.0,2.0;" width="379" x="120" y="221"/><text fill="#000000" font-family="sans-serif" font-size="12" font-style="italic" lengthAdjust="spacingAndGlyphs" textLength="377" x="121" y="233.1387">T extends HttpMessageHeader, R extends HttpMessageHeader</text><line style="stroke: #A80036; stroke-width: 1.5;" x1="7" x2="495" y1="256" y2="256"/><line style="stroke: #A80036; stroke-width: 1.5;" x1="7" x2="495" y1="264" y2="264"/><ellipse cx="17" cy="275.9023" fill="#84BE84" rx="3" ry="3" style="stroke: #038048; stroke-width: 1.0;"/><text fill="#000000" font-family="sans-serif" font-size="11" lengthAdjust="spacingAndGlyphs" textLength="78" x="26" y="278.2104">HttpDecoder()</text><ellipse cx="17" cy="288.707" fill="#84BE84" rx="3" ry="3" style="stroke: #038048; stroke-width: 1.0;"/><text fill="#000000" font-family="sans-serif" font-size="11" lengthAdjust="spacingAndGlyphs" textLength="424" x="26" y="291.0151">Decoder.Result&lt;R&gt; decode(ByteBuffer in, Buffer out, boolean endOfInput)</text><ellipse cx="17" cy="301.5117" fill="#84BE84" rx="3" ry="3" style="stroke: #038048; stroke-width: 1.0;"/><text fill="#000000" font-family="sans-serif" font-size="11" lengthAdjust="spacingAndGlyphs" textLength="124" x="26" y="303.8198">Optional&lt;T&gt; header()</text><ellipse cx="17" cy="314.3164" fill="#84BE84" rx="3" ry="3" style="stroke: #038048; stroke-width: 1.0;"/><text fill="#000000" font-family="sans-serif" font-size="11" lengthAdjust="spacingAndGlyphs" textLength="287" x="26" y="316.6245">void setMaxHeaderLength(long maxHeaderLength)</text><ellipse cx="17" cy="327.1211" fill="#84BE84" rx="3" ry="3" style="stroke: #038048; stroke-width: 1.0;"/><text fill="#000000" font-family="sans-serif" font-size="11" lengthAdjust="spacingAndGlyphs" textLength="140" x="26" y="329.4292">long maxHeaderLength()</text><ellipse cx="17" cy="339.9258" fill="#84BE84" rx="3" ry="3" style="stroke: #038048; stroke-width: 1.0;"/><text fill="#000000" font-family="sans-serif" font-size="11" lengthAdjust="spacingAndGlyphs" textLength="104" x="26" y="342.2339">boolean isClosed()</text><path d="M223.7789,73.4068 C214.3489,87.751 204.0935,103.3507 195.8806,115.8436 " fill="none" style="stroke: #A80036; stroke-width: 1.0; stroke-dasharray: 7.0,7.0;"/><polygon fill="none" points="218.2303,69.1041,235.0662,56.2373,229.9288,76.7947,218.2303,69.1041" style="stroke: #A80036; stroke-width: 1.0;"/><path d="M278.2861,72.9291 C287.936,87.4039 298.4746,103.2119 306.8957,115.8436 " fill="none" style="stroke: #A80036; stroke-width: 1.0;"/><polygon fill="none" points="272.4279,76.7612,267.1582,56.2373,284.0766,68.9954,272.4279,76.7612" style="stroke: #A80036; stroke-width: 1.0;"/><path d="M200.5105,182.3211 C206.772,195.2407 213.7955,209.7329 220.5678,223.7067 " fill="none" style="stroke: #A80036; stroke-width: 1.0;"/><polygon fill="none" points="194.1475,185.2421,191.7242,164.1915,206.7459,179.1364,194.1475,185.2421" style="stroke: #A80036; stroke-width: 1.0;"/><path d="M302.2006,182.3211 C295.851,195.2407 288.7285,209.7329 281.8609,223.7067 " fill="none" style="stroke: #A80036; stroke-width: 1.0; stroke-dasharray: 7.0,7.0;"/><polygon fill="none" points="296.0068,179.0533,311.1107,164.1915,308.5714,185.2284,296.0068,179.0533" style="stroke: #A80036; stroke-width: 1.0;"/></g></svg>