<?xml version="1.0" encoding="UTF-8" standalone="yes"?><svg xmlns="http://www.w3.org/2000/svg" xmlns:xlink="http://www.w3.org/1999/xlink" height="436px" style="width:235px;height:436px;" version="1.1" viewBox="0 0 235 436" width="235px"><defs><filter height="300%" id="f1" width="300%" x="-1" y="-1"><feGaussianBlur result="blurOut" stdDeviation="2.0"/><feColorMatrix in="blurOut" result="blurOut2" type="matrix" values="0 0 0 0 0 0 0 0 0 0 0 0 0 0 0 0 0 0 .4 0"/><feOffset dx="4.0" dy="4.0" in="blurOut2" result="blurOut3"/><feBlend in="SourceGraphic" in2="blurOut3" mode="normal"/></filter></defs><g><text fill="#000000" font-family="sans-serif" font-size="18" lengthAdjust="spacingAndGlyphs" textLength="120" x="62" y="26.708">Receive Loop</text><ellipse cx="130" cy="40.9531" fill="#000000" filter="url(#f1)" rx="10" ry="10" style="stroke: none; stroke-width: 1.0;"/><rect fill="#FEFECE" filter="url(#f1)" height="33.9688" rx="12.5" ry="12.5" style="stroke: #A80036; stroke-width: 1.5;" width="101" x="79.5" y="131.7578"/><text fill="#000000" font-family="sans-serif" font-size="12" lengthAdjust="spacingAndGlyphs" textLength="81" x="89.5" y="152.8965">Receive data</text><rect fill="#FEFECE" filter="url(#f1)" height="33.9688" rx="12.5" ry="12.5" style="stroke: #A80036; stroke-width: 1.5;" width="111" x="74.5" y="246.5313"/><text fill="#000000" font-family="sans-serif" font-size="12" lengthAdjust="spacingAndGlyphs" textLength="91" x="84.5" y="267.6699">Invoke decode</text><rect fill="#FEFECE" filter="url(#f1)" height="33.9688" rx="12.5" ry="12.5" style="stroke: #A80036; stroke-width: 1.5;" width="160" x="50" y="312"/><text fill="#000000" font-family="sans-serif" font-size="12" lengthAdjust="spacingAndGlyphs" textLength="140" x="60" y="333.1387">Handle decoder result</text><polygon fill="#FEFECE" filter="url(#f1)" points="130,185.7266,142,197.7266,130,209.7266,118,197.7266,130,185.7266" style="stroke: #A80036; stroke-width: 1.5;"/><text fill="#000000" font-family="sans-serif" font-size="11" lengthAdjust="spacingAndGlyphs" textLength="0" x="132" y="219.937"/><text fill="#000000" font-family="sans-serif" font-size="11" lengthAdjust="spacingAndGlyphs" textLength="130" x="65" y="232.7417">[data in receive buffer]</text><text fill="#000000" font-family="sans-serif" font-size="11" lengthAdjust="spacingAndGlyphs" textLength="32" x="86" y="195.1323">[else]</text><polygon fill="#FEFECE" filter="url(#f1)" points="130,70.9531,142,82.9531,130,94.9531,118,82.9531,130,70.9531" style="stroke: #A80036; stroke-width: 1.5;"/><text fill="#000000" font-family="sans-serif" font-size="11" lengthAdjust="spacingAndGlyphs" textLength="0" x="132" y="105.1636"/><text fill="#000000" font-family="sans-serif" font-size="11" lengthAdjust="spacingAndGlyphs" textLength="101" x="79.5" y="117.9683">[connection open]</text><text fill="#000000" font-family="sans-serif" font-size="11" lengthAdjust="spacingAndGlyphs" textLength="32" x="86" y="80.3589">[else]</text><ellipse cx="130" cy="419.9688" fill="#FFFFFF" filter="url(#f1)" rx="10" ry="10" style="stroke: #000000; stroke-width: 1.5;"/><line style="stroke: #000000; stroke-width: 2.5;" x1="123.8128" x2="136.1872" y1="413.7816" y2="426.1559"/><line style="stroke: #000000; stroke-width: 2.5;" x1="136.1872" x2="123.8128" y1="413.7816" y2="426.1559"/><line style="stroke: #A80036; stroke-width: 1.5;" x1="130" x2="130" y1="280.5" y2="312"/><polygon fill="#A80036" points="126,302,130,312,134,302,130,306" style="stroke: #A80036; stroke-width: 1.0;"/><line style="stroke: #A80036; stroke-width: 1.5;" x1="130" x2="130" y1="209.7266" y2="246.5313"/><polygon fill="#A80036" points="126,236.5313,130,246.5313,134,236.5313,130,240.5313" style="stroke: #A80036; stroke-width: 1.0;"/><line style="stroke: #A80036; stroke-width: 1.5;" x1="130" x2="130" y1="345.9688" y2="355.9688"/><line style="stroke: #A80036; stroke-width: 1.5;" x1="130" x2="222" y1="355.9688" y2="355.9688"/><polygon fill="#A80036" points="218,289.5977,222,279.5977,226,289.5977,222,285.5977" style="stroke: #A80036; stroke-width: 1.5;"/><line style="stroke: #A80036; stroke-width: 1.5;" x1="222" x2="222" y1="197.7266" y2="355.9688"/><line style="stroke: #A80036; stroke-width: 1.5;" x1="222" x2="142" y1="197.7266" y2="197.7266"/><polygon fill="#A80036" points="152,193.7266,142,197.7266,152,201.7266,148,197.7266" style="stroke: #A80036; stroke-width: 1.0;"/><line style="stroke: #A80036; stroke-width: 1.5;" x1="118" x2="38" y1="197.7266" y2="197.7266"/><polygon fill="#A80036" points="34,282,38,292,42,282,38,286" style="stroke: #A80036; stroke-width: 1.5;"/><line style="stroke: #A80036; stroke-width: 1.5;" x1="38" x2="38" y1="197.7266" y2="372.9688"/><line style="stroke: #A80036; stroke-width: 1.5;" x1="38" x2="234" y1="372.9688" y2="372.9688"/><line style="stroke: #A80036; stroke-width: 1.5;" x1="234" x2="234" y1="82.9531" y2="372.9688"/><line style="stroke: #A80036; stroke-width: 1.5;" x1="234" x2="142" y1="82.9531" y2="82.9531"/><polygon fill="#A80036" points="152,78.9531,142,82.9531,152,86.9531,148,82.9531" style="stroke: #A80036; stroke-width: 1.0;"/><line style="stroke: #A80036; stroke-width: 1.5;" x1="130" x2="130" y1="165.7266" y2="185.7266"/><polygon fill="#A80036" points="126,175.7266,130,185.7266,134,175.7266,130,179.7266" style="stroke: #A80036; stroke-width: 1.0;"/><line style="stroke: #A80036; stroke-width: 1.5;" x1="130" x2="130" y1="94.9531" y2="131.7578"/><polygon fill="#A80036" points="126,121.7578,130,131.7578,134,121.7578,130,125.7578" style="stroke: #A80036; stroke-width: 1.0;"/><line style="stroke: #A80036; stroke-width: 1.5;" x1="118" x2="14" y1="82.9531" y2="82.9531"/><polygon fill="#A80036" points="10,235.5156,14,245.5156,18,235.5156,14,239.5156" style="stroke: #A80036; stroke-width: 1.5;"/><line style="stroke: #A80036; stroke-width: 1.5;" x1="14" x2="14" y1="82.9531" y2="394.9688"/><line style="stroke: #A80036; stroke-width: 1.5;" x1="14" x2="130" y1="394.9688" y2="394.9688"/><line style="stroke: #A80036; stroke-width: 1.5;" x1="130" x2="130" y1="394.9688" y2="409.9688"/><polygon fill="#A80036" points="126,399.9688,130,409.9688,134,399.9688,130,403.9688" style="stroke: #A80036; stroke-width: 1.0;"/><line style="stroke: #A80036; stroke-width: 1.5;" x1="130" x2="130" y1="50.9531" y2="70.9531"/><polygon fill="#A80036" points="126,60.9531,130,70.9531,134,60.9531,130,64.9531" style="stroke: #A80036; stroke-width: 1.0;"/></g></svg>