<?xml version="1.0" encoding="UTF-8" standalone="no"?><svg xmlns="http://www.w3.org/2000/svg" xmlns:xlink="http://www.w3.org/1999/xlink" contentScriptType="application/ecmascript" contentStyleType="text/css" height="422px" preserveAspectRatio="none" style="width:277px;height:422px;" version="1.1" viewBox="0 0 277 422" width="277px" zoomAndPan="magnify"><defs><filter height="300%" id="f6mqsjl" width="300%" x="-1" y="-1"><feGaussianBlur result="blurOut" stdDeviation="2.0"/><feColorMatrix in="blurOut" result="blurOut2" type="matrix" values="0 0 0 0 0 0 0 0 0 0 0 0 0 0 0 0 0 0 .4 0"/><feOffset dx="4.0" dy="4.0" in="blurOut2" result="blurOut3"/><feBlend in="SourceGraphic" in2="blurOut3" mode="normal"/></filter></defs><g><text fill="#000000" font-family="sans-serif" font-size="18" lengthAdjust="spacingAndGlyphs" textLength="120" x="83" y="26.708">Receive Loop</text><ellipse cx="140" cy="40.9531" fill="#000000" filter="url(#f6mqsjl)" rx="10" ry="10" style="stroke: none; stroke-width: 1.0;"/><rect fill="#FEFECE" filter="url(#f6mqsjl)" height="33.9688" rx="12.5" ry="12.5" style="stroke: #A80036; stroke-width: 1.5;" width="101" x="89.5" y="122.8521"/><text fill="#000000" font-family="sans-serif" font-size="12" lengthAdjust="spacingAndGlyphs" textLength="81" x="99.5" y="143.9907">Receive data</text><rect fill="#FEFECE" filter="url(#f6mqsjl)" height="33.9688" rx="12.5" ry="12.5" style="stroke: #A80036; stroke-width: 1.5;" width="111" x="84.5" y="228.7197"/><text fill="#000000" font-family="sans-serif" font-size="12" lengthAdjust="spacingAndGlyphs" textLength="91" x="94.5" y="249.8584">Invoke decode</text><rect fill="#FEFECE" filter="url(#f6mqsjl)" height="33.9688" rx="12.5" ry="12.5" style="stroke: #A80036; stroke-width: 1.5;" width="160" x="60" y="297.6885"/><text fill="#000000" font-family="sans-serif" font-size="12" lengthAdjust="spacingAndGlyphs" textLength="140" x="70" y="318.8271">Handle decoder result</text><polygon fill="#FEFECE" filter="url(#f6mqsjl)" points="140,180.7197,152,192.7197,140,204.7197,128,192.7197,140,180.7197" style="stroke: #A80036; stroke-width: 1.5;"/><text fill="#000000" font-family="sans-serif" font-size="11" lengthAdjust="spacingAndGlyphs" textLength="0" x="150" y="178.1255"/><text fill="#000000" font-family="sans-serif" font-size="11" lengthAdjust="spacingAndGlyphs" textLength="130" x="146" y="214.9302">[data in receive buffer]</text><text fill="#000000" font-family="sans-serif" font-size="11" lengthAdjust="spacingAndGlyphs" textLength="32" x="96" y="190.1255">[else]</text><polygon fill="#FEFECE" filter="url(#f6mqsjl)" points="140,74.8521,152,86.8521,140,98.8521,128,86.8521,140,74.8521" style="stroke: #A80036; stroke-width: 1.5;"/><text fill="#000000" font-family="sans-serif" font-size="11" lengthAdjust="spacingAndGlyphs" textLength="0" x="150" y="72.2578"/><text fill="#000000" font-family="sans-serif" font-size="11" lengthAdjust="spacingAndGlyphs" textLength="101" x="146" y="109.0625">[connection open]</text><text fill="#000000" font-family="sans-serif" font-size="11" lengthAdjust="spacingAndGlyphs" textLength="32" x="96" y="84.2578">[else]</text><ellipse cx="140" cy="405.6572" fill="#FFFFFF" filter="url(#f6mqsjl)" rx="10" ry="10" style="stroke: #000000; stroke-width: 1.5;"/><line style="stroke: #000000; stroke-width: 2.5;" x1="133.8128" x2="146.1872" y1="399.47" y2="411.8444"/><line style="stroke: #000000; stroke-width: 2.5;" x1="146.1872" x2="133.8128" y1="399.47" y2="411.8444"/><line style="stroke: #A80036; stroke-width: 1.5;" x1="140" x2="140" y1="262.6885" y2="297.6885"/><polygon fill="#A80036" points="136,287.6885,140,297.6885,144,287.6885,140,291.6885" style="stroke: #A80036; stroke-width: 1.0;"/><line style="stroke: #A80036; stroke-width: 1.5;" x1="140" x2="140" y1="204.7197" y2="228.7197"/><polygon fill="#A80036" points="136,218.7197,140,228.7197,144,218.7197,140,222.7197" style="stroke: #A80036; stroke-width: 1.0;"/><line style="stroke: #A80036; stroke-width: 1.5;" x1="140" x2="140" y1="331.6572" y2="341.6572"/><line style="stroke: #A80036; stroke-width: 1.5;" x1="140" x2="232" y1="341.6572" y2="341.6572"/><polygon fill="#A80036" points="228,278.1885,232,268.1885,236,278.1885,232,274.1885" style="stroke: #A80036; stroke-width: 1.5;"/><line style="stroke: #A80036; stroke-width: 1.5;" x1="232" x2="232" y1="192.7197" y2="341.6572"/><line style="stroke: #A80036; stroke-width: 1.5;" x1="232" x2="152" y1="192.7197" y2="192.7197"/><polygon fill="#A80036" points="162,188.7197,152,192.7197,162,196.7197,158,192.7197" style="stroke: #A80036; stroke-width: 1.0;"/><line style="stroke: #A80036; stroke-width: 1.5;" x1="128" x2="48" y1="192.7197" y2="192.7197"/><polygon fill="#A80036" points="44,264.1885,48,274.1885,52,264.1885,48,268.1885" style="stroke: #A80036; stroke-width: 1.5;"/><line style="stroke: #A80036; stroke-width: 1.5;" x1="48" x2="48" y1="192.7197" y2="353.6572"/><line style="stroke: #A80036; stroke-width: 1.5;" x1="48" x2="244" y1="353.6572" y2="353.6572"/><line style="stroke: #A80036; stroke-width: 1.5;" x1="244" x2="244" y1="86.8521" y2="353.6572"/><line style="stroke: #A80036; stroke-width: 1.5;" x1="244" x2="152" y1="86.8521" y2="86.8521"/><polygon fill="#A80036" points="162,82.8521,152,86.8521,162,90.8521,158,86.8521" style="stroke: #A80036; stroke-width: 1.0;"/><line style="stroke: #A80036; stroke-width: 1.5;" x1="140" x2="140" y1="156.8208" y2="180.7197"/><polygon fill="#A80036" points="136,170.7197,140,180.7197,144,170.7197,140,174.7197" style="stroke: #A80036; stroke-width: 1.0;"/><line style="stroke: #A80036; stroke-width: 1.5;" x1="140" x2="140" y1="98.8521" y2="122.8521"/><polygon fill="#A80036" points="136,112.8521,140,122.8521,144,112.8521,140,116.8521" style="stroke: #A80036; stroke-width: 1.0;"/><line style="stroke: #A80036; stroke-width: 1.5;" x1="128" x2="24" y1="86.8521" y2="86.8521"/><polygon fill="#A80036" points="20,211.3018,24,221.3018,28,211.3018,24,215.3018" style="stroke: #A80036; stroke-width: 1.5;"/><line style="stroke: #A80036; stroke-width: 1.5;" x1="24" x2="24" y1="86.8521" y2="375.6572"/><line style="stroke: #A80036; stroke-width: 1.5;" x1="24" x2="140" y1="375.6572" y2="375.6572"/><line style="stroke: #A80036; stroke-width: 1.5;" x1="140" x2="140" y1="375.6572" y2="395.6572"/><polygon fill="#A80036" points="136,385.6572,140,395.6572,144,385.6572,140,389.6572" style="stroke: #A80036; stroke-width: 1.0;"/><line style="stroke: #A80036; stroke-width: 1.5;" x1="140" x2="140" y1="50.9531" y2="74.8521"/><polygon fill="#A80036" points="136,64.8521,140,74.8521,144,64.8521,140,68.8521" style="stroke: #A80036; stroke-width: 1.0;"/></g></svg>