<?xml version="1.0" encoding="UTF-8" standalone="no"?><svg xmlns="http://www.w3.org/2000/svg" xmlns:xlink="http://www.w3.org/1999/xlink" contentScriptType="application/ecmascript" contentStyleType="text/css" height="422px" preserveAspectRatio="none" style="width:270px;height:422px;" version="1.1" viewBox="0 0 270 422" width="270px" zoomAndPan="magnify"><defs><filter height="300%" id="fkdoz3j" width="300%" x="-1" y="-1"><feGaussianBlur result="blurOut" stdDeviation="2.0"/><feColorMatrix in="blurOut" result="blurOut2" type="matrix" values="0 0 0 0 0 0 0 0 0 0 0 0 0 0 0 0 0 0 .4 0"/><feOffset dx="4.0" dy="4.0" in="blurOut2" result="blurOut3"/><feBlend in="SourceGraphic" in2="blurOut3" mode="normal"/></filter></defs><g><text fill="#000000" font-family="sans-serif" font-size="18" lengthAdjust="spacingAndGlyphs" textLength="121" x="79.25" y="26.708">Receive Loop</text><ellipse cx="136.5" cy="40.9531" fill="#000000" filter="url(#fkdoz3j)" rx="10" ry="10" style="stroke: none; stroke-width: 1.0;"/><rect fill="#FEFECE" filter="url(#fkdoz3j)" height="33.9688" rx="12.5" ry="12.5" style="stroke: #A80036; stroke-width: 1.5;" width="97" x="88" y="122.8521"/><text fill="#000000" font-family="sans-serif" font-size="12" lengthAdjust="spacingAndGlyphs" textLength="77" x="98" y="143.9907">Receive data</text><rect fill="#FEFECE" filter="url(#fkdoz3j)" height="33.9688" rx="12.5" ry="12.5" style="stroke: #A80036; stroke-width: 1.5;" width="108" x="82.5" y="228.7197"/><text fill="#000000" font-family="sans-serif" font-size="12" lengthAdjust="spacingAndGlyphs" textLength="88" x="92.5" y="249.8584">Invoke decode</text><rect fill="#FEFECE" filter="url(#fkdoz3j)" height="33.9688" rx="12.5" ry="12.5" style="stroke: #A80036; stroke-width: 1.5;" width="153" x="60" y="297.6885"/><text fill="#000000" font-family="sans-serif" font-size="12" lengthAdjust="spacingAndGlyphs" textLength="133" x="70" y="318.8271">Handle decoder result</text><polygon fill="#FEFECE" filter="url(#fkdoz3j)" points="136.5,180.7197,148.5,192.7197,136.5,204.7197,124.5,192.7197,136.5,180.7197" style="stroke: #A80036; stroke-width: 1.5;"/><text fill="#000000" font-family="sans-serif" font-size="11" lengthAdjust="spacingAndGlyphs" textLength="0" x="146.5" y="178.1255"/><text fill="#000000" font-family="sans-serif" font-size="11" lengthAdjust="spacingAndGlyphs" textLength="127" x="142.5" y="214.9302">[data in receive buffer</text><text fill="#000000" font-family="sans-serif" font-size="11" lengthAdjust="spacingAndGlyphs" textLength="119" x="146.5" y="227.7349">&amp;&amp; connection open]</text><text fill="#000000" font-family="sans-serif" font-size="11" lengthAdjust="spacingAndGlyphs" textLength="31" x="93.5" y="190.1255">[else]</text><polygon fill="#FEFECE" filter="url(#fkdoz3j)" points="136.5,74.8521,148.5,86.8521,136.5,98.8521,124.5,86.8521,136.5,74.8521" style="stroke: #A80036; stroke-width: 1.5;"/><text fill="#000000" font-family="sans-serif" font-size="11" lengthAdjust="spacingAndGlyphs" textLength="0" x="146.5" y="72.2578"/><text fill="#000000" font-family="sans-serif" font-size="11" lengthAdjust="spacingAndGlyphs" textLength="101" x="142.5" y="109.0625">[connection open]</text><text fill="#000000" font-family="sans-serif" font-size="11" lengthAdjust="spacingAndGlyphs" textLength="31" x="93.5" y="84.2578">[else]</text><ellipse cx="136.5" cy="405.6572" fill="#FFFFFF" filter="url(#fkdoz3j)" rx="10" ry="10" style="stroke: #000000; stroke-width: 1.5;"/><line style="stroke: #000000; stroke-width: 2.5;" x1="130.3128" x2="142.6872" y1="399.47" y2="411.8444"/><line style="stroke: #000000; stroke-width: 2.5;" x1="142.6872" x2="130.3128" y1="399.47" y2="411.8444"/><line style="stroke: #A80036; stroke-width: 1.5;" x1="136.5" x2="136.5" y1="262.6885" y2="297.6885"/><polygon fill="#A80036" points="132.5,287.6885,136.5,297.6885,140.5,287.6885,136.5,291.6885" style="stroke: #A80036; stroke-width: 1.0;"/><line style="stroke: #A80036; stroke-width: 1.5;" x1="136.5" x2="136.5" y1="204.7197" y2="228.7197"/><polygon fill="#A80036" points="132.5,218.7197,136.5,228.7197,140.5,218.7197,136.5,222.7197" style="stroke: #A80036; stroke-width: 1.0;"/><line style="stroke: #A80036; stroke-width: 1.5;" x1="136.5" x2="136.5" y1="331.6572" y2="341.6572"/><line style="stroke: #A80036; stroke-width: 1.5;" x1="136.5" x2="225" y1="341.6572" y2="341.6572"/><polygon fill="#A80036" points="221,278.1885,225,268.1885,229,278.1885,225,274.1885" style="stroke: #A80036; stroke-width: 1.5;"/><line style="stroke: #A80036; stroke-width: 1.5;" x1="225" x2="225" y1="192.7197" y2="341.6572"/><line style="stroke: #A80036; stroke-width: 1.5;" x1="225" x2="148.5" y1="192.7197" y2="192.7197"/><polygon fill="#A80036" points="158.5,188.7197,148.5,192.7197,158.5,196.7197,154.5,192.7197" style="stroke: #A80036; stroke-width: 1.0;"/><line style="stroke: #A80036; stroke-width: 1.5;" x1="124.5" x2="48" y1="192.7197" y2="192.7197"/><polygon fill="#A80036" points="44,264.1885,48,274.1885,52,264.1885,48,268.1885" style="stroke: #A80036; stroke-width: 1.5;"/><line style="stroke: #A80036; stroke-width: 1.5;" x1="48" x2="48" y1="192.7197" y2="353.6572"/><line style="stroke: #A80036; stroke-width: 1.5;" x1="48" x2="237" y1="353.6572" y2="353.6572"/><line style="stroke: #A80036; stroke-width: 1.5;" x1="237" x2="237" y1="86.8521" y2="353.6572"/><line style="stroke: #A80036; stroke-width: 1.5;" x1="237" x2="148.5" y1="86.8521" y2="86.8521"/><polygon fill="#A80036" points="158.5,82.8521,148.5,86.8521,158.5,90.8521,154.5,86.8521" style="stroke: #A80036; stroke-width: 1.0;"/><line style="stroke: #A80036; stroke-width: 1.5;" x1="136.5" x2="136.5" y1="156.8208" y2="180.7197"/><polygon fill="#A80036" points="132.5,170.7197,136.5,180.7197,140.5,170.7197,136.5,174.7197" style="stroke: #A80036; stroke-width: 1.0;"/><line style="stroke: #A80036; stroke-width: 1.5;" x1="136.5" x2="136.5" y1="98.8521" y2="122.8521"/><polygon fill="#A80036" points="132.5,112.8521,136.5,122.8521,140.5,112.8521,136.5,116.8521" style="stroke: #A80036; stroke-width: 1.0;"/><line style="stroke: #A80036; stroke-width: 1.5;" x1="124.5" x2="24" y1="86.8521" y2="86.8521"/><polygon fill="#A80036" points="20,211.3018,24,221.3018,28,211.3018,24,215.3018" style="stroke: #A80036; stroke-width: 1.5;"/><line style="stroke: #A80036; stroke-width: 1.5;" x1="24" x2="24" y1="86.8521" y2="375.6572"/><line style="stroke: #A80036; stroke-width: 1.5;" x1="24" x2="136.5" y1="375.6572" y2="375.6572"/><line style="stroke: #A80036; stroke-width: 1.5;" x1="136.5" x2="136.5" y1="375.6572" y2="395.6572"/><polygon fill="#A80036" points="132.5,385.6572,136.5,395.6572,140.5,385.6572,136.5,389.6572" style="stroke: #A80036; stroke-width: 1.0;"/><line style="stroke: #A80036; stroke-width: 1.5;" x1="136.5" x2="136.5" y1="50.9531" y2="74.8521"/><polygon fill="#A80036" points="132.5,64.8521,136.5,74.8521,140.5,64.8521,136.5,68.8521" style="stroke: #A80036; stroke-width: 1.0;"/></g></svg>