<?xml version="1.0" encoding="UTF-8" standalone="no"?><svg xmlns="http://www.w3.org/2000/svg" xmlns:xlink="http://www.w3.org/1999/xlink" contentScriptType="application/ecmascript" contentStyleType="text/css" height="211px" preserveAspectRatio="none" style="width:407px;height:211px;" version="1.1" viewBox="0 0 407 211" width="407px" zoomAndPan="magnify"><defs><filter height="300%" id="fp8sj9g" width="300%" x="-1" y="-1"><feGaussianBlur result="blurOut" stdDeviation="2.0"/><feColorMatrix in="blurOut" result="blurOut2" type="matrix" values="0 0 0 0 0 0 0 0 0 0 0 0 0 0 0 0 0 0 .4 0"/><feOffset dx="4.0" dy="4.0" in="blurOut2" result="blurOut3"/><feBlend in="SourceGraphic" in2="blurOut3" mode="normal"/></filter></defs><g><!--class HttpResponseEncoder::Result--><rect fill="#FEFECE" filter="url(#fp8sj9g)" height="48" style="stroke: #A80036; stroke-width: 1.5;" width="211" x="84.5" y="154"/><ellipse cx="99.5" cy="170" fill="#ADD1B2" rx="11" ry="11" style="stroke: #A80036; stroke-width: 1.0;"/><path d="M102.4688,175.6406 Q101.8906,175.9375 101.25,176.0859 Q100.6094,176.2344 99.9063,176.2344 Q97.4063,176.2344 96.0859,174.5859 Q94.7656,172.9375 94.7656,169.8125 Q94.7656,166.6875 96.0859,165.0313 Q97.4063,163.375 99.9063,163.375 Q100.6094,163.375 101.2578,163.5313 Q101.9063,163.6875 102.4688,163.9844 L102.4688,166.7031 Q101.8438,166.125 101.25,165.8516 Q100.6563,165.5781 100.0313,165.5781 Q98.6875,165.5781 98,166.6484 Q97.3125,167.7188 97.3125,169.8125 Q97.3125,171.9063 98,172.9766 Q98.6875,174.0469 100.0313,174.0469 Q100.6563,174.0469 101.25,173.7734 Q101.8438,173.5 102.4688,172.9219 L102.4688,175.6406 Z "/><text fill="#000000" font-family="sans-serif" font-size="12" lengthAdjust="spacingAndGlyphs" textLength="179" x="113.5" y="174.1543">HttpResponseEncoder::Result</text><line style="stroke: #A80036; stroke-width: 1.5;" x1="85.5" x2="294.5" y1="186" y2="186"/><line style="stroke: #A80036; stroke-width: 1.5;" x1="85.5" x2="294.5" y1="194" y2="194"/><!--class HttpEncoder::Result--><rect fill="#FEFECE" filter="url(#fp8sj9g)" height="48" style="stroke: #A80036; stroke-width: 1.5;" width="154" x="6" y="27"/><ellipse cx="21" cy="43" fill="#ADD1B2" rx="11" ry="11" style="stroke: #A80036; stroke-width: 1.0;"/><path d="M23.9688,48.6406 Q23.3906,48.9375 22.75,49.0859 Q22.1094,49.2344 21.4063,49.2344 Q18.9063,49.2344 17.5859,47.5859 Q16.2656,45.9375 16.2656,42.8125 Q16.2656,39.6875 17.5859,38.0313 Q18.9063,36.375 21.4063,36.375 Q22.1094,36.375 22.7578,36.5313 Q23.4063,36.6875 23.9688,36.9844 L23.9688,39.7031 Q23.3438,39.125 22.75,38.8516 Q22.1563,38.5781 21.5313,38.5781 Q20.1875,38.5781 19.5,39.6484 Q18.8125,40.7188 18.8125,42.8125 Q18.8125,44.9063 19.5,45.9766 Q20.1875,47.0469 21.5313,47.0469 Q22.1563,47.0469 22.75,46.7734 Q23.3438,46.5 23.9688,45.9219 L23.9688,48.6406 Z "/><text fill="#000000" font-family="sans-serif" font-size="12" lengthAdjust="spacingAndGlyphs" textLength="122" x="35" y="47.1543">HttpEncoder::Result</text><line style="stroke: #A80036; stroke-width: 1.5;" x1="7" x2="159" y1="59" y2="59"/><line style="stroke: #A80036; stroke-width: 1.5;" x1="7" x2="159" y1="67" y2="67"/><!--class Codec::ProtocolSwitchResult--><rect fill="#FEFECE" filter="url(#fp8sj9g)" height="86.4141" style="stroke: #A80036; stroke-width: 1.5;" width="203" x="195.5" y="8"/><ellipse cx="210.5" cy="24" fill="#B4A7E5" rx="11" ry="11" style="stroke: #A80036; stroke-width: 1.0;"/><path d="M206.9219,19.7656 L206.9219,17.6094 L214.3125,17.6094 L214.3125,19.7656 L211.8438,19.7656 L211.8438,27.8438 L214.3125,27.8438 L214.3125,30 L206.9219,30 L206.9219,27.8438 L209.3906,27.8438 L209.3906,19.7656 L206.9219,19.7656 Z "/><text fill="#000000" font-family="sans-serif" font-size="12" font-style="italic" lengthAdjust="spacingAndGlyphs" textLength="171" x="224.5" y="28.1543">Codec::ProtocolSwitchResult</text><line style="stroke: #A80036; stroke-width: 1.5;" x1="196.5" x2="397.5" y1="40" y2="40"/><line style="stroke: #A80036; stroke-width: 1.5;" x1="196.5" x2="397.5" y1="48" y2="48"/><text fill="#000000" font-family="sans-serif" font-size="11" lengthAdjust="spacingAndGlyphs" textLength="122" x="201.5" y="62.2104">newProtocol() : String</text><text fill="#000000" font-family="sans-serif" font-size="11" lengthAdjust="spacingAndGlyphs" textLength="159" x="201.5" y="75.0151">newEncoder() : Encoder&lt;?&gt;</text><text fill="#000000" font-family="sans-serif" font-size="11" lengthAdjust="spacingAndGlyphs" textLength="175" x="201.5" y="87.8198">newDecoder() : Decoder&lt;?, ?&gt;</text><path d="M116.4843,90.743 C133.9303,111.45 154.6943,136.0951 169.6981,153.9034 " fill="none" style="stroke: #A80036; stroke-width: 1.0;"/><polygon fill="none" points="110.9109,94.992,103.3777,75.1867,121.6175,85.9715,110.9109,94.992" style="stroke: #A80036; stroke-width: 1.0;"/><path d="M247.1896,110.1208 C234.2155,125.5199 220.9507,141.2642 210.4665,153.7079 " fill="none" style="stroke: #A80036; stroke-width: 1.0; stroke-dasharray: 7.0,7.0;"/><polygon fill="none" points="242.2362,105.1359,260.4759,94.351,252.9428,114.1564,242.2362,105.1359" style="stroke: #A80036; stroke-width: 1.0;"/></g></svg>