<?xml version="1.0" encoding="UTF-8" standalone="no"?><svg xmlns="http://www.w3.org/2000/svg" xmlns:xlink="http://www.w3.org/1999/xlink" contentScriptType="application/ecmascript" contentStyleType="text/css" height="211px" preserveAspectRatio="none" style="width:417px;height:211px;" version="1.1" viewBox="0 0 417 211" width="417px" zoomAndPan="magnify"><defs><filter height="300%" id="fi06koc" width="300%" x="-1" y="-1"><feGaussianBlur result="blurOut" stdDeviation="2.0"/><feColorMatrix in="blurOut" result="blurOut2" type="matrix" values="0 0 0 0 0 0 0 0 0 0 0 0 0 0 0 0 0 0 .4 0"/><feOffset dx="4.0" dy="4.0" in="blurOut2" result="blurOut3"/><feBlend in="SourceGraphic" in2="blurOut3" mode="normal"/></filter></defs><g><!--class HttpResponseEncoder::Result--><rect fill="#FEFECE" filter="url(#fi06koc)" height="48" style="stroke: #A80036; stroke-width: 1.5;" width="220" x="84" y="154"/><ellipse cx="99" cy="170" fill="#ADD1B2" rx="11" ry="11" style="stroke: #A80036; stroke-width: 1.0;"/><path d="M101.9688,175.6406 Q101.3906,175.9375 100.75,176.0859 Q100.1094,176.2344 99.4063,176.2344 Q96.9063,176.2344 95.5859,174.5859 Q94.2656,172.9375 94.2656,169.8125 Q94.2656,166.6875 95.5859,165.0313 Q96.9063,163.375 99.4063,163.375 Q100.1094,163.375 100.7578,163.5313 Q101.4063,163.6875 101.9688,163.9844 L101.9688,166.7031 Q101.3438,166.125 100.75,165.8516 Q100.1563,165.5781 99.5313,165.5781 Q98.1875,165.5781 97.5,166.6484 Q96.8125,167.7188 96.8125,169.8125 Q96.8125,171.9063 97.5,172.9766 Q98.1875,174.0469 99.5313,174.0469 Q100.1563,174.0469 100.75,173.7734 Q101.3438,173.5 101.9688,172.9219 L101.9688,175.6406 Z "/><text fill="#000000" font-family="sans-serif" font-size="12" lengthAdjust="spacingAndGlyphs" textLength="188" x="113" y="174.1543">HttpResponseEncoder::Result</text><line style="stroke: #A80036; stroke-width: 1.5;" x1="85" x2="303" y1="186" y2="186"/><line style="stroke: #A80036; stroke-width: 1.5;" x1="85" x2="303" y1="194" y2="194"/><!--class HttpEncoder::Result--><rect fill="#FEFECE" filter="url(#fi06koc)" height="48" style="stroke: #A80036; stroke-width: 1.5;" width="158" x="6" y="27"/><ellipse cx="21" cy="43" fill="#ADD1B2" rx="11" ry="11" style="stroke: #A80036; stroke-width: 1.0;"/><path d="M23.9688,48.6406 Q23.3906,48.9375 22.75,49.0859 Q22.1094,49.2344 21.4063,49.2344 Q18.9063,49.2344 17.5859,47.5859 Q16.2656,45.9375 16.2656,42.8125 Q16.2656,39.6875 17.5859,38.0313 Q18.9063,36.375 21.4063,36.375 Q22.1094,36.375 22.7578,36.5313 Q23.4063,36.6875 23.9688,36.9844 L23.9688,39.7031 Q23.3438,39.125 22.75,38.8516 Q22.1563,38.5781 21.5313,38.5781 Q20.1875,38.5781 19.5,39.6484 Q18.8125,40.7188 18.8125,42.8125 Q18.8125,44.9063 19.5,45.9766 Q20.1875,47.0469 21.5313,47.0469 Q22.1563,47.0469 22.75,46.7734 Q23.3438,46.5 23.9688,45.9219 L23.9688,48.6406 Z "/><text fill="#000000" font-family="sans-serif" font-size="12" lengthAdjust="spacingAndGlyphs" textLength="126" x="35" y="47.1543">HttpEncoder::Result</text><line style="stroke: #A80036; stroke-width: 1.5;" x1="7" x2="163" y1="59" y2="59"/><line style="stroke: #A80036; stroke-width: 1.5;" x1="7" x2="163" y1="67" y2="67"/><!--class Codec::ProtocolSwitchResult--><rect fill="#FEFECE" filter="url(#fi06koc)" height="86.4141" style="stroke: #A80036; stroke-width: 1.5;" width="209" x="199.5" y="8"/><ellipse cx="214.5" cy="24" fill="#B4A7E5" rx="11" ry="11" style="stroke: #A80036; stroke-width: 1.0;"/><path d="M210.4219,19.7656 L210.4219,17.6094 L217.8125,17.6094 L217.8125,19.7656 L215.3438,19.7656 L215.3438,27.8438 L217.8125,27.8438 L217.8125,30 L210.4219,30 L210.4219,27.8438 L212.8906,27.8438 L212.8906,19.7656 L210.4219,19.7656 Z "/><text fill="#000000" font-family="sans-serif" font-size="12" font-style="italic" lengthAdjust="spacingAndGlyphs" textLength="177" x="228.5" y="28.1543">Codec::ProtocolSwitchResult</text><line style="stroke: #A80036; stroke-width: 1.5;" x1="200.5" x2="407.5" y1="40" y2="40"/><line style="stroke: #A80036; stroke-width: 1.5;" x1="200.5" x2="407.5" y1="48" y2="48"/><text fill="#000000" font-family="sans-serif" font-size="11" lengthAdjust="spacingAndGlyphs" textLength="123" x="205.5" y="62.2104">newProtocol() : String</text><text fill="#000000" font-family="sans-serif" font-size="11" lengthAdjust="spacingAndGlyphs" textLength="159" x="205.5" y="75.0151">newEncoder() : Encoder&lt;?&gt;</text><text fill="#000000" font-family="sans-serif" font-size="11" lengthAdjust="spacingAndGlyphs" textLength="175" x="205.5" y="87.8198">newDecoder() : Decoder&lt;?, ?&gt;</text><path d="M118.8465,90.4358 C136.6727,111.2058 157.9587,136.0069 173.3187,153.9034 " fill="none" style="stroke: #A80036; stroke-width: 1.0;"/><polygon fill="none" points="113.4725,94.9224,105.7586,75.1867,124.0962,85.8044,113.4725,94.9224" style="stroke: #A80036; stroke-width: 1.0;"/><path d="M253.2141,109.6346 C239.7426,125.1881 225.9319,141.1332 215.0404,153.7079 " fill="none" style="stroke: #A80036; stroke-width: 1.0; stroke-dasharray: 7.0,7.0;"/><polygon fill="none" points="248.0666,104.8858,266.4519,94.351,258.649,114.0517,248.0666,104.8858" style="stroke: #A80036; stroke-width: 1.0;"/></g></svg>