<?xml version="1.0" encoding="UTF-8" standalone="no"?><svg xmlns="http://www.w3.org/2000/svg" xmlns:xlink="http://www.w3.org/1999/xlink" contentScriptType="application/ecmascript" contentStyleType="text/css" height="253px" preserveAspectRatio="none" style="width:222px;height:253px;background:#FFFFFF;" version="1.1" viewBox="0 0 222 253" width="222px" zoomAndPan="magnify"><defs><filter height="300%" id="ffx6hh3rf49dd" width="300%" x="-1" y="-1"><feGaussianBlur result="blurOut" stdDeviation="2.0"/><feColorMatrix in="blurOut" result="blurOut2" type="matrix" values="0 0 0 0 0 0 0 0 0 0 0 0 0 0 0 0 0 0 .4 0"/><feOffset dx="4.0" dy="4.0" in="blurOut2" result="blurOut3"/><feBlend in="SourceGraphic" in2="blurOut3" mode="normal"/></filter></defs><g><!--MD5=[4cf963b6536c9cf711d13d21b07eb4da]
class Codec::Result--><rect codeLine="2" fill="#FEFECE" filter="url(#ffx6hh3rf49dd)" height="86.4141" id="Codec::Result" style="stroke:#A80036;stroke-width:1.5;" width="179" x="18" y="7"/><ellipse cx="60.45" cy="23" fill="#ADD1B2" rx="11" ry="11" style="stroke:#A80036;stroke-width:1.0;"/><path d="M63.4188,28.6406 Q62.8406,28.9375 62.2,29.0781 Q61.5594,29.2344 60.8563,29.2344 Q58.3563,29.2344 57.0281,27.5938 Q55.7156,25.9375 55.7156,22.8125 Q55.7156,19.6875 57.0281,18.0313 Q58.3563,16.375 60.8563,16.375 Q61.5594,16.375 62.2,16.5313 Q62.8563,16.6875 63.4188,16.9844 L63.4188,19.7031 Q62.7938,19.125 62.2,18.8594 Q61.6063,18.5781 60.9813,18.5781 Q59.6375,18.5781 58.95,19.6563 Q58.2625,20.7188 58.2625,22.8125 Q58.2625,24.9063 58.95,25.9844 Q59.6375,27.0469 60.9813,27.0469 Q61.6063,27.0469 62.2,26.7813 Q62.7938,26.5 63.4188,25.9219 L63.4188,28.6406 Z " fill="#000000"/><text fill="#000000" font-family="sans-serif" font-size="12" lengthAdjust="spacing" textLength="86" x="80.55" y="27.1543">Codec::Result</text><line style="stroke:#A80036;stroke-width:1.5;" x1="19" x2="196" y1="39" y2="39"/><line style="stroke:#A80036;stroke-width:1.5;" x1="19" x2="196" y1="47" y2="47"/><ellipse cx="29" cy="58" fill="#84BE84" rx="3" ry="3" style="stroke:#038048;stroke-width:1.0;"/><text fill="#000000" font-family="sans-serif" font-size="11" lengthAdjust="spacing" textLength="120" x="38" y="61.2104">isOverflow(): boolean</text><ellipse cx="29" cy="70.8047" fill="#84BE84" rx="3" ry="3" style="stroke:#038048;stroke-width:1.0;"/><text fill="#000000" font-family="sans-serif" font-size="11" lengthAdjust="spacing" textLength="127" x="38" y="74.0151">isUnderflow(): boolean</text><ellipse cx="29" cy="83.6094" fill="#84BE84" rx="3" ry="3" style="stroke:#038048;stroke-width:1.0;"/><text fill="#000000" font-family="sans-serif" font-size="11" lengthAdjust="spacing" textLength="153" x="38" y="86.8198">closeConnection(): boolean</text><!--MD5=[f43cfe1c16ab3567b90f1a22bb3ecd5c]
class Decoder::Result--><rect codeLine="8" fill="#FEFECE" filter="url(#ffx6hh3rf49dd)" height="86.4141" id="Decoder::Result" style="stroke:#A80036;stroke-width:1.5;" width="201" x="7" y="153"/><ellipse cx="53.25" cy="169" fill="#ADD1B2" rx="11" ry="11" style="stroke:#A80036;stroke-width:1.0;"/><path d="M56.2188,174.6406 Q55.6406,174.9375 55,175.0781 Q54.3594,175.2344 53.6563,175.2344 Q51.1563,175.2344 49.8281,173.5938 Q48.5156,171.9375 48.5156,168.8125 Q48.5156,165.6875 49.8281,164.0313 Q51.1563,162.375 53.6563,162.375 Q54.3594,162.375 55,162.5313 Q55.6563,162.6875 56.2188,162.9844 L56.2188,165.7031 Q55.5938,165.125 55,164.8594 Q54.4063,164.5781 53.7813,164.5781 Q52.4375,164.5781 51.75,165.6563 Q51.0625,166.7188 51.0625,168.8125 Q51.0625,170.9063 51.75,171.9844 Q52.4375,173.0469 53.7813,173.0469 Q54.4063,173.0469 55,172.7813 Q55.5938,172.5 56.2188,171.9219 L56.2188,174.6406 Z " fill="#000000"/><text fill="#000000" font-family="sans-serif" font-size="12" lengthAdjust="spacing" textLength="100" x="73.75" y="173.1543">Decoder::Result</text><line style="stroke:#A80036;stroke-width:1.5;" x1="8" x2="207" y1="185" y2="185"/><line style="stroke:#A80036;stroke-width:1.5;" x1="8" x2="207" y1="193" y2="193"/><ellipse cx="18" cy="204" fill="#84BE84" rx="3" ry="3" style="stroke:#038048;stroke-width:1.0;"/><text fill="#000000" font-family="sans-serif" font-size="11" lengthAdjust="spacing" textLength="175" x="27" y="207.2104">isHeaderCompleted() : boolean</text><ellipse cx="18" cy="216.8047" fill="#84BE84" rx="3" ry="3" style="stroke:#038048;stroke-width:1.0;"/><text fill="#000000" font-family="sans-serif" font-size="11" lengthAdjust="spacing" textLength="119" x="27" y="220.0151">response() : Optional</text><ellipse cx="18" cy="229.6094" fill="#84BE84" rx="3" ry="3" style="stroke:#038048;stroke-width:1.0;"/><text fill="#000000" font-family="sans-serif" font-size="11" lengthAdjust="spacing" textLength="147" x="27" y="232.8198">boolean isResponseOnly()</text><!--MD5=[998d41f10670e54cb576d9748d063a33]
reverse link Codec::Result to Decoder::Result--><path codeLine="14" d="M107.5,113.29 C107.5,126.58 107.5,140.33 107.5,152.66 " fill="none" id="Codec::Result-backto-Decoder::Result" style="stroke:#A80036;stroke-width:1.0;"/><polygon fill="none" points="100.5,113.04,107.5,93.04,114.5,113.04,100.5,113.04" style="stroke:#A80036;stroke-width:1.0;"/><!--MD5=[2ca94aa9a5026dbbf24ccd0932146f15]
@startuml
' ========== Result Hierarchy =========
 class Codec::Result {
     +isOverflow(): boolean
     +isUnderflow(): boolean
     +closeConnection(): boolean
 }
 
 class Decoder::Result {
     +isHeaderCompleted() : boolean
     +response() : Optional
     +boolean isResponseOnly()
 }
 
 Codec::Result <|- - Decoder::Result
@enduml

@startuml
 class Codec::Result {
     +isOverflow(): boolean
     +isUnderflow(): boolean
     +closeConnection(): boolean
 }
 
 class Decoder::Result {
     +isHeaderCompleted() : boolean
     +response() : Optional
     +boolean isResponseOnly()
 }
 
 Codec::Result <|- - Decoder::Result
@enduml

PlantUML version 1.2022.1(Tue Feb 01 19:19:58 CET 2022)
(GPL source distribution)
Java Runtime: Java(TM) SE Runtime Environment
JVM: Java HotSpot(TM) 64-Bit Server VM
Default Encoding: UTF-8
Language: de
Country: DE
--></g></svg>