<?xml version="1.0" encoding="UTF-8" standalone="no"?><svg xmlns="http://www.w3.org/2000/svg" xmlns:xlink="http://www.w3.org/1999/xlink" contentScriptType="application/ecmascript" contentStyleType="text/css" height="202px" preserveAspectRatio="none" style="width:428px;height:202px;background:#FFFFFF;" version="1.1" viewBox="0 0 428 202" width="428px" zoomAndPan="magnify"><defs><filter height="300%" id="fkw3rvc61qgus" width="300%" x="-1" y="-1"><feGaussianBlur result="blurOut" stdDeviation="2.0"/><feColorMatrix in="blurOut" result="blurOut2" type="matrix" values="0 0 0 0 0 0 0 0 0 0 0 0 0 0 0 0 0 0 .4 0"/><feOffset dx="4.0" dy="4.0" in="blurOut2" result="blurOut3"/><feBlend in="SourceGraphic" in2="blurOut3" mode="normal"/></filter></defs><g><!--MD5=[59c77a504eba5b642215a383ec5594bf]
class Decoder--><rect codeLine="2" fill="#FEFECE" filter="url(#fkw3rvc61qgus)" height="73.6094" id="Decoder" style="stroke:#A80036;stroke-width:1.5;" width="407" x="7" y="115"/><ellipse cx="22" cy="131" fill="#B4A7E5" rx="11" ry="11" style="stroke:#A80036;stroke-width:1.0;"/><path d="M17.9219,126.7656 L17.9219,124.6094 L25.3125,124.6094 L25.3125,126.7656 L22.8438,126.7656 L22.8438,134.8438 L25.3125,134.8438 L25.3125,137 L17.9219,137 L17.9219,134.8438 L20.3906,134.8438 L20.3906,126.7656 L17.9219,126.7656 Z " fill="#000000"/><text fill="#000000" font-family="sans-serif" font-size="12" font-style="italic" lengthAdjust="spacing" textLength="50" x="36" y="135.1543">Decoder</text><rect fill="#FFFFFF" height="15.9688" style="stroke:#000000;stroke-width:1.0;stroke-dasharray:2.0,2.0;" width="323" x="94" y="112"/><text fill="#000000" font-family="sans-serif" font-size="12" font-style="italic" lengthAdjust="spacing" textLength="321" x="95" y="124.1387">T extends MessageHeader, R extends MessageHeader</text><line style="stroke:#A80036;stroke-width:1.5;" x1="8" x2="413" y1="147" y2="147"/><line style="stroke:#A80036;stroke-width:1.5;" x1="8" x2="413" y1="155" y2="155"/><text fill="#000000" font-family="sans-serif" font-size="11" lengthAdjust="spacing" textLength="340" x="13" y="169.2104">Result decode(ByteBuffer in, Buffer out, boolean endOfInput)</text><text fill="#000000" font-family="sans-serif" font-size="11" lengthAdjust="spacing" textLength="98" x="13" y="182.0151">Optional header()</text><!--MD5=[19bab21d94a99911073f24de8dec88db]
class Codec--><rect codeLine="6" fill="#FEFECE" filter="url(#fkw3rvc61qgus)" height="48" id="Codec" style="stroke:#A80036;stroke-width:1.5;" width="69" x="176" y="7"/><ellipse cx="191" cy="23" fill="#B4A7E5" rx="11" ry="11" style="stroke:#A80036;stroke-width:1.0;"/><path d="M186.9219,18.7656 L186.9219,16.6094 L194.3125,16.6094 L194.3125,18.7656 L191.8438,18.7656 L191.8438,26.8438 L194.3125,26.8438 L194.3125,29 L186.9219,29 L186.9219,26.8438 L189.3906,26.8438 L189.3906,18.7656 L186.9219,18.7656 Z " fill="#000000"/><text fill="#000000" font-family="sans-serif" font-size="12" font-style="italic" lengthAdjust="spacing" textLength="37" x="205" y="27.1543">Codec</text><line style="stroke:#A80036;stroke-width:1.5;" x1="177" x2="244" y1="39" y2="39"/><line style="stroke:#A80036;stroke-width:1.5;" x1="177" x2="244" y1="47" y2="47"/><!--MD5=[402a836abcce07a537983540e72f1412]
reverse link Codec to Decoder--><path codeLine="8" d="M210.5,75.43 C210.5,88.33 210.5,102.32 210.5,114.71 " fill="none" id="Codec-backto-Decoder" style="stroke:#A80036;stroke-width:1.0;"/><polygon fill="none" points="203.5,75.23,210.5,55.23,217.5,75.23,203.5,75.23" style="stroke:#A80036;stroke-width:1.0;"/><!--MD5=[c1aa1ef3b73a39062242d3db47c1d247]
@startuml
' ========== Decoder Hierarchy =========
 interface Decoder<T extends MessageHeader, R extends MessageHeader> {
     Result decode(ByteBuffer in, Buffer out, boolean endOfInput)
     Optional header()
 }
 interface Codec {
 }
 Codec <|- - Decoder
@enduml

@startuml
 interface Decoder<T extends MessageHeader, R extends MessageHeader> {
     Result decode(ByteBuffer in, Buffer out, boolean endOfInput)
     Optional header()
 }
 interface Codec {
 }
 Codec <|- - Decoder
@enduml

PlantUML version 1.2022.1(Tue Feb 01 19:19:58 CET 2022)
(GPL source distribution)
Java Runtime: Java(TM) SE Runtime Environment
JVM: Java HotSpot(TM) 64-Bit Server VM
Default Encoding: UTF-8
Language: de
Country: DE
--></g></svg>