<?xml version="1.0" encoding="UTF-8" standalone="no"?><svg xmlns="http://www.w3.org/2000/svg" xmlns:xlink="http://www.w3.org/1999/xlink" contentScriptType="application/ecmascript" contentStyleType="text/css" height="215px" preserveAspectRatio="none" style="width:373px;height:215px;background:#FFFFFF;" version="1.1" viewBox="0 0 373 215" width="373px" zoomAndPan="magnify"><defs><filter height="300%" id="fpmjgk7rl3pvg" width="300%" x="-1" y="-1"><feGaussianBlur result="blurOut" stdDeviation="2.0"/><feColorMatrix in="blurOut" result="blurOut2" type="matrix" values="0 0 0 0 0 0 0 0 0 0 0 0 0 0 0 0 0 0 .4 0"/><feOffset dx="4.0" dy="4.0" in="blurOut2" result="blurOut3"/><feBlend in="SourceGraphic" in2="blurOut3" mode="normal"/></filter></defs><g><!--MD5=[a6c6c764ef525f81bbc9f42f79e225a1]
class Encoder--><rect codeLine="2" fill="#FEFECE" filter="url(#fpmjgk7rl3pvg)" height="86.4141" id="Encoder" style="stroke:#A80036;stroke-width:1.5;" width="352" x="7" y="115"/><ellipse cx="154.25" cy="131" fill="#B4A7E5" rx="11" ry="11" style="stroke:#A80036;stroke-width:1.0;"/><path d="M150.1719,126.7656 L150.1719,124.6094 L157.5625,124.6094 L157.5625,126.7656 L155.0938,126.7656 L155.0938,134.8438 L157.5625,134.8438 L157.5625,137 L150.1719,137 L150.1719,134.8438 L152.6406,134.8438 L152.6406,126.7656 L150.1719,126.7656 Z " fill="#000000"/><text fill="#000000" font-family="sans-serif" font-size="12" font-style="italic" lengthAdjust="spacing" textLength="49" x="174.75" y="135.1543">Encoder</text><line style="stroke:#A80036;stroke-width:1.5;" x1="8" x2="358" y1="147" y2="147"/><line style="stroke:#A80036;stroke-width:1.5;" x1="8" x2="358" y1="155" y2="155"/><text fill="#000000" font-family="sans-serif" font-size="11" lengthAdjust="spacing" textLength="179" x="13" y="169.2104">void encode(T messageHeader)</text><text fill="#000000" font-family="sans-serif" font-size="11" lengthAdjust="spacing" textLength="340" x="13" y="182.0151">Result encode(Buffer in, ByteBuffer out, boolean endOfInput)</text><text fill="#000000" font-family="sans-serif" font-size="11" lengthAdjust="spacing" textLength="168" x="13" y="194.8198">Result encode(ByteBuffer out)</text><!--MD5=[19bab21d94a99911073f24de8dec88db]
class Codec--><rect codeLine="7" fill="#FEFECE" filter="url(#fpmjgk7rl3pvg)" height="48" id="Codec" style="stroke:#A80036;stroke-width:1.5;" width="69" x="148.5" y="7"/><ellipse cx="163.5" cy="23" fill="#B4A7E5" rx="11" ry="11" style="stroke:#A80036;stroke-width:1.0;"/><path d="M159.4219,18.7656 L159.4219,16.6094 L166.8125,16.6094 L166.8125,18.7656 L164.3438,18.7656 L164.3438,26.8438 L166.8125,26.8438 L166.8125,29 L159.4219,29 L159.4219,26.8438 L161.8906,26.8438 L161.8906,18.7656 L159.4219,18.7656 Z " fill="#000000"/><text fill="#000000" font-family="sans-serif" font-size="12" font-style="italic" lengthAdjust="spacing" textLength="37" x="177.5" y="27.1543">Codec</text><line style="stroke:#A80036;stroke-width:1.5;" x1="149.5" x2="216.5" y1="39" y2="39"/><line style="stroke:#A80036;stroke-width:1.5;" x1="149.5" x2="216.5" y1="47" y2="47"/><!--MD5=[3a8b3b4b86f9c006e2d3353d08398fba]
reverse link Codec to Encoder--><path codeLine="9" d="M183,75.27 C183,88.12 183,102.17 183,114.94 " fill="none" id="Codec-backto-Encoder" style="stroke:#A80036;stroke-width:1.0;"/><polygon fill="none" points="176,75.22,183,55.22,190,75.22,176,75.22" style="stroke:#A80036;stroke-width:1.0;"/><!--MD5=[a6e09b58f4175a8f62ff8aee3347f136]
@startuml
' ========== Encoder Hierarchy =========
 interface Encoder {
     void encode(T messageHeader)
     Result encode(Buffer in, ByteBuffer out, boolean endOfInput)
     Result encode(ByteBuffer out)
 }
 interface Codec {
 }
 Codec <|- - Encoder
@enduml

@startuml
 interface Encoder {
     void encode(T messageHeader)
     Result encode(Buffer in, ByteBuffer out, boolean endOfInput)
     Result encode(ByteBuffer out)
 }
 interface Codec {
 }
 Codec <|- - Encoder
@enduml

PlantUML version 1.2022.1(Tue Feb 01 19:19:58 CET 2022)
(GPL source distribution)
Java Runtime: OpenJDK Runtime Environment
JVM: OpenJDK 64-Bit Server VM
Default Encoding: UTF-8
Language: de
Country: DE
--></g></svg>