<?xml version="1.0" encoding="UTF-8" standalone="no"?><svg xmlns="http://www.w3.org/2000/svg" xmlns:xlink="http://www.w3.org/1999/xlink" contentScriptType="application/ecmascript" contentStyleType="text/css" height="361px" preserveAspectRatio="none" style="width:509px;height:361px;background:#FFFFFF;" version="1.1" viewBox="0 0 509 361" width="509px" zoomAndPan="magnify"><defs><filter height="300%" id="fm84ptmgfnuyl" width="300%" x="-1" y="-1"><feGaussianBlur result="blurOut" stdDeviation="2.0"/><feColorMatrix in="blurOut" result="blurOut2" type="matrix" values="0 0 0 0 0 0 0 0 0 0 0 0 0 0 0 0 0 0 .4 0"/><feOffset dx="4.0" dy="4.0" in="blurOut2" result="blurOut3"/><feBlend in="SourceGraphic" in2="blurOut3" mode="normal"/></filter></defs><g><!--MD5=[19bab21d94a99911073f24de8dec88db]
class Codec--><rect codeLine="2" fill="#FEFECE" filter="url(#fm84ptmgfnuyl)" height="48" id="Codec" style="stroke:#A80036;stroke-width:1.5;" width="69" x="216.5" y="7"/><ellipse cx="231.5" cy="23" fill="#B4A7E5" rx="11" ry="11" style="stroke:#A80036;stroke-width:1.0;"/><path d="M227.4219,18.7656 L227.4219,16.6094 L234.8125,16.6094 L234.8125,18.7656 L232.3438,18.7656 L232.3438,26.8438 L234.8125,26.8438 L234.8125,29 L227.4219,29 L227.4219,26.8438 L229.8906,26.8438 L229.8906,18.7656 L227.4219,18.7656 Z " fill="#000000"/><text fill="#000000" font-family="sans-serif" font-size="12" font-style="italic" lengthAdjust="spacing" textLength="37" x="245.5" y="27.1543">Codec</text><line style="stroke:#A80036;stroke-width:1.5;" x1="217.5" x2="284.5" y1="39" y2="39"/><line style="stroke:#A80036;stroke-width:1.5;" x1="217.5" x2="284.5" y1="47" y2="47"/><!--MD5=[72942ab806530e19acf83f3d00872943]
class HttpCodec--><rect codeLine="5" fill="#FEFECE" filter="url(#fm84ptmgfnuyl)" height="48" id="HttpCodec" style="stroke:#A80036;stroke-width:1.5;" width="96" x="134" y="115"/><ellipse cx="149" cy="131" fill="#A9DCDF" rx="11" ry="11" style="stroke:#A80036;stroke-width:1.0;"/><path d="M149.1094,126.3438 L147.9531,131.4219 L150.2813,131.4219 L149.1094,126.3438 Z M147.625,124.1094 L150.6094,124.1094 L153.9688,136.5 L151.5156,136.5 L150.75,133.4375 L147.4688,133.4375 L146.7188,136.5 L144.2813,136.5 L147.625,124.1094 Z " fill="#000000"/><text fill="#000000" font-family="sans-serif" font-size="12" font-style="italic" lengthAdjust="spacing" textLength="64" x="163" y="135.1543">HttpCodec</text><line style="stroke:#A80036;stroke-width:1.5;" x1="135" x2="229" y1="147" y2="147"/><line style="stroke:#A80036;stroke-width:1.5;" x1="135" x2="229" y1="155" y2="155"/><!--MD5=[59c77a504eba5b642215a383ec5594bf]
class Decoder--><rect codeLine="8" fill="#FEFECE" filter="url(#fm84ptmgfnuyl)" height="48" id="Decoder" style="stroke:#A80036;stroke-width:1.5;" width="109" x="265.5" y="115"/><ellipse cx="280.5" cy="131" fill="#B4A7E5" rx="11" ry="11" style="stroke:#A80036;stroke-width:1.0;"/><path d="M276.4219,126.7656 L276.4219,124.6094 L283.8125,124.6094 L283.8125,126.7656 L281.3438,126.7656 L281.3438,134.8438 L283.8125,134.8438 L283.8125,137 L276.4219,137 L276.4219,134.8438 L278.8906,134.8438 L278.8906,126.7656 L276.4219,126.7656 Z " fill="#000000"/><text fill="#000000" font-family="sans-serif" font-size="12" font-style="italic" lengthAdjust="spacing" textLength="50" x="294.5" y="135.1543">Decoder</text><rect fill="#FFFFFF" height="15.9688" style="stroke:#000000;stroke-width:1.0;stroke-dasharray:2.0,2.0;" width="25" x="352.5" y="112"/><text fill="#000000" font-family="sans-serif" font-size="12" font-style="italic" lengthAdjust="spacing" textLength="23" x="353.5" y="124.1387">T, R</text><line style="stroke:#A80036;stroke-width:1.5;" x1="266.5" x2="373.5" y1="147" y2="147"/><line style="stroke:#A80036;stroke-width:1.5;" x1="266.5" x2="373.5" y1="155" y2="155"/><!--MD5=[1bb33ff08ccce78e377ec62c4a7439a9]
class HttpDecoder--><rect codeLine="11" fill="#FEFECE" filter="url(#fm84ptmgfnuyl)" height="124.8281" id="HttpDecoder" style="stroke:#A80036;stroke-width:1.5;" width="488" x="7" y="223"/><ellipse cx="22" cy="239" fill="#A9DCDF" rx="11" ry="11" style="stroke:#A80036;stroke-width:1.0;"/><path d="M22.1094,234.3438 L20.9531,239.4219 L23.2813,239.4219 L22.1094,234.3438 Z M20.625,232.1094 L23.6094,232.1094 L26.9688,244.5 L24.5156,244.5 L23.75,241.4375 L20.4688,241.4375 L19.7188,244.5 L17.2813,244.5 L20.625,232.1094 Z " fill="#000000"/><text fill="#000000" font-family="sans-serif" font-size="12" font-style="italic" lengthAdjust="spacing" textLength="77" x="36" y="243.1543">HttpDecoder</text><rect fill="#FFFFFF" height="15.9688" style="stroke:#000000;stroke-width:1.0;stroke-dasharray:2.0,2.0;" width="377" x="121" y="220"/><text fill="#000000" font-family="sans-serif" font-size="12" font-style="italic" lengthAdjust="spacing" textLength="375" x="122" y="232.1387">T extends HttpMessageHeader, R extends HttpMessageHeader</text><line style="stroke:#A80036;stroke-width:1.5;" x1="8" x2="494" y1="255" y2="255"/><line style="stroke:#A80036;stroke-width:1.5;" x1="8" x2="494" y1="263" y2="263"/><ellipse cx="18" cy="274" fill="#84BE84" rx="3" ry="3" style="stroke:#038048;stroke-width:1.0;"/><text fill="#000000" font-family="sans-serif" font-size="11" lengthAdjust="spacing" textLength="78" x="27" y="277.2104">HttpDecoder()</text><ellipse cx="18" cy="286.8047" fill="#84BE84" rx="3" ry="3" style="stroke:#038048;stroke-width:1.0;"/><text fill="#000000" font-family="sans-serif" font-size="11" lengthAdjust="spacing" textLength="391" x="27" y="290.0151">Decoder.Result decode(ByteBuffer in, Buffer out, boolean endOfInput)</text><ellipse cx="18" cy="299.6094" fill="#84BE84" rx="3" ry="3" style="stroke:#038048;stroke-width:1.0;"/><text fill="#000000" font-family="sans-serif" font-size="11" lengthAdjust="spacing" textLength="98" x="27" y="302.8198">Optional header()</text><ellipse cx="18" cy="312.4141" fill="#84BE84" rx="3" ry="3" style="stroke:#038048;stroke-width:1.0;"/><text fill="#000000" font-family="sans-serif" font-size="11" lengthAdjust="spacing" textLength="283" x="27" y="315.6245">void setMaxHeaderLength(long maxHeaderLength)</text><ellipse cx="18" cy="325.2188" fill="#84BE84" rx="3" ry="3" style="stroke:#038048;stroke-width:1.0;"/><text fill="#000000" font-family="sans-serif" font-size="11" lengthAdjust="spacing" textLength="138" x="27" y="328.4292">long maxHeaderLength()</text><ellipse cx="18" cy="338.0234" fill="#84BE84" rx="3" ry="3" style="stroke:#038048;stroke-width:1.0;"/><text fill="#000000" font-family="sans-serif" font-size="11" lengthAdjust="spacing" textLength="105" x="27" y="341.2339">boolean isClosed()</text><!--MD5=[31697f0949d333c77320f29355cacaf7]
reverse link Codec to HttpCodec--><path codeLine="20" d="M224.88,72.13 C215.52,86.5 205.3,102.21 197.18,114.68 " fill="none" id="Codec-backto-HttpCodec" style="stroke:#A80036;stroke-width:1.0;stroke-dasharray:7.0,7.0;"/><polygon fill="none" points="219.25,67.94,236.03,55,230.98,75.58,219.25,67.94" style="stroke:#A80036;stroke-width:1.0;"/><!--MD5=[402a836abcce07a537983540e72f1412]
reverse link Codec to Decoder--><path codeLine="22" d="M277.12,72.13 C286.48,86.5 296.7,102.21 304.82,114.68 " fill="none" id="Codec-backto-Decoder" style="stroke:#A80036;stroke-width:1.0;"/><polygon fill="none" points="271.02,75.58,265.97,55,282.75,67.94,271.02,75.58" style="stroke:#A80036;stroke-width:1.0;"/><!--MD5=[dc3eb69cc2abfe307985e04d0d2bf7f5]
reverse link HttpCodec to HttpDecoder--><path codeLine="24" d="M201.75,181.36 C207.94,194.33 214.92,208.94 221.63,222.99 " fill="none" id="HttpCodec-backto-HttpDecoder" style="stroke:#A80036;stroke-width:1.0;"/><polygon fill="none" points="195.39,184.28,193.09,163.22,208.02,178.25,195.39,184.28" style="stroke:#A80036;stroke-width:1.0;"/><!--MD5=[efe9fb0b8788f1fa9f83db51213b46c7]
reverse link Decoder to HttpDecoder--><path codeLine="26" d="M300.25,181.36 C294.06,194.33 287.08,208.94 280.37,222.99 " fill="none" id="Decoder-backto-HttpDecoder" style="stroke:#A80036;stroke-width:1.0;stroke-dasharray:7.0,7.0;"/><polygon fill="none" points="293.98,178.25,308.91,163.22,306.61,184.28,293.98,178.25" style="stroke:#A80036;stroke-width:1.0;"/><!--MD5=[e4298ceaf45261ec0bb77c733df48925]
@startuml
' ========== HTTP decoder =========
 interface Codec {
 }
 
 abstract class HttpCodec {
 }
 
 interface Decoder<T, R> {
 }
 
 abstract class HttpDecoder<T extends HttpMessageHeader, R extends HttpMessageHeader> {
     +HttpDecoder()
     +Decoder.Result decode(ByteBuffer in, Buffer out, boolean endOfInput)
     +Optional header()
     +void setMaxHeaderLength(long maxHeaderLength)
     +long maxHeaderLength()
     +boolean isClosed()
 }
 
 Codec <|.. HttpCodec
 
 Codec <|- - Decoder
 
 HttpCodec <|- - HttpDecoder
 
 Decoder <|.. HttpDecoder
@enduml

@startuml
 interface Codec {
 }
 
 abstract class HttpCodec {
 }
 
 interface Decoder<T, R> {
 }
 
 abstract class HttpDecoder<T extends HttpMessageHeader, R extends HttpMessageHeader> {
     +HttpDecoder()
     +Decoder.Result decode(ByteBuffer in, Buffer out, boolean endOfInput)
     +Optional header()
     +void setMaxHeaderLength(long maxHeaderLength)
     +long maxHeaderLength()
     +boolean isClosed()
 }
 
 Codec <|.. HttpCodec
 
 Codec <|- - Decoder
 
 HttpCodec <|- - HttpDecoder
 
 Decoder <|.. HttpDecoder
@enduml

PlantUML version 1.2022.1(Tue Feb 01 19:19:58 CET 2022)
(GPL source distribution)
Java Runtime: Java(TM) SE Runtime Environment
JVM: Java HotSpot(TM) 64-Bit Server VM
Default Encoding: UTF-8
Language: de
Country: DE
--></g></svg>