<?xml version="1.0" encoding="UTF-8" standalone="no"?><svg xmlns="http://www.w3.org/2000/svg" xmlns:xlink="http://www.w3.org/1999/xlink" contentScriptType="application/ecmascript" contentStyleType="text/css" height="285px" preserveAspectRatio="none" style="width:351px;height:285px;background:#FFFFFF;" version="1.1" viewBox="0 0 351 285" width="351px" zoomAndPan="magnify"><defs><filter height="300%" id="ft1byphws9h8m" width="300%" x="-1" y="-1"><feGaussianBlur result="blurOut" stdDeviation="2.0"/><feColorMatrix in="blurOut" result="blurOut2" type="matrix" values="0 0 0 0 0 0 0 0 0 0 0 0 0 0 0 0 0 0 .4 0"/><feOffset dx="4.0" dy="4.0" in="blurOut2" result="blurOut3"/><feBlend in="SourceGraphic" in2="blurOut3" mode="normal"/></filter></defs><g><!--MD5=[247989e795da0a409281f984d60ff5c3]
class HttpMessageHeader--><rect codeLine="3" fill="#FEFECE" filter="url(#ft1byphws9h8m)" height="48" id="HttpMessageHeader" style="stroke:#A80036;stroke-width:1.5;" width="153" x="61" y="115"/><ellipse cx="76" cy="131" fill="#A9DCDF" rx="11" ry="11" style="stroke:#A80036;stroke-width:1.0;"/><path d="M76.1094,126.3438 L74.9531,131.4219 L77.2813,131.4219 L76.1094,126.3438 Z M74.625,124.1094 L77.6094,124.1094 L80.9688,136.5 L78.5156,136.5 L77.75,133.4375 L74.4688,133.4375 L73.7188,136.5 L71.2813,136.5 L74.625,124.1094 Z " fill="#000000"/><text fill="#000000" font-family="sans-serif" font-size="12" font-style="italic" lengthAdjust="spacing" textLength="121" x="90" y="135.1543">HttpMessageHeader</text><line style="stroke:#A80036;stroke-width:1.5;" x1="62" x2="213" y1="147" y2="147"/><line style="stroke:#A80036;stroke-width:1.5;" x1="62" x2="213" y1="155" y2="155"/><!--MD5=[96c1bd05d11fa1a1abbb67cdfab7229d]
class MessageHeader--><rect codeLine="6" fill="#FEFECE" filter="url(#ft1byphws9h8m)" height="48" id="MessageHeader" style="stroke:#A80036;stroke-width:1.5;" width="126" x="74.5" y="7"/><ellipse cx="89.5" cy="23" fill="#B4A7E5" rx="11" ry="11" style="stroke:#A80036;stroke-width:1.0;"/><path d="M85.4219,18.7656 L85.4219,16.6094 L92.8125,16.6094 L92.8125,18.7656 L90.3438,18.7656 L90.3438,26.8438 L92.8125,26.8438 L92.8125,29 L85.4219,29 L85.4219,26.8438 L87.8906,26.8438 L87.8906,18.7656 L85.4219,18.7656 Z " fill="#000000"/><text fill="#000000" font-family="sans-serif" font-size="12" font-style="italic" lengthAdjust="spacing" textLength="94" x="103.5" y="27.1543">MessageHeader</text><line style="stroke:#A80036;stroke-width:1.5;" x1="75.5" x2="199.5" y1="39" y2="39"/><line style="stroke:#A80036;stroke-width:1.5;" x1="75.5" x2="199.5" y1="47" y2="47"/><!--MD5=[4da09b18006e212e9efdc897e83005a4]
class HttpRequest--><rect codeLine="9" fill="#FEFECE" filter="url(#ft1byphws9h8m)" height="48" id="HttpRequest" style="stroke:#A80036;stroke-width:1.5;" width="111" x="7" y="223"/><ellipse cx="22" cy="239" fill="#ADD1B2" rx="11" ry="11" style="stroke:#A80036;stroke-width:1.0;"/><path d="M24.9688,244.6406 Q24.3906,244.9375 23.75,245.0781 Q23.1094,245.2344 22.4063,245.2344 Q19.9063,245.2344 18.5781,243.5938 Q17.2656,241.9375 17.2656,238.8125 Q17.2656,235.6875 18.5781,234.0313 Q19.9063,232.375 22.4063,232.375 Q23.1094,232.375 23.75,232.5313 Q24.4063,232.6875 24.9688,232.9844 L24.9688,235.7031 Q24.3438,235.125 23.75,234.8594 Q23.1563,234.5781 22.5313,234.5781 Q21.1875,234.5781 20.5,235.6563 Q19.8125,236.7188 19.8125,238.8125 Q19.8125,240.9063 20.5,241.9844 Q21.1875,243.0469 22.5313,243.0469 Q23.1563,243.0469 23.75,242.7813 Q24.3438,242.5 24.9688,241.9219 L24.9688,244.6406 Z " fill="#000000"/><text fill="#000000" font-family="sans-serif" font-size="12" lengthAdjust="spacing" textLength="79" x="36" y="243.1543">HttpRequest</text><line style="stroke:#A80036;stroke-width:1.5;" x1="8" x2="117" y1="255" y2="255"/><line style="stroke:#A80036;stroke-width:1.5;" x1="8" x2="117" y1="263" y2="263"/><!--MD5=[8209a440f783abc22af203f8410078b7]
class HttpResponse--><rect codeLine="12" fill="#FEFECE" filter="url(#ft1byphws9h8m)" height="48" id="HttpResponse" style="stroke:#A80036;stroke-width:1.5;" width="121" x="153" y="223"/><ellipse cx="168" cy="239" fill="#ADD1B2" rx="11" ry="11" style="stroke:#A80036;stroke-width:1.0;"/><path d="M170.9688,244.6406 Q170.3906,244.9375 169.75,245.0781 Q169.1094,245.2344 168.4063,245.2344 Q165.9063,245.2344 164.5781,243.5938 Q163.2656,241.9375 163.2656,238.8125 Q163.2656,235.6875 164.5781,234.0313 Q165.9063,232.375 168.4063,232.375 Q169.1094,232.375 169.75,232.5313 Q170.4063,232.6875 170.9688,232.9844 L170.9688,235.7031 Q170.3438,235.125 169.75,234.8594 Q169.1563,234.5781 168.5313,234.5781 Q167.1875,234.5781 166.5,235.6563 Q165.8125,236.7188 165.8125,238.8125 Q165.8125,240.9063 166.5,241.9844 Q167.1875,243.0469 168.5313,243.0469 Q169.1563,243.0469 169.75,242.7813 Q170.3438,242.5 170.9688,241.9219 L170.9688,244.6406 Z " fill="#000000"/><text fill="#000000" font-family="sans-serif" font-size="12" lengthAdjust="spacing" textLength="89" x="182" y="243.1543">HttpResponse</text><line style="stroke:#A80036;stroke-width:1.5;" x1="154" x2="273" y1="255" y2="255"/><line style="stroke:#A80036;stroke-width:1.5;" x1="154" x2="273" y1="263" y2="263"/><!--MD5=[3e0878a5553178623f66820881e6a268]
class HttpField--><rect codeLine="15" fill="#FEFECE" filter="url(#ft1byphws9h8m)" height="48" id="HttpField" style="stroke:#A80036;stroke-width:1.5;" width="88" x="249.5" y="115"/><ellipse cx="264.5" cy="131" fill="#ADD1B2" rx="11" ry="11" style="stroke:#A80036;stroke-width:1.0;"/><path d="M267.4688,136.6406 Q266.8906,136.9375 266.25,137.0781 Q265.6094,137.2344 264.9063,137.2344 Q262.4063,137.2344 261.0781,135.5938 Q259.7656,133.9375 259.7656,130.8125 Q259.7656,127.6875 261.0781,126.0313 Q262.4063,124.375 264.9063,124.375 Q265.6094,124.375 266.25,124.5313 Q266.9063,124.6875 267.4688,124.9844 L267.4688,127.7031 Q266.8438,127.125 266.25,126.8594 Q265.6563,126.5781 265.0313,126.5781 Q263.6875,126.5781 263,127.6563 Q262.3125,128.7188 262.3125,130.8125 Q262.3125,132.9063 263,133.9844 Q263.6875,135.0469 265.0313,135.0469 Q265.6563,135.0469 266.25,134.7813 Q266.8438,134.5 267.4688,133.9219 L267.4688,136.6406 Z " fill="#000000"/><text fill="#000000" font-family="sans-serif" font-size="12" lengthAdjust="spacing" textLength="56" x="278.5" y="135.1543">HttpField</text><line style="stroke:#A80036;stroke-width:1.5;" x1="250.5" x2="336.5" y1="147" y2="147"/><line style="stroke:#A80036;stroke-width:1.5;" x1="250.5" x2="336.5" y1="155" y2="155"/><!--MD5=[cad32e34dbb48b6e0ea619a2df2fba41]
reverse link HttpMessageHeader to HttpResponse--><path codeLine="18" d="M165.93,179.66 C176.32,194.15 187.74,210.07 196.78,222.68 " fill="none" id="HttpMessageHeader-backto-HttpResponse" style="stroke:#A80036;stroke-width:1.0;"/><polygon fill="none" points="159.96,183.33,153.99,163,171.33,175.18,159.96,183.33" style="stroke:#A80036;stroke-width:1.0;"/><!--MD5=[6b2d7c4f52667b95936f40d646ee28e7]
reverse link HttpMessageHeader to HttpRequest--><path codeLine="20" d="M109.44,179.66 C99.19,194.15 87.92,210.07 79,222.68 " fill="none" id="HttpMessageHeader-backto-HttpRequest" style="stroke:#A80036;stroke-width:1.0;"/><polygon fill="none" points="103.96,175.28,121.23,163,115.39,183.37,103.96,175.28" style="stroke:#A80036;stroke-width:1.0;"/><!--MD5=[80bc5140bc8f69ff92b898f9d5d2c3ce]
reverse link HttpMessageHeader to HttpField--><path codeLine="22" d="M227.39,139 C234.68,139 241.96,139 249.25,139 " fill="none" id="HttpMessageHeader-backto-HttpField" style="stroke:#A80036;stroke-width:1.0;"/><polygon fill="#A80036" points="214.28,139,220.28,143,226.28,139,220.28,135,214.28,139" style="stroke:#A80036;stroke-width:1.0;"/><text fill="#000000" font-family="sans-serif" font-size="13" lengthAdjust="spacing" textLength="7" x="234.6398" y="134.8822">*</text><!--MD5=[8ab67a16336f7deae5d17aae60d7df9c]
reverse link MessageHeader to HttpMessageHeader--><path codeLine="24" d="M137.5,75.02 C137.5,88.58 137.5,103.04 137.5,114.68 " fill="none" id="MessageHeader-backto-HttpMessageHeader" style="stroke:#A80036;stroke-width:1.0;stroke-dasharray:7.0,7.0;"/><polygon fill="none" points="130.5,75,137.5,55,144.5,75,130.5,75" style="stroke:#A80036;stroke-width:1.0;"/><!--MD5=[4d05ac6e1010f976e9d66b475dc472dd]
@startuml
' ========== HTTP messages =========
 
 abstract class HttpMessageHeader {
 }
 
 interface MessageHeader {
 }
 
 class HttpRequest {
 }
 
 class HttpResponse {
 }
 
 class HttpField {
 }
 
 HttpMessageHeader <|- - HttpResponse
 
 HttpMessageHeader <|- - HttpRequest
 
 HttpMessageHeader *-right- "*" HttpField 
 
 MessageHeader <|.. HttpMessageHeader
@enduml

@startuml
 
 abstract class HttpMessageHeader {
 }
 
 interface MessageHeader {
 }
 
 class HttpRequest {
 }
 
 class HttpResponse {
 }
 
 class HttpField {
 }
 
 HttpMessageHeader <|- - HttpResponse
 
 HttpMessageHeader <|- - HttpRequest
 
 HttpMessageHeader *-right- "*" HttpField 
 
 MessageHeader <|.. HttpMessageHeader
@enduml

PlantUML version 1.2022.1(Tue Feb 01 19:19:58 CET 2022)
(GPL source distribution)
Java Runtime: Java(TM) SE Runtime Environment
JVM: Java HotSpot(TM) 64-Bit Server VM
Default Encoding: UTF-8
Language: de
Country: DE
--></g></svg>