<?xml version="1.0" encoding="UTF-8" standalone="no"?><svg xmlns="http://www.w3.org/2000/svg" xmlns:xlink="http://www.w3.org/1999/xlink" contentScriptType="application/ecmascript" contentStyleType="text/css" height="215px" preserveAspectRatio="none" style="width:416px;height:215px;background:#FFFFFF;" version="1.1" viewBox="0 0 416 215" width="416px" zoomAndPan="magnify"><defs><filter height="300%" id="f17h0j35jqqocv" width="300%" x="-1" y="-1"><feGaussianBlur result="blurOut" stdDeviation="2.0"/><feColorMatrix in="blurOut" result="blurOut2" type="matrix" values="0 0 0 0 0 0 0 0 0 0 0 0 0 0 0 0 0 0 .4 0"/><feOffset dx="4.0" dy="4.0" in="blurOut2" result="blurOut3"/><feBlend in="SourceGraphic" in2="blurOut3" mode="normal"/></filter></defs><g><!--MD5=[0bb20b103ca4ce6dd878443f6e1c65b1]
class HttpResponseEncoder::Result--><rect codeLine="1" fill="#FEFECE" filter="url(#f17h0j35jqqocv)" height="48" id="HttpResponseEncoder::Result" style="stroke:#A80036;stroke-width:1.5;" width="220" x="83" y="153"/><ellipse cx="98" cy="169" fill="#ADD1B2" rx="11" ry="11" style="stroke:#A80036;stroke-width:1.0;"/><path d="M100.9688,174.6406 Q100.3906,174.9375 99.75,175.0781 Q99.1094,175.2344 98.4063,175.2344 Q95.9063,175.2344 94.5781,173.5938 Q93.2656,171.9375 93.2656,168.8125 Q93.2656,165.6875 94.5781,164.0313 Q95.9063,162.375 98.4063,162.375 Q99.1094,162.375 99.75,162.5313 Q100.4063,162.6875 100.9688,162.9844 L100.9688,165.7031 Q100.3438,165.125 99.75,164.8594 Q99.1563,164.5781 98.5313,164.5781 Q97.1875,164.5781 96.5,165.6563 Q95.8125,166.7188 95.8125,168.8125 Q95.8125,170.9063 96.5,171.9844 Q97.1875,173.0469 98.5313,173.0469 Q99.1563,173.0469 99.75,172.7813 Q100.3438,172.5 100.9688,171.9219 L100.9688,174.6406 Z " fill="#000000"/><text fill="#000000" font-family="sans-serif" font-size="12" lengthAdjust="spacing" textLength="188" x="112" y="173.1543">HttpResponseEncoder::Result</text><line style="stroke:#A80036;stroke-width:1.5;" x1="84" x2="302" y1="185" y2="185"/><line style="stroke:#A80036;stroke-width:1.5;" x1="84" x2="302" y1="193" y2="193"/><!--MD5=[920259ec8f21af13155ba806a5215ff5]
class HttpEncoder::Result--><rect codeLine="3" fill="#FEFECE" filter="url(#f17h0j35jqqocv)" height="48" id="HttpEncoder::Result" style="stroke:#A80036;stroke-width:1.5;" width="158" x="7" y="26"/><ellipse cx="22" cy="42" fill="#ADD1B2" rx="11" ry="11" style="stroke:#A80036;stroke-width:1.0;"/><path d="M24.9688,47.6406 Q24.3906,47.9375 23.75,48.0781 Q23.1094,48.2344 22.4063,48.2344 Q19.9063,48.2344 18.5781,46.5938 Q17.2656,44.9375 17.2656,41.8125 Q17.2656,38.6875 18.5781,37.0313 Q19.9063,35.375 22.4063,35.375 Q23.1094,35.375 23.75,35.5313 Q24.4063,35.6875 24.9688,35.9844 L24.9688,38.7031 Q24.3438,38.125 23.75,37.8594 Q23.1563,37.5781 22.5313,37.5781 Q21.1875,37.5781 20.5,38.6563 Q19.8125,39.7188 19.8125,41.8125 Q19.8125,43.9063 20.5,44.9844 Q21.1875,46.0469 22.5313,46.0469 Q23.1563,46.0469 23.75,45.7813 Q24.3438,45.5 24.9688,44.9219 L24.9688,47.6406 Z " fill="#000000"/><text fill="#000000" font-family="sans-serif" font-size="12" lengthAdjust="spacing" textLength="126" x="36" y="46.1543">HttpEncoder::Result</text><line style="stroke:#A80036;stroke-width:1.5;" x1="8" x2="164" y1="58" y2="58"/><line style="stroke:#A80036;stroke-width:1.5;" x1="8" x2="164" y1="66" y2="66"/><!--MD5=[dcf9830fec92cfb519bbce3ee53365f7]
class Codec::ProtocolSwitchResult--><rect codeLine="5" fill="#FEFECE" filter="url(#f17h0j35jqqocv)" height="86.4141" id="Codec::ProtocolSwitchResult" style="stroke:#A80036;stroke-width:1.5;" width="202" x="200" y="7"/><ellipse cx="215" cy="23" fill="#B4A7E5" rx="11" ry="11" style="stroke:#A80036;stroke-width:1.0;"/><path d="M210.9219,18.7656 L210.9219,16.6094 L218.3125,16.6094 L218.3125,18.7656 L215.8438,18.7656 L215.8438,26.8438 L218.3125,26.8438 L218.3125,29 L210.9219,29 L210.9219,26.8438 L213.3906,26.8438 L213.3906,18.7656 L210.9219,18.7656 Z " fill="#000000"/><text fill="#000000" font-family="sans-serif" font-size="12" font-style="italic" lengthAdjust="spacing" textLength="170" x="229" y="27.1543">Codec::ProtocolSwitchResult</text><line style="stroke:#A80036;stroke-width:1.5;" x1="201" x2="401" y1="39" y2="39"/><line style="stroke:#A80036;stroke-width:1.5;" x1="201" x2="401" y1="47" y2="47"/><text fill="#000000" font-family="sans-serif" font-size="11" lengthAdjust="spacing" textLength="121" x="206" y="61.2104">newProtocol() : String</text><text fill="#000000" font-family="sans-serif" font-size="11" lengthAdjust="spacing" textLength="157" x="206" y="74.0151">newEncoder() : Encoder&lt;?&gt;</text><text fill="#000000" font-family="sans-serif" font-size="11" lengthAdjust="spacing" textLength="172" x="206" y="86.8198">newDecoder() : Decoder&lt;?, ?&gt;</text><!--MD5=[6db6fdd3eec25555a329ac6f43df57b8]
reverse link HttpEncoder::Result to HttpResponseEncoder::Result--><path codeLine="11" d="M118.89,89.42 C136.66,110.19 158.02,135.14 173.23,152.91 " fill="none" id="HttpEncoder::Result-backto-HttpResponseEncoder::Result" style="stroke:#A80036;stroke-width:1.0;"/><polygon fill="none" points="113.56,93.96,105.88,74.22,124.2,84.86,113.56,93.96" style="stroke:#A80036;stroke-width:1.0;"/><!--MD5=[87a0e5284e4cecec39caba13bd7453ca]
reverse link Codec::ProtocolSwitchResult to HttpResponseEncoder::Result--><path codeLine="13" d="M251.22,108.62 C237.76,124.2 223.95,140.18 213.16,152.67 " fill="none" id="Codec::ProtocolSwitchResult-backto-HttpResponseEncoder::Result" style="stroke:#A80036;stroke-width:1.0;stroke-dasharray:7.0,7.0;"/><polygon fill="none" points="246.06,103.88,264.44,93.32,256.66,113.03,246.06,103.88" style="stroke:#A80036;stroke-width:1.0;"/><!--MD5=[9bfe6eeee3ff38f9a41278892d569748]
@startuml
class HttpResponseEncoder::Result
 
 class HttpEncoder::Result
 
 interface Codec::ProtocolSwitchResult {
     newProtocol() : String
     newEncoder() : Encoder<?>        
     newDecoder() : Decoder<?, ?>
 }
 
 HttpEncoder::Result <|- - HttpResponseEncoder::Result
 
 Codec::ProtocolSwitchResult <|.. HttpResponseEncoder::Result
@enduml

PlantUML version 1.2022.1(Tue Feb 01 19:19:58 CET 2022)
(GPL source distribution)
Java Runtime: Java(TM) SE Runtime Environment
JVM: Java HotSpot(TM) 64-Bit Server VM
Default Encoding: UTF-8
Language: de
Country: DE
--></g></svg>