<?xml version="1.0" encoding="UTF-8" standalone="no"?><svg xmlns="http://www.w3.org/2000/svg" xmlns:xlink="http://www.w3.org/1999/xlink" contentScriptType="application/ecmascript" contentStyleType="text/css" height="339px" preserveAspectRatio="none" style="width:708px;height:339px;" version="1.1" viewBox="0 0 708 339" width="708px" zoomAndPan="magnify"><defs><filter height="300%" id="fru2b5y" width="300%" x="-1" y="-1"><feGaussianBlur result="blurOut" stdDeviation="2.0"/><feColorMatrix in="blurOut" result="blurOut2" type="matrix" values="0 0 0 0 0 0 0 0 0 0 0 0 0 0 0 0 0 0 .4 0"/><feOffset dx="4.0" dy="4.0" in="blurOut2" result="blurOut3"/><feBlend in="SourceGraphic" in2="blurOut3" mode="normal"/></filter></defs><g><!--class HttpMessageHeader--><rect fill="#FEFECE" filter="url(#fru2b5y)" height="214.4609" style="stroke: #A80036; stroke-width: 1.5;" width="554" x="6" y="116"/><ellipse cx="214.25" cy="132" fill="#ADD1B2" rx="11" ry="11" style="stroke: #A80036; stroke-width: 1.0;"/><path d="M217.2188,137.6406 Q216.6406,137.9375 216,138.0859 Q215.3594,138.2344 214.6563,138.2344 Q212.1563,138.2344 210.8359,136.5859 Q209.5156,134.9375 209.5156,131.8125 Q209.5156,128.6875 210.8359,127.0313 Q212.1563,125.375 214.6563,125.375 Q215.3594,125.375 216.0078,125.5313 Q216.6563,125.6875 217.2188,125.9844 L217.2188,128.7031 Q216.5938,128.125 216,127.8516 Q215.4063,127.5781 214.7813,127.5781 Q213.4375,127.5781 212.75,128.6484 Q212.0625,129.7188 212.0625,131.8125 Q212.0625,133.9063 212.75,134.9766 Q213.4375,136.0469 214.7813,136.0469 Q215.4063,136.0469 216,135.7734 Q216.5938,135.5 217.2188,134.9219 L217.2188,137.6406 Z "/><text fill="#000000" font-family="sans-serif" font-size="12" lengthAdjust="spacingAndGlyphs" textLength="129" x="234.75" y="136.1543">HttpMessageHeader</text><line style="stroke: #A80036; stroke-width: 1.5;" x1="7" x2="559" y1="148" y2="148"/><line style="stroke: #A80036; stroke-width: 1.5;" x1="7" x2="559" y1="156" y2="156"/><ellipse cx="17" cy="167.9023" fill="#84BE84" rx="3" ry="3" style="stroke: #038048; stroke-width: 1.0;"/><text fill="#000000" font-family="sans-serif" font-size="11" lengthAdjust="spacingAndGlyphs" textLength="127" x="26" y="170.2104">HttpProtocol protocol()</text><ellipse cx="17" cy="180.707" fill="#84BE84" rx="3" ry="3" style="stroke: #038048; stroke-width: 1.0;"/><text fill="#000000" font-family="sans-serif" font-size="11" lengthAdjust="spacingAndGlyphs" textLength="195" x="26" y="183.0151">Map&lt;String,HttpField&lt;?&gt;&gt; fields()</text><ellipse cx="17" cy="193.5117" fill="#84BE84" rx="3" ry="3" style="stroke: #038048; stroke-width: 1.0;"/><text fill="#000000" font-family="sans-serif" font-size="11" lengthAdjust="spacingAndGlyphs" textLength="278" x="26" y="195.8198">HttpMessageHeader setField(HttpField&lt;?&gt; value)</text><ellipse cx="17" cy="206.3164" fill="#84BE84" rx="3" ry="3" style="stroke: #038048; stroke-width: 1.0;"/><text fill="#000000" font-family="sans-serif" font-size="11" lengthAdjust="spacingAndGlyphs" textLength="290" x="26" y="208.6245">HttpMessageHeader setField(String name, T value)</text><ellipse cx="17" cy="219.1211" fill="#84BE84" rx="3" ry="3" style="stroke: #038048; stroke-width: 1.0;"/><text fill="#000000" font-family="sans-serif" font-size="11" lengthAdjust="spacingAndGlyphs" textLength="203" x="26" y="221.4292">HttpMessageHeader clearHeaders()</text><ellipse cx="17" cy="231.9258" fill="#84BE84" rx="3" ry="3" style="stroke: #038048; stroke-width: 1.0;"/><text fill="#000000" font-family="sans-serif" font-size="11" lengthAdjust="spacingAndGlyphs" textLength="266" x="26" y="234.2339">HttpMessageHeader removeField(String name)</text><ellipse cx="17" cy="244.7305" fill="#84BE84" rx="3" ry="3" style="stroke: #038048; stroke-width: 1.0;"/><text fill="#000000" font-family="sans-serif" font-size="11" lengthAdjust="spacingAndGlyphs" textLength="415" x="26" y="247.0386">Optional&lt;HttpField&lt;T&gt;&gt; findField(String name, Converter&lt;T&gt; converter)</text><ellipse cx="17" cy="257.5352" fill="#84BE84" rx="3" ry="3" style="stroke: #038048; stroke-width: 1.0;"/><text fill="#000000" font-family="sans-serif" font-size="11" lengthAdjust="spacingAndGlyphs" textLength="353" x="26" y="259.8433">Optional&lt;T&gt; findValue(String name, Converter&lt;T&gt; converter)</text><ellipse cx="17" cy="270.3398" fill="#84BE84" rx="3" ry="3" style="stroke: #038048; stroke-width: 1.0;"/><text fill="#000000" font-family="sans-serif" font-size="11" lengthAdjust="spacingAndGlyphs" textLength="267" x="26" y="272.6479">Optional&lt;String&gt; findStringValue(String name)</text><ellipse cx="17" cy="283.1445" fill="#84BE84" rx="3" ry="3" style="stroke: #038048; stroke-width: 1.0;"/><text fill="#000000" font-family="sans-serif" font-size="11" lengthAdjust="spacingAndGlyphs" textLength="528" x="26" y="285.4526">HttpField&lt;T&gt; computeIfAbsent(String name, Converter&lt;T&gt; converter, Supplier&lt;T&gt; supplier)</text><ellipse cx="17" cy="295.9492" fill="#84BE84" rx="3" ry="3" style="stroke: #038048; stroke-width: 1.0;"/><text fill="#000000" font-family="sans-serif" font-size="11" lengthAdjust="spacingAndGlyphs" textLength="302" x="26" y="298.2573">MessageHeader setHasPayload(boolean hasPayload)</text><ellipse cx="17" cy="308.7539" fill="#84BE84" rx="3" ry="3" style="stroke: #038048; stroke-width: 1.0;"/><text fill="#000000" font-family="sans-serif" font-size="11" lengthAdjust="spacingAndGlyphs" textLength="122" x="26" y="311.062">boolean hasPayload()</text><ellipse cx="17" cy="321.5586" fill="#84BE84" rx="3" ry="3" style="stroke: #038048; stroke-width: 1.0;"/><text fill="#000000" font-family="sans-serif" font-size="11" lengthAdjust="spacingAndGlyphs" textLength="93" x="26" y="323.8667">boolean isFinal()</text><!--class MessageHeader--><rect fill="#FEFECE" filter="url(#fru2b5y)" height="48" style="stroke: #A80036; stroke-width: 1.5;" width="134" x="216" y="8"/><ellipse cx="231" cy="24" fill="#ADD1B2" rx="11" ry="11" style="stroke: #A80036; stroke-width: 1.0;"/><path d="M233.9688,29.6406 Q233.3906,29.9375 232.75,30.0859 Q232.1094,30.2344 231.4063,30.2344 Q228.9063,30.2344 227.5859,28.5859 Q226.2656,26.9375 226.2656,23.8125 Q226.2656,20.6875 227.5859,19.0313 Q228.9063,17.375 231.4063,17.375 Q232.1094,17.375 232.7578,17.5313 Q233.4063,17.6875 233.9688,17.9844 L233.9688,20.7031 Q233.3438,20.125 232.75,19.8516 Q232.1563,19.5781 231.5313,19.5781 Q230.1875,19.5781 229.5,20.6484 Q228.8125,21.7188 228.8125,23.8125 Q228.8125,25.9063 229.5,26.9766 Q230.1875,28.0469 231.5313,28.0469 Q232.1563,28.0469 232.75,27.7734 Q233.3438,27.5 233.9688,26.9219 L233.9688,29.6406 Z "/><text fill="#000000" font-family="sans-serif" font-size="12" lengthAdjust="spacingAndGlyphs" textLength="102" x="245" y="28.1543">MessageHeader</text><line style="stroke: #A80036; stroke-width: 1.5;" x1="217" x2="349" y1="40" y2="40"/><line style="stroke: #A80036; stroke-width: 1.5;" x1="217" x2="349" y1="48" y2="48"/><!--class HttpField--><rect fill="#FEFECE" filter="url(#fru2b5y)" height="73.6094" style="stroke: #A80036; stroke-width: 1.5;" width="104" x="595" y="186"/><ellipse cx="612.25" cy="202" fill="#ADD1B2" rx="11" ry="11" style="stroke: #A80036; stroke-width: 1.0;"/><path d="M615.2188,207.6406 Q614.6406,207.9375 614,208.0859 Q613.3594,208.2344 612.6563,208.2344 Q610.1563,208.2344 608.8359,206.5859 Q607.5156,204.9375 607.5156,201.8125 Q607.5156,198.6875 608.8359,197.0313 Q610.1563,195.375 612.6563,195.375 Q613.3594,195.375 614.0078,195.5313 Q614.6563,195.6875 615.2188,195.9844 L615.2188,198.7031 Q614.5938,198.125 614,197.8516 Q613.4063,197.5781 612.7813,197.5781 Q611.4375,197.5781 610.75,198.6484 Q610.0625,199.7188 610.0625,201.8125 Q610.0625,203.9063 610.75,204.9766 Q611.4375,206.0469 612.7813,206.0469 Q613.4063,206.0469 614,205.7734 Q614.5938,205.5 615.2188,204.9219 L615.2188,207.6406 Z "/><text fill="#000000" font-family="sans-serif" font-size="12" lengthAdjust="spacingAndGlyphs" textLength="56" x="626.75" y="206.1543">HttpField</text><rect fill="#FFFFFF" height="15.9688" style="stroke: #000000; stroke-width: 1.0; stroke-dasharray: 2.0,2.0;" width="9" x="693" y="183"/><text fill="#000000" font-family="sans-serif" font-size="12" font-style="italic" lengthAdjust="spacingAndGlyphs" textLength="7" x="694" y="195.1387">T</text><line style="stroke: #A80036; stroke-width: 1.5;" x1="596" x2="698" y1="218" y2="218"/><line style="stroke: #A80036; stroke-width: 1.5;" x1="596" x2="698" y1="226" y2="226"/><ellipse cx="606" cy="237.9023" fill="#84BE84" rx="3" ry="3" style="stroke: #038048; stroke-width: 1.0;"/><text fill="#000000" font-family="sans-serif" font-size="11" lengthAdjust="spacingAndGlyphs" textLength="78" x="615" y="240.2104">String name()</text><ellipse cx="606" cy="250.707" fill="#84BE84" rx="3" ry="3" style="stroke: #038048; stroke-width: 1.0;"/><text fill="#000000" font-family="sans-serif" font-size="11" lengthAdjust="spacingAndGlyphs" textLength="49" x="615" y="253.0151">T value()</text><path d="M283,76.339 C283,88.303 283,101.834 283,115.709 " fill="none" style="stroke: #A80036; stroke-width: 1.0;"/><polygon fill="none" points="276,76.175,283,56.175,290,76.175,276,76.175" style="stroke: #A80036; stroke-width: 1.0;"/><path d="M573.495,223 C580.605,223 587.714,223 594.824,223 " fill="none" style="stroke: #A80036; stroke-width: 1.0;"/><polygon fill="#A80036" points="560.266,223,566.266,227,572.266,223,566.266,219,560.266,223" style="stroke: #A80036; stroke-width: 1.0;"/></g></svg>