<?xml version="1.0" encoding="UTF-8" standalone="no"?><svg xmlns="http://www.w3.org/2000/svg" xmlns:xlink="http://www.w3.org/1999/xlink" contentScriptType="application/ecmascript" contentStyleType="text/css" height="343px" preserveAspectRatio="none" style="width:632px;height:343px;background:#FFFFFF;" version="1.1" viewBox="0 0 632 343" width="632px" zoomAndPan="magnify"><defs><filter height="300%" id="f1ond041eo29tr" width="300%" x="-1" y="-1"><feGaussianBlur result="blurOut" stdDeviation="2.0"/><feColorMatrix in="blurOut" result="blurOut2" type="matrix" values="0 0 0 0 0 0 0 0 0 0 0 0 0 0 0 0 0 0 .4 0"/><feOffset dx="4.0" dy="4.0" in="blurOut2" result="blurOut3"/><feBlend in="SourceGraphic" in2="blurOut3" mode="normal"/></filter></defs><g><!--MD5=[247989e795da0a409281f984d60ff5c3]
class HttpMessageHeader--><rect codeLine="1" fill="#FEFECE" filter="url(#f1ond041eo29tr)" height="214.4609" id="HttpMessageHeader" style="stroke:#A80036;stroke-width:1.5;" width="473" x="7" y="115"/><ellipse cx="178.75" cy="131" fill="#A9DCDF" rx="11" ry="11" style="stroke:#A80036;stroke-width:1.0;"/><path d="M178.8594,126.3438 L177.7031,131.4219 L180.0313,131.4219 L178.8594,126.3438 Z M177.375,124.1094 L180.3594,124.1094 L183.7188,136.5 L181.2656,136.5 L180.5,133.4375 L177.2188,133.4375 L176.4688,136.5 L174.0313,136.5 L177.375,124.1094 Z " fill="#000000"/><text fill="#000000" font-family="sans-serif" font-size="12" font-style="italic" lengthAdjust="spacing" textLength="121" x="199.25" y="135.1543">HttpMessageHeader</text><line style="stroke:#A80036;stroke-width:1.5;" x1="8" x2="479" y1="147" y2="147"/><line style="stroke:#A80036;stroke-width:1.5;" x1="8" x2="479" y1="155" y2="155"/><ellipse cx="18" cy="166" fill="#84BE84" rx="3" ry="3" style="stroke:#038048;stroke-width:1.0;"/><text fill="#000000" font-family="sans-serif" font-size="11" lengthAdjust="spacing" textLength="126" x="27" y="169.2104">HttpProtocol protocol()</text><ellipse cx="18" cy="178.8047" fill="#84BE84" rx="3" ry="3" style="stroke:#038048;stroke-width:1.0;"/><text fill="#000000" font-family="sans-serif" font-size="11" lengthAdjust="spacing" textLength="194" x="27" y="182.0151">Map&lt;String,HttpField&lt;?&gt;&gt; fields()</text><ellipse cx="18" cy="191.6094" fill="#84BE84" rx="3" ry="3" style="stroke:#038048;stroke-width:1.0;"/><text fill="#000000" font-family="sans-serif" font-size="11" lengthAdjust="spacing" textLength="276" x="27" y="194.8198">HttpMessageHeader setField(HttpField&lt;?&gt; value)</text><ellipse cx="18" cy="204.4141" fill="#84BE84" rx="3" ry="3" style="stroke:#038048;stroke-width:1.0;"/><text fill="#000000" font-family="sans-serif" font-size="11" lengthAdjust="spacing" textLength="286" x="27" y="207.6245">HttpMessageHeader setField(String name, T value)</text><ellipse cx="18" cy="217.2188" fill="#84BE84" rx="3" ry="3" style="stroke:#038048;stroke-width:1.0;"/><text fill="#000000" font-family="sans-serif" font-size="11" lengthAdjust="spacing" textLength="202" x="27" y="220.4292">HttpMessageHeader clearHeaders()</text><ellipse cx="18" cy="230.0234" fill="#84BE84" rx="3" ry="3" style="stroke:#038048;stroke-width:1.0;"/><text fill="#000000" font-family="sans-serif" font-size="11" lengthAdjust="spacing" textLength="264" x="27" y="233.2339">HttpMessageHeader removeField(String name)</text><ellipse cx="18" cy="242.8281" fill="#84BE84" rx="3" ry="3" style="stroke:#038048;stroke-width:1.0;"/><text fill="#000000" font-family="sans-serif" font-size="11" lengthAdjust="spacing" textLength="361" x="27" y="246.0386">Optional&lt;HttpField&gt; findField(String name, Converter converter)</text><ellipse cx="18" cy="255.6328" fill="#84BE84" rx="3" ry="3" style="stroke:#038048;stroke-width:1.0;"/><text fill="#000000" font-family="sans-serif" font-size="11" lengthAdjust="spacing" textLength="299" x="27" y="258.8433">Optional findValue(String name, Converter converter)</text><ellipse cx="18" cy="268.4375" fill="#84BE84" rx="3" ry="3" style="stroke:#038048;stroke-width:1.0;"/><text fill="#000000" font-family="sans-serif" font-size="11" lengthAdjust="spacing" textLength="213" x="27" y="271.6479">Optional findStringValue(String name)</text><ellipse cx="18" cy="281.2422" fill="#84BE84" rx="3" ry="3" style="stroke:#038048;stroke-width:1.0;"/><text fill="#000000" font-family="sans-serif" font-size="11" lengthAdjust="spacing" textLength="447" x="27" y="284.4526">HttpField computeIfAbsent(String name, Converter converter, Supplier supplier)</text><ellipse cx="18" cy="294.0469" fill="#84BE84" rx="3" ry="3" style="stroke:#038048;stroke-width:1.0;"/><text fill="#000000" font-family="sans-serif" font-size="11" lengthAdjust="spacing" textLength="300" x="27" y="297.2573">MessageHeader setHasPayload(boolean hasPayload)</text><ellipse cx="18" cy="306.8516" fill="#84BE84" rx="3" ry="3" style="stroke:#038048;stroke-width:1.0;"/><text fill="#000000" font-family="sans-serif" font-size="11" lengthAdjust="spacing" textLength="121" x="27" y="310.062">boolean hasPayload()</text><ellipse cx="18" cy="319.6563" fill="#84BE84" rx="3" ry="3" style="stroke:#038048;stroke-width:1.0;"/><text fill="#000000" font-family="sans-serif" font-size="11" lengthAdjust="spacing" textLength="92" x="27" y="322.8667">boolean isFinal()</text><!--MD5=[96c1bd05d11fa1a1abbb67cdfab7229d]
class MessageHeader--><rect codeLine="16" fill="#FEFECE" filter="url(#f1ond041eo29tr)" height="48" id="MessageHeader" style="stroke:#A80036;stroke-width:1.5;" width="134" x="176.5" y="7"/><ellipse cx="191.5" cy="23" fill="#ADD1B2" rx="11" ry="11" style="stroke:#A80036;stroke-width:1.0;"/><path d="M194.4688,28.6406 Q193.8906,28.9375 193.25,29.0781 Q192.6094,29.2344 191.9063,29.2344 Q189.4063,29.2344 188.0781,27.5938 Q186.7656,25.9375 186.7656,22.8125 Q186.7656,19.6875 188.0781,18.0313 Q189.4063,16.375 191.9063,16.375 Q192.6094,16.375 193.25,16.5313 Q193.9063,16.6875 194.4688,16.9844 L194.4688,19.7031 Q193.8438,19.125 193.25,18.8594 Q192.6563,18.5781 192.0313,18.5781 Q190.6875,18.5781 190,19.6563 Q189.3125,20.7188 189.3125,22.8125 Q189.3125,24.9063 190,25.9844 Q190.6875,27.0469 192.0313,27.0469 Q192.6563,27.0469 193.25,26.7813 Q193.8438,26.5 194.4688,25.9219 L194.4688,28.6406 Z " fill="#000000"/><text fill="#000000" font-family="sans-serif" font-size="12" lengthAdjust="spacing" textLength="102" x="205.5" y="27.1543">MessageHeader</text><line style="stroke:#A80036;stroke-width:1.5;" x1="177.5" x2="309.5" y1="39" y2="39"/><line style="stroke:#A80036;stroke-width:1.5;" x1="177.5" x2="309.5" y1="47" y2="47"/><!--MD5=[3e0878a5553178623f66820881e6a268]
class HttpField--><rect codeLine="20" fill="#FEFECE" filter="url(#f1ond041eo29tr)" height="73.6094" id="HttpField" style="stroke:#A80036;stroke-width:1.5;" width="103" x="515" y="185"/><ellipse cx="536.75" cy="201" fill="#ADD1B2" rx="11" ry="11" style="stroke:#A80036;stroke-width:1.0;"/><path d="M539.7188,206.6406 Q539.1406,206.9375 538.5,207.0781 Q537.8594,207.2344 537.1563,207.2344 Q534.6563,207.2344 533.3281,205.5938 Q532.0156,203.9375 532.0156,200.8125 Q532.0156,197.6875 533.3281,196.0313 Q534.6563,194.375 537.1563,194.375 Q537.8594,194.375 538.5,194.5313 Q539.1563,194.6875 539.7188,194.9844 L539.7188,197.7031 Q539.0938,197.125 538.5,196.8594 Q537.9063,196.5781 537.2813,196.5781 Q535.9375,196.5781 535.25,197.6563 Q534.5625,198.7188 534.5625,200.8125 Q534.5625,202.9063 535.25,203.9844 Q535.9375,205.0469 537.2813,205.0469 Q537.9063,205.0469 538.5,204.7813 Q539.0938,204.5 539.7188,203.9219 L539.7188,206.6406 Z " fill="#000000"/><text fill="#000000" font-family="sans-serif" font-size="12" lengthAdjust="spacing" textLength="56" x="552.25" y="205.1543">HttpField</text><line style="stroke:#A80036;stroke-width:1.5;" x1="516" x2="617" y1="217" y2="217"/><line style="stroke:#A80036;stroke-width:1.5;" x1="516" x2="617" y1="225" y2="225"/><ellipse cx="526" cy="236" fill="#84BE84" rx="3" ry="3" style="stroke:#038048;stroke-width:1.0;"/><text fill="#000000" font-family="sans-serif" font-size="11" lengthAdjust="spacing" textLength="77" x="535" y="239.2104">String name()</text><ellipse cx="526" cy="248.8047" fill="#84BE84" rx="3" ry="3" style="stroke:#038048;stroke-width:1.0;"/><text fill="#000000" font-family="sans-serif" font-size="11" lengthAdjust="spacing" textLength="48" x="535" y="252.0151">T value()</text><!--MD5=[8ab67a16336f7deae5d17aae60d7df9c]
reverse link MessageHeader to HttpMessageHeader--><path codeLine="18" d="M243.5,75.34 C243.5,87.3 243.5,100.83 243.5,114.71 " fill="none" id="MessageHeader-backto-HttpMessageHeader" style="stroke:#A80036;stroke-width:1.0;"/><polygon fill="none" points="236.5,75.18,243.5,55.18,250.5,75.18,236.5,75.18" style="stroke:#A80036;stroke-width:1.0;"/><!--MD5=[80bc5140bc8f69ff92b898f9d5d2c3ce]
reverse link HttpMessageHeader to HttpField--><path codeLine="25" d="M493.11,222 C500.36,222 507.6,222 514.85,222 " fill="none" id="HttpMessageHeader-backto-HttpField" style="stroke:#A80036;stroke-width:1.0;"/><polygon fill="#A80036" points="480.07,222,486.07,226,492.07,222,486.07,218,480.07,222" style="stroke:#A80036;stroke-width:1.0;"/><!--MD5=[ee1b8a74b6aaeb16fa40f9aeba4af154]
@startuml
abstract class HttpMessageHeader {
 	+HttpProtocol protocol()
 	+Map<String,HttpField<?>> fields()
 	+HttpMessageHeader setField(HttpField<?> value)
 	+HttpMessageHeader setField(String name, T value)
 	+HttpMessageHeader clearHeaders()
 	+HttpMessageHeader removeField(String name)
 	+Optional<HttpField> findField(String name, Converter converter)
 	+Optional findValue(String name, Converter converter)
 	+Optional findStringValue(String name)
 	+HttpField computeIfAbsent(String name, Converter converter, Supplier supplier)
 	+MessageHeader setHasPayload(boolean hasPayload)
 	+boolean hasPayload()
 	+boolean isFinal()
 }
 class MessageHeader {
 }
 MessageHeader <|- - HttpMessageHeader
 
 class HttpField {
 	+String name()
 	+T value()
 }
 
 HttpMessageHeader *-right- HttpField
@enduml

PlantUML version 1.2022.1(Tue Feb 01 19:19:58 CET 2022)
(GPL source distribution)
Java Runtime: OpenJDK Runtime Environment
JVM: OpenJDK 64-Bit Server VM
Default Encoding: UTF-8
Language: de
Country: DE
--></g></svg>