<?xml version="1.0" encoding="UTF-8" standalone="no"?><svg xmlns="http://www.w3.org/2000/svg" xmlns:xlink="http://www.w3.org/1999/xlink" contentScriptType="application/ecmascript" contentStyleType="text/css" height="339px" preserveAspectRatio="none" style="width:706px;height:339px;" version="1.1" viewBox="0 0 706 339" width="706px" zoomAndPan="magnify"><defs><filter height="300%" id="fbrj5wl" width="300%" x="-1" y="-1"><feGaussianBlur result="blurOut" stdDeviation="2.0"/><feColorMatrix in="blurOut" result="blurOut2" type="matrix" values="0 0 0 0 0 0 0 0 0 0 0 0 0 0 0 0 0 0 .4 0"/><feOffset dx="4.0" dy="4.0" in="blurOut2" result="blurOut3"/><feBlend in="SourceGraphic" in2="blurOut3" mode="normal"/></filter></defs><g><!--class HttpMessageHeader--><rect fill="#FEFECE" filter="url(#fbrj5wl)" height="214.4609" style="stroke: #A80036; stroke-width: 1.5;" width="553" x="6" y="116"/><ellipse cx="217.75" cy="132" fill="#ADD1B2" rx="11" ry="11" style="stroke: #A80036; stroke-width: 1.0;"/><path d="M220.7188,137.6406 Q220.1406,137.9375 219.5,138.0859 Q218.8594,138.2344 218.1563,138.2344 Q215.6563,138.2344 214.3359,136.5859 Q213.0156,134.9375 213.0156,131.8125 Q213.0156,128.6875 214.3359,127.0313 Q215.6563,125.375 218.1563,125.375 Q218.8594,125.375 219.5078,125.5313 Q220.1563,125.6875 220.7188,125.9844 L220.7188,128.7031 Q220.0938,128.125 219.5,127.8516 Q218.9063,127.5781 218.2813,127.5781 Q216.9375,127.5781 216.25,128.6484 Q215.5625,129.7188 215.5625,131.8125 Q215.5625,133.9063 216.25,134.9766 Q216.9375,136.0469 218.2813,136.0469 Q218.9063,136.0469 219.5,135.7734 Q220.0938,135.5 220.7188,134.9219 L220.7188,137.6406 Z "/><text fill="#000000" font-family="sans-serif" font-size="12" lengthAdjust="spacingAndGlyphs" textLength="121" x="238.25" y="136.1543">HttpMessageHeader</text><line style="stroke: #A80036; stroke-width: 1.5;" x1="7" x2="558" y1="148" y2="148"/><line style="stroke: #A80036; stroke-width: 1.5;" x1="7" x2="558" y1="156" y2="156"/><ellipse cx="17" cy="167.9023" fill="#84BE84" rx="3" ry="3" style="stroke: #038048; stroke-width: 1.0;"/><text fill="#000000" font-family="sans-serif" font-size="11" lengthAdjust="spacingAndGlyphs" textLength="127" x="26" y="170.2104">HttpProtocol protocol()</text><ellipse cx="17" cy="180.707" fill="#84BE84" rx="3" ry="3" style="stroke: #038048; stroke-width: 1.0;"/><text fill="#000000" font-family="sans-serif" font-size="11" lengthAdjust="spacingAndGlyphs" textLength="193" x="26" y="183.0151">Map&lt;String,HttpField&lt;?&gt;&gt; fields()</text><ellipse cx="17" cy="193.5117" fill="#84BE84" rx="3" ry="3" style="stroke: #038048; stroke-width: 1.0;"/><text fill="#000000" font-family="sans-serif" font-size="11" lengthAdjust="spacingAndGlyphs" textLength="276" x="26" y="195.8198">HttpMessageHeader setField(HttpField&lt;?&gt; value)</text><ellipse cx="17" cy="206.3164" fill="#84BE84" rx="3" ry="3" style="stroke: #038048; stroke-width: 1.0;"/><text fill="#000000" font-family="sans-serif" font-size="11" lengthAdjust="spacingAndGlyphs" textLength="287" x="26" y="208.6245">HttpMessageHeader setField(String name, T value)</text><ellipse cx="17" cy="219.1211" fill="#84BE84" rx="3" ry="3" style="stroke: #038048; stroke-width: 1.0;"/><text fill="#000000" font-family="sans-serif" font-size="11" lengthAdjust="spacingAndGlyphs" textLength="200" x="26" y="221.4292">HttpMessageHeader clearHeaders()</text><ellipse cx="17" cy="231.9258" fill="#84BE84" rx="3" ry="3" style="stroke: #038048; stroke-width: 1.0;"/><text fill="#000000" font-family="sans-serif" font-size="11" lengthAdjust="spacingAndGlyphs" textLength="264" x="26" y="234.2339">HttpMessageHeader removeField(String name)</text><ellipse cx="17" cy="244.7305" fill="#84BE84" rx="3" ry="3" style="stroke: #038048; stroke-width: 1.0;"/><text fill="#000000" font-family="sans-serif" font-size="11" lengthAdjust="spacingAndGlyphs" textLength="416" x="26" y="247.0386">Optional&lt;HttpField&lt;T&gt;&gt; findField(String name, Converter&lt;T&gt; converter)</text><ellipse cx="17" cy="257.5352" fill="#84BE84" rx="3" ry="3" style="stroke: #038048; stroke-width: 1.0;"/><text fill="#000000" font-family="sans-serif" font-size="11" lengthAdjust="spacingAndGlyphs" textLength="355" x="26" y="259.8433">Optional&lt;T&gt; findValue(String name, Converter&lt;T&gt; converter)</text><ellipse cx="17" cy="270.3398" fill="#84BE84" rx="3" ry="3" style="stroke: #038048; stroke-width: 1.0;"/><text fill="#000000" font-family="sans-serif" font-size="11" lengthAdjust="spacingAndGlyphs" textLength="265" x="26" y="272.6479">Optional&lt;String&gt; findStringValue(String name)</text><ellipse cx="17" cy="283.1445" fill="#84BE84" rx="3" ry="3" style="stroke: #038048; stroke-width: 1.0;"/><text fill="#000000" font-family="sans-serif" font-size="11" lengthAdjust="spacingAndGlyphs" textLength="527" x="26" y="285.4526">HttpField&lt;T&gt; computeIfAbsent(String name, Converter&lt;T&gt; converter, Supplier&lt;T&gt; supplier)</text><ellipse cx="17" cy="295.9492" fill="#84BE84" rx="3" ry="3" style="stroke: #038048; stroke-width: 1.0;"/><text fill="#000000" font-family="sans-serif" font-size="11" lengthAdjust="spacingAndGlyphs" textLength="299" x="26" y="298.2573">MessageHeader setHasPayload(boolean hasPayload)</text><ellipse cx="17" cy="308.7539" fill="#84BE84" rx="3" ry="3" style="stroke: #038048; stroke-width: 1.0;"/><text fill="#000000" font-family="sans-serif" font-size="11" lengthAdjust="spacingAndGlyphs" textLength="122" x="26" y="311.062">boolean hasPayload()</text><ellipse cx="17" cy="321.5586" fill="#84BE84" rx="3" ry="3" style="stroke: #038048; stroke-width: 1.0;"/><text fill="#000000" font-family="sans-serif" font-size="11" lengthAdjust="spacingAndGlyphs" textLength="92" x="26" y="323.8667">boolean isFinal()</text><!--class MessageHeader--><rect fill="#FEFECE" filter="url(#fbrj5wl)" height="48" style="stroke: #A80036; stroke-width: 1.5;" width="126" x="219.5" y="8"/><ellipse cx="234.5" cy="24" fill="#ADD1B2" rx="11" ry="11" style="stroke: #A80036; stroke-width: 1.0;"/><path d="M237.4688,29.6406 Q236.8906,29.9375 236.25,30.0859 Q235.6094,30.2344 234.9063,30.2344 Q232.4063,30.2344 231.0859,28.5859 Q229.7656,26.9375 229.7656,23.8125 Q229.7656,20.6875 231.0859,19.0313 Q232.4063,17.375 234.9063,17.375 Q235.6094,17.375 236.2578,17.5313 Q236.9063,17.6875 237.4688,17.9844 L237.4688,20.7031 Q236.8438,20.125 236.25,19.8516 Q235.6563,19.5781 235.0313,19.5781 Q233.6875,19.5781 233,20.6484 Q232.3125,21.7188 232.3125,23.8125 Q232.3125,25.9063 233,26.9766 Q233.6875,28.0469 235.0313,28.0469 Q235.6563,28.0469 236.25,27.7734 Q236.8438,27.5 237.4688,26.9219 L237.4688,29.6406 Z "/><text fill="#000000" font-family="sans-serif" font-size="12" lengthAdjust="spacingAndGlyphs" textLength="94" x="248.5" y="28.1543">MessageHeader</text><line style="stroke: #A80036; stroke-width: 1.5;" x1="220.5" x2="344.5" y1="40" y2="40"/><line style="stroke: #A80036; stroke-width: 1.5;" x1="220.5" x2="344.5" y1="48" y2="48"/><!--class HttpField--><rect fill="#FEFECE" filter="url(#fbrj5wl)" height="73.6094" style="stroke: #A80036; stroke-width: 1.5;" width="103" x="594" y="186"/><ellipse cx="611.25" cy="202" fill="#ADD1B2" rx="11" ry="11" style="stroke: #A80036; stroke-width: 1.0;"/><path d="M614.2188,207.6406 Q613.6406,207.9375 613,208.0859 Q612.3594,208.2344 611.6563,208.2344 Q609.1563,208.2344 607.8359,206.5859 Q606.5156,204.9375 606.5156,201.8125 Q606.5156,198.6875 607.8359,197.0313 Q609.1563,195.375 611.6563,195.375 Q612.3594,195.375 613.0078,195.5313 Q613.6563,195.6875 614.2188,195.9844 L614.2188,198.7031 Q613.5938,198.125 613,197.8516 Q612.4063,197.5781 611.7813,197.5781 Q610.4375,197.5781 609.75,198.6484 Q609.0625,199.7188 609.0625,201.8125 Q609.0625,203.9063 609.75,204.9766 Q610.4375,206.0469 611.7813,206.0469 Q612.4063,206.0469 613,205.7734 Q613.5938,205.5 614.2188,204.9219 L614.2188,207.6406 Z "/><text fill="#000000" font-family="sans-serif" font-size="12" lengthAdjust="spacingAndGlyphs" textLength="55" x="625.75" y="206.1543">HttpField</text><rect fill="#FFFFFF" height="15.9688" style="stroke: #000000; stroke-width: 1.0; stroke-dasharray: 2.0,2.0;" width="9" x="691" y="183"/><text fill="#000000" font-family="sans-serif" font-size="12" font-style="italic" lengthAdjust="spacingAndGlyphs" textLength="7" x="692" y="195.1387">T</text><line style="stroke: #A80036; stroke-width: 1.5;" x1="595" x2="696" y1="218" y2="218"/><line style="stroke: #A80036; stroke-width: 1.5;" x1="595" x2="696" y1="226" y2="226"/><ellipse cx="605" cy="237.9023" fill="#84BE84" rx="3" ry="3" style="stroke: #038048; stroke-width: 1.0;"/><text fill="#000000" font-family="sans-serif" font-size="11" lengthAdjust="spacingAndGlyphs" textLength="77" x="614" y="240.2104">String name()</text><ellipse cx="605" cy="250.707" fill="#84BE84" rx="3" ry="3" style="stroke: #038048; stroke-width: 1.0;"/><text fill="#000000" font-family="sans-serif" font-size="11" lengthAdjust="spacingAndGlyphs" textLength="50" x="614" y="253.0151">T value()</text><path d="M282.5,76.5024 C282.5,88.5166 282.5,102.0545 282.5,115.923 " fill="none" style="stroke: #A80036; stroke-width: 1.0;"/><polygon fill="none" points="275.5001,76.1903,282.5,56.1903,289.5001,76.1902,275.5001,76.1903" style="stroke: #A80036; stroke-width: 1.0;"/><path d="M572.0543,223 C579.3046,223 586.5548,223 593.8051,223 " fill="none" style="stroke: #A80036; stroke-width: 1.0;"/><polygon fill="#A80036" points="559.0039,223,565.0039,227,571.0039,223,565.0039,219,559.0039,223" style="stroke: #A80036; stroke-width: 1.0;"/></g></svg>