<?xml version="1.0" encoding="UTF-8" standalone="no"?><svg xmlns="http://www.w3.org/2000/svg" xmlns:xlink="http://www.w3.org/1999/xlink" contentScriptType="application/ecmascript" contentStyleType="text/css" height="206px" preserveAspectRatio="none" style="width:289px;height:206px;background:#FFFFFF;" version="1.1" viewBox="0 0 289 206" width="289px" zoomAndPan="magnify"><defs><filter height="300%" id="f19n7kvjnlbda0" width="300%" x="-1" y="-1"><feGaussianBlur result="blurOut" stdDeviation="2.0"/><feColorMatrix in="blurOut" result="blurOut2" type="matrix" values="0 0 0 0 0 0 0 0 0 0 0 0 0 0 0 0 0 0 .4 0"/><feOffset dx="4.0" dy="4.0" in="blurOut2" result="blurOut3"/><feBlend in="SourceGraphic" in2="blurOut3" mode="normal"/></filter></defs><g><!--MD5=[a7ac2bb1a70349835e470538db1a3dbc]
class HttpRequestEncoder--><rect codeLine="1" fill="#FEFECE" filter="url(#f19n7kvjnlbda0)" height="60.8047" id="HttpRequestEncoder" style="stroke:#A80036;stroke-width:1.5;" width="228" x="7" y="132"/><ellipse cx="51.25" cy="148" fill="#ADD1B2" rx="11" ry="11" style="stroke:#A80036;stroke-width:1.0;"/><path d="M54.2188,153.6406 Q53.6406,153.9375 53,154.0781 Q52.3594,154.2344 51.6563,154.2344 Q49.1563,154.2344 47.8281,152.5938 Q46.5156,150.9375 46.5156,147.8125 Q46.5156,144.6875 47.8281,143.0313 Q49.1563,141.375 51.6563,141.375 Q52.3594,141.375 53,141.5313 Q53.6563,141.6875 54.2188,141.9844 L54.2188,144.7031 Q53.5938,144.125 53,143.8594 Q52.4063,143.5781 51.7813,143.5781 Q50.4375,143.5781 49.75,144.6563 Q49.0625,145.7188 49.0625,147.8125 Q49.0625,149.9063 49.75,150.9844 Q50.4375,152.0469 51.7813,152.0469 Q52.4063,152.0469 53,151.7813 Q53.5938,151.5 54.2188,150.9219 L54.2188,153.6406 Z " fill="#000000"/><text fill="#000000" font-family="sans-serif" font-size="12" lengthAdjust="spacing" textLength="131" x="71.75" y="152.1543">HttpRequestEncoder</text><line style="stroke:#A80036;stroke-width:1.5;" x1="8" x2="234" y1="164" y2="164"/><line style="stroke:#A80036;stroke-width:1.5;" x1="8" x2="234" y1="172" y2="172"/><ellipse cx="18" cy="183" fill="#84BE84" rx="3" ry="3" style="stroke:#038048;stroke-width:1.0;"/><text fill="#000000" font-family="sans-serif" font-size="11" lengthAdjust="spacing" textLength="202" x="27" y="186.2104">HttpRequestEncoder(Engine engine)</text><!--MD5=[ec76d1500d17f2dfacb7d5cee4503f52]
class HttpEncoder--><rect codeLine="5" fill="#FEFECE" filter="url(#f19n7kvjnlbda0)" height="48" id="HttpEncoder" style="stroke:#A80036;stroke-width:1.5;" width="111" x="65.5" y="7"/><ellipse cx="80.5" cy="23" fill="#ADD1B2" rx="11" ry="11" style="stroke:#A80036;stroke-width:1.0;"/><path d="M83.4688,28.6406 Q82.8906,28.9375 82.25,29.0781 Q81.6094,29.2344 80.9063,29.2344 Q78.4063,29.2344 77.0781,27.5938 Q75.7656,25.9375 75.7656,22.8125 Q75.7656,19.6875 77.0781,18.0313 Q78.4063,16.375 80.9063,16.375 Q81.6094,16.375 82.25,16.5313 Q82.9063,16.6875 83.4688,16.9844 L83.4688,19.7031 Q82.8438,19.125 82.25,18.8594 Q81.6563,18.5781 81.0313,18.5781 Q79.6875,18.5781 79,19.6563 Q78.3125,20.7188 78.3125,22.8125 Q78.3125,24.9063 79,25.9844 Q79.6875,27.0469 81.0313,27.0469 Q81.6563,27.0469 82.25,26.7813 Q82.8438,26.5 83.4688,25.9219 L83.4688,28.6406 Z " fill="#000000"/><text fill="#000000" font-family="sans-serif" font-size="12" lengthAdjust="spacing" textLength="79" x="94.5" y="27.1543">HttpEncoder</text><line style="stroke:#A80036;stroke-width:1.5;" x1="66.5" x2="175.5" y1="39" y2="39"/><line style="stroke:#A80036;stroke-width:1.5;" x1="66.5" x2="175.5" y1="47" y2="47"/><!--MD5=[8e0fa5bf654f087df3f0162729e4fa40]
reverse link HttpEncoder to HttpRequestEncoder--><path codeLine="8" d="M121,75.27 C121,93.8 121,114.98 121,131.71 " fill="none" id="HttpEncoder-backto-HttpRequestEncoder" style="stroke:#A80036;stroke-width:1.0;"/><polygon fill="none" points="114,75.15,121,55.15,128,75.15,114,75.15" style="stroke:#A80036;stroke-width:1.0;"/><text fill="#000000" font-family="sans-serif" font-size="13" lengthAdjust="spacing" textLength="159" x="122" y="98.0669">&lt;&gt; &lt;T -&gt; HttpRequest&gt;</text><!--MD5=[69cf4272ab5325630b151e8c676eb1c8]
@startuml
class HttpRequestEncoder {
 	+HttpRequestEncoder(Engine engine)
 }
 
 class HttpEncoder {
 }
 
 HttpEncoder <|- - HttpRequestEncoder : <> <T -> HttpRequest>
@enduml

PlantUML version 1.2022.1(Tue Feb 01 19:19:58 CET 2022)
(GPL source distribution)
Java Runtime: OpenJDK Runtime Environment
JVM: OpenJDK 64-Bit Server VM
Default Encoding: UTF-8
Language: de
Country: DE
--></g></svg>