<?xml version="1.0" encoding="UTF-8" standalone="no"?><svg xmlns="http://www.w3.org/2000/svg" xmlns:xlink="http://www.w3.org/1999/xlink" contentScriptType="application/ecmascript" contentStyleType="text/css" height="215px" preserveAspectRatio="none" style="width:572px;height:215px;" version="1.1" viewBox="0 0 572 215" width="572px" zoomAndPan="magnify"><defs><filter height="300%" id="fx61pk5" width="300%" x="-1" y="-1"><feGaussianBlur result="blurOut" stdDeviation="2.0"/><feColorMatrix in="blurOut" result="blurOut2" type="matrix" values="0 0 0 0 0 0 0 0 0 0 0 0 0 0 0 0 0 0 .4 0"/><feOffset dx="4.0" dy="4.0" in="blurOut2" result="blurOut3"/><feBlend in="SourceGraphic" in2="blurOut3" mode="normal"/></filter></defs><g><!--class HttpResponseDecoder--><rect fill="#FEFECE" filter="url(#fx61pk5)" height="73.6094" style="stroke: #A80036; stroke-width: 1.5;" width="372" x="74.5" y="133"/><ellipse cx="185.25" cy="149" fill="#ADD1B2" rx="11" ry="11" style="stroke: #A80036; stroke-width: 1.0;"/><path d="M188.2188,154.6406 Q187.6406,154.9375 187,155.0859 Q186.3594,155.2344 185.6563,155.2344 Q183.1563,155.2344 181.8359,153.5859 Q180.5156,151.9375 180.5156,148.8125 Q180.5156,145.6875 181.8359,144.0313 Q183.1563,142.375 185.6563,142.375 Q186.3594,142.375 187.0078,142.5313 Q187.6563,142.6875 188.2188,142.9844 L188.2188,145.7031 Q187.5938,145.125 187,144.8516 Q186.4063,144.5781 185.7813,144.5781 Q184.4375,144.5781 183.75,145.6484 Q183.0625,146.7188 183.0625,148.8125 Q183.0625,150.9063 183.75,151.9766 Q184.4375,153.0469 185.7813,153.0469 Q186.4063,153.0469 187,152.7734 Q187.5938,152.5 188.2188,151.9219 L188.2188,154.6406 Z "/><text fill="#000000" font-family="sans-serif" font-size="12" lengthAdjust="spacingAndGlyphs" textLength="142" x="205.75" y="153.1543">HttpResponseDecoder</text><line style="stroke: #A80036; stroke-width: 1.5;" x1="75.5" x2="445.5" y1="165" y2="165"/><line style="stroke: #A80036; stroke-width: 1.5;" x1="75.5" x2="445.5" y1="173" y2="173"/><ellipse cx="85.5" cy="184.9023" fill="#84BE84" rx="3" ry="3" style="stroke: #038048; stroke-width: 1.0;"/><text fill="#000000" font-family="sans-serif" font-size="11" lengthAdjust="spacingAndGlyphs" textLength="124" x="94.5" y="187.2104">HttpRequestDecoder()</text><ellipse cx="85.5" cy="197.707" fill="#84BE84" rx="3" ry="3" style="stroke: #038048; stroke-width: 1.0;"/><text fill="#000000" font-family="sans-serif" font-size="11" lengthAdjust="spacingAndGlyphs" textLength="346" x="94.5" y="200.0151">Result decode(ByteBuffer in, Buffer out, boolean endOfInput)</text><!--class HttpDecoder--><rect fill="#FEFECE" filter="url(#fx61pk5)" height="48" style="stroke: #A80036; stroke-width: 1.5;" width="509" x="6" y="8"/><ellipse cx="21" cy="24" fill="#ADD1B2" rx="11" ry="11" style="stroke: #A80036; stroke-width: 1.0;"/><path d="M23.9688,29.6406 Q23.3906,29.9375 22.75,30.0859 Q22.1094,30.2344 21.4063,30.2344 Q18.9063,30.2344 17.5859,28.5859 Q16.2656,26.9375 16.2656,23.8125 Q16.2656,20.6875 17.5859,19.0313 Q18.9063,17.375 21.4063,17.375 Q22.1094,17.375 22.7578,17.5313 Q23.4063,17.6875 23.9688,17.9844 L23.9688,20.7031 Q23.3438,20.125 22.75,19.8516 Q22.1563,19.5781 21.5313,19.5781 Q20.1875,19.5781 19.5,20.6484 Q18.8125,21.7188 18.8125,23.8125 Q18.8125,25.9063 19.5,26.9766 Q20.1875,28.0469 21.5313,28.0469 Q22.1563,28.0469 22.75,27.7734 Q23.3438,27.5 23.9688,26.9219 L23.9688,29.6406 Z "/><text fill="#000000" font-family="sans-serif" font-size="12" lengthAdjust="spacingAndGlyphs" textLength="80" x="35" y="28.1543">HttpDecoder</text><rect fill="#FFFFFF" height="15.9688" style="stroke: #000000; stroke-width: 1.0; stroke-dasharray: 2.0,2.0;" width="395" x="123" y="5"/><text fill="#000000" font-family="sans-serif" font-size="12" font-style="italic" lengthAdjust="spacingAndGlyphs" textLength="393" x="124" y="17.1387">T extends HttpMessageHeader, R extends HttpMessageHeader</text><line style="stroke: #A80036; stroke-width: 1.5;" x1="7" x2="514" y1="40" y2="40"/><line style="stroke: #A80036; stroke-width: 1.5;" x1="7" x2="514" y1="48" y2="48"/><path d="M260.5,76.228 C260.5,94.516 260.5,115.5724 260.5,132.9979 " fill="none" style="stroke: #A80036; stroke-width: 1.0;"/><polygon fill="none" points="253.5,76.071,260.5,56.071,267.5,76.071,253.5,76.071" style="stroke: #A80036; stroke-width: 1.0;"/><text fill="#000000" font-family="sans-serif" font-size="13" lengthAdjust="spacingAndGlyphs" textLength="310" x="261.5" y="99.0669">«bind» &lt;T -&gt; HttpResponse, R -&gt; HttpRequest&gt;</text></g></svg>