<?xml version="1.0" encoding="UTF-8" standalone="no"?><svg xmlns="http://www.w3.org/2000/svg" xmlns:xlink="http://www.w3.org/1999/xlink" contentScriptType="application/ecmascript" contentStyleType="text/css" height="215px" preserveAspectRatio="none" style="width:568px;height:215px;" version="1.1" viewBox="0 0 568 215" width="568px" zoomAndPan="magnify"><defs><filter height="300%" id="fr8e55x" width="300%" x="-1" y="-1"><feGaussianBlur result="blurOut" stdDeviation="2.0"/><feColorMatrix in="blurOut" result="blurOut2" type="matrix" values="0 0 0 0 0 0 0 0 0 0 0 0 0 0 0 0 0 0 .4 0"/><feOffset dx="4.0" dy="4.0" in="blurOut2" result="blurOut3"/><feBlend in="SourceGraphic" in2="blurOut3" mode="normal"/></filter></defs><g><!--class HttpResponseDecoder--><rect fill="#FEFECE" filter="url(#fr8e55x)" height="73.6094" style="stroke: #A80036; stroke-width: 1.5;" width="373" x="64.5" y="133"/><ellipse cx="179.75" cy="149" fill="#ADD1B2" rx="11" ry="11" style="stroke: #A80036; stroke-width: 1.0;"/><path d="M182.7188,154.6406 Q182.1406,154.9375 181.5,155.0859 Q180.8594,155.2344 180.1563,155.2344 Q177.6563,155.2344 176.3359,153.5859 Q175.0156,151.9375 175.0156,148.8125 Q175.0156,145.6875 176.3359,144.0313 Q177.6563,142.375 180.1563,142.375 Q180.8594,142.375 181.5078,142.5313 Q182.1563,142.6875 182.7188,142.9844 L182.7188,145.7031 Q182.0938,145.125 181.5,144.8516 Q180.9063,144.5781 180.2813,144.5781 Q178.9375,144.5781 178.25,145.6484 Q177.5625,146.7188 177.5625,148.8125 Q177.5625,150.9063 178.25,151.9766 Q178.9375,153.0469 180.2813,153.0469 Q180.9063,153.0469 181.5,152.7734 Q182.0938,152.5 182.7188,151.9219 L182.7188,154.6406 Z "/><text fill="#000000" font-family="sans-serif" font-size="12" lengthAdjust="spacingAndGlyphs" textLength="134" x="200.25" y="153.1543">HttpResponseDecoder</text><line style="stroke: #A80036; stroke-width: 1.5;" x1="65.5" x2="436.5" y1="165" y2="165"/><line style="stroke: #A80036; stroke-width: 1.5;" x1="65.5" x2="436.5" y1="173" y2="173"/><ellipse cx="75.5" cy="184.9023" fill="#84BE84" rx="3" ry="3" style="stroke: #038048; stroke-width: 1.0;"/><text fill="#000000" font-family="sans-serif" font-size="11" lengthAdjust="spacingAndGlyphs" textLength="124" x="84.5" y="187.2104">HttpRequestDecoder()</text><ellipse cx="75.5" cy="197.707" fill="#84BE84" rx="3" ry="3" style="stroke: #038048; stroke-width: 1.0;"/><text fill="#000000" font-family="sans-serif" font-size="11" lengthAdjust="spacingAndGlyphs" textLength="347" x="84.5" y="200.0151">Result decode(ByteBuffer in, Buffer out, boolean endOfInput)</text><!--class HttpDecoder--><rect fill="#FEFECE" filter="url(#fr8e55x)" height="48" style="stroke: #A80036; stroke-width: 1.5;" width="490" x="6" y="8"/><ellipse cx="21" cy="24" fill="#ADD1B2" rx="11" ry="11" style="stroke: #A80036; stroke-width: 1.0;"/><path d="M23.9688,29.6406 Q23.3906,29.9375 22.75,30.0859 Q22.1094,30.2344 21.4063,30.2344 Q18.9063,30.2344 17.5859,28.5859 Q16.2656,26.9375 16.2656,23.8125 Q16.2656,20.6875 17.5859,19.0313 Q18.9063,17.375 21.4063,17.375 Q22.1094,17.375 22.7578,17.5313 Q23.4063,17.6875 23.9688,17.9844 L23.9688,20.7031 Q23.3438,20.125 22.75,19.8516 Q22.1563,19.5781 21.5313,19.5781 Q20.1875,19.5781 19.5,20.6484 Q18.8125,21.7188 18.8125,23.8125 Q18.8125,25.9063 19.5,26.9766 Q20.1875,28.0469 21.5313,28.0469 Q22.1563,28.0469 22.75,27.7734 Q23.3438,27.5 23.9688,26.9219 L23.9688,29.6406 Z "/><text fill="#000000" font-family="sans-serif" font-size="12" lengthAdjust="spacingAndGlyphs" textLength="77" x="35" y="28.1543">HttpDecoder</text><rect fill="#FFFFFF" height="15.9688" style="stroke: #000000; stroke-width: 1.0; stroke-dasharray: 2.0,2.0;" width="379" x="120" y="5"/><text fill="#000000" font-family="sans-serif" font-size="12" font-style="italic" lengthAdjust="spacingAndGlyphs" textLength="377" x="121" y="17.1387">T extends HttpMessageHeader, R extends HttpMessageHeader</text><line style="stroke: #A80036; stroke-width: 1.5;" x1="7" x2="495" y1="40" y2="40"/><line style="stroke: #A80036; stroke-width: 1.5;" x1="7" x2="495" y1="48" y2="48"/><path d="M251,76.1874 C251,94.4122 251,115.3012 251,132.7348 " fill="none" style="stroke: #A80036; stroke-width: 1.0;"/><polygon fill="none" points="244.0001,76.0378,251,56.0378,258.0001,76.0377,244.0001,76.0378" style="stroke: #A80036; stroke-width: 1.0;"/><text fill="#000000" font-family="sans-serif" font-size="13" lengthAdjust="spacingAndGlyphs" textLength="315" x="252" y="99.0669">«bind» &lt;T -&gt; HttpResponse, R -&gt; HttpRequest&gt;</text></g></svg>