<?xml version="1.0" encoding="UTF-8" standalone="no"?><svg xmlns="http://www.w3.org/2000/svg" xmlns:xlink="http://www.w3.org/1999/xlink" contentScriptType="application/ecmascript" contentStyleType="text/css" height="249px" preserveAspectRatio="none" style="width:413px;height:249px;" version="1.1" viewBox="0 0 413 249" width="413px" zoomAndPan="magnify"><defs><filter height="300%" id="fbjmbo9" width="300%" x="-1" y="-1"><feGaussianBlur result="blurOut" stdDeviation="2.0"/><feColorMatrix in="blurOut" result="blurOut2" type="matrix" values="0 0 0 0 0 0 0 0 0 0 0 0 0 0 0 0 0 0 .4 0"/><feOffset dx="4.0" dy="4.0" in="blurOut2" result="blurOut3"/><feBlend in="SourceGraphic" in2="blurOut3" mode="normal"/></filter></defs><g><!--class ProtocolProvider--><rect fill="#FEFECE" filter="url(#fbjmbo9)" height="48" style="stroke: #A80036; stroke-width: 1.5;" width="135" x="137.5" y="8"/><ellipse cx="152.5" cy="24" fill="#ADD1B2" rx="11" ry="11" style="stroke: #A80036; stroke-width: 1.0;"/><path d="M155.4688,29.6406 Q154.8906,29.9375 154.25,30.0859 Q153.6094,30.2344 152.9063,30.2344 Q150.4063,30.2344 149.0859,28.5859 Q147.7656,26.9375 147.7656,23.8125 Q147.7656,20.6875 149.0859,19.0313 Q150.4063,17.375 152.9063,17.375 Q153.6094,17.375 154.2578,17.5313 Q154.9063,17.6875 155.4688,17.9844 L155.4688,20.7031 Q154.8438,20.125 154.25,19.8516 Q153.6563,19.5781 153.0313,19.5781 Q151.6875,19.5781 151,20.6484 Q150.3125,21.7188 150.3125,23.8125 Q150.3125,25.9063 151,26.9766 Q151.6875,28.0469 153.0313,28.0469 Q153.6563,28.0469 154.25,27.7734 Q154.8438,27.5 155.4688,26.9219 L155.4688,29.6406 Z "/><text fill="#000000" font-family="sans-serif" font-size="12" lengthAdjust="spacingAndGlyphs" textLength="103" x="166.5" y="28.1543">ProtocolProvider</text><line style="stroke: #A80036; stroke-width: 1.5;" x1="138.5" x2="271.5" y1="40" y2="40"/><line style="stroke: #A80036; stroke-width: 1.5;" x1="138.5" x2="271.5" y1="48" y2="48"/><!--class WsProtocolProvider--><rect fill="#FEFECE" filter="url(#fbjmbo9)" height="124.8281" style="stroke: #A80036; stroke-width: 1.5;" width="398" x="6" y="116"/><ellipse cx="140.25" cy="132" fill="#ADD1B2" rx="11" ry="11" style="stroke: #A80036; stroke-width: 1.0;"/><path d="M143.2188,137.6406 Q142.6406,137.9375 142,138.0859 Q141.3594,138.2344 140.6563,138.2344 Q138.1563,138.2344 136.8359,136.5859 Q135.5156,134.9375 135.5156,131.8125 Q135.5156,128.6875 136.8359,127.0313 Q138.1563,125.375 140.6563,125.375 Q141.3594,125.375 142.0078,125.5313 Q142.6563,125.6875 143.2188,125.9844 L143.2188,128.7031 Q142.5938,128.125 142,127.8516 Q141.4063,127.5781 140.7813,127.5781 Q139.4375,127.5781 138.75,128.6484 Q138.0625,129.7188 138.0625,131.8125 Q138.0625,133.9063 138.75,134.9766 Q139.4375,136.0469 140.7813,136.0469 Q141.4063,136.0469 142,135.7734 Q142.5938,135.5 143.2188,134.9219 L143.2188,137.6406 Z "/><text fill="#000000" font-family="sans-serif" font-size="12" lengthAdjust="spacingAndGlyphs" textLength="121" x="160.75" y="136.1543">WsProtocolProvider</text><line style="stroke: #A80036; stroke-width: 1.5;" x1="7" x2="403" y1="148" y2="148"/><line style="stroke: #A80036; stroke-width: 1.5;" x1="7" x2="403" y1="156" y2="156"/><ellipse cx="17" cy="167.9023" fill="#84BE84" rx="3" ry="3" style="stroke: #038048; stroke-width: 1.0;"/><text fill="#000000" font-family="sans-serif" font-size="11" lengthAdjust="spacingAndGlyphs" textLength="238" x="26" y="170.2104">boolean supportsProtocol(String protocol)</text><ellipse cx="17" cy="180.707" fill="#84BE84" rx="3" ry="3" style="stroke: #038048; stroke-width: 1.0;"/><text fill="#000000" font-family="sans-serif" font-size="11" lengthAdjust="spacingAndGlyphs" textLength="308" x="26" y="183.0151">void augmentInitialResponse(HttpResponse response)</text><ellipse cx="17" cy="193.5117" fill="#84BE84" rx="3" ry="3" style="stroke: #038048; stroke-width: 1.0;"/><text fill="#000000" font-family="sans-serif" font-size="11" lengthAdjust="spacingAndGlyphs" textLength="294" x="26" y="195.8198">Encoder&lt;?&gt; createRequestEncoder(String protocol)</text><ellipse cx="17" cy="206.3164" fill="#84BE84" rx="3" ry="3" style="stroke: #038048; stroke-width: 1.0;"/><text fill="#000000" font-family="sans-serif" font-size="11" lengthAdjust="spacingAndGlyphs" textLength="306" x="26" y="208.6245">Decoder&lt;?,?&gt; createRequestDecoder(String protocol)</text><ellipse cx="17" cy="219.1211" fill="#84BE84" rx="3" ry="3" style="stroke: #038048; stroke-width: 1.0;"/><text fill="#000000" font-family="sans-serif" font-size="11" lengthAdjust="spacingAndGlyphs" textLength="304" x="26" y="221.4292">Encoder&lt;?&gt; createResponseEncoder(String protocol)</text><ellipse cx="17" cy="231.9258" fill="#84BE84" rx="3" ry="3" style="stroke: #038048; stroke-width: 1.0;"/><text fill="#000000" font-family="sans-serif" font-size="11" lengthAdjust="spacingAndGlyphs" textLength="372" x="26" y="234.2339">ResponseDecoder&lt;?,?&gt; createResponseDecoder(String protocol)</text><path d="M205,76.667 C205,89.049 205,102.766 205,115.991 " fill="none" style="stroke: #A80036; stroke-width: 1.0;"/><polygon fill="none" points="198,76.216,205,56.216,212,76.216,198,76.216" style="stroke: #A80036; stroke-width: 1.0;"/></g></svg>