<?xml version="1.0" encoding="UTF-8" standalone="no"?><svg xmlns="http://www.w3.org/2000/svg" xmlns:xlink="http://www.w3.org/1999/xlink" contentScriptType="application/ecmascript" contentStyleType="text/css" height="253px" preserveAspectRatio="none" style="width:417px;height:253px;background:#FFFFFF;" version="1.1" viewBox="0 0 417 253" width="417px" zoomAndPan="magnify"><defs><filter height="300%" id="f13ed4tjvoql0q" width="300%" x="-1" y="-1"><feGaussianBlur result="blurOut" stdDeviation="2.0"/><feColorMatrix in="blurOut" result="blurOut2" type="matrix" values="0 0 0 0 0 0 0 0 0 0 0 0 0 0 0 0 0 0 .4 0"/><feOffset dx="4.0" dy="4.0" in="blurOut2" result="blurOut3"/><feBlend in="SourceGraphic" in2="blurOut3" mode="normal"/></filter></defs><g><!--MD5=[6e6614336ee0c0aa2d28b2a9f752898e]
class ProtocolProvider--><rect codeLine="1" fill="#FEFECE" filter="url(#f13ed4tjvoql0q)" height="48" id="ProtocolProvider" style="stroke:#A80036;stroke-width:1.5;" width="135" x="137.5" y="7"/><ellipse cx="152.5" cy="23" fill="#ADD1B2" rx="11" ry="11" style="stroke:#A80036;stroke-width:1.0;"/><path d="M155.4688,28.6406 Q154.8906,28.9375 154.25,29.0781 Q153.6094,29.2344 152.9063,29.2344 Q150.4063,29.2344 149.0781,27.5938 Q147.7656,25.9375 147.7656,22.8125 Q147.7656,19.6875 149.0781,18.0313 Q150.4063,16.375 152.9063,16.375 Q153.6094,16.375 154.25,16.5313 Q154.9063,16.6875 155.4688,16.9844 L155.4688,19.7031 Q154.8438,19.125 154.25,18.8594 Q153.6563,18.5781 153.0313,18.5781 Q151.6875,18.5781 151,19.6563 Q150.3125,20.7188 150.3125,22.8125 Q150.3125,24.9063 151,25.9844 Q151.6875,27.0469 153.0313,27.0469 Q153.6563,27.0469 154.25,26.7813 Q154.8438,26.5 155.4688,25.9219 L155.4688,28.6406 Z " fill="#000000"/><text fill="#000000" font-family="sans-serif" font-size="12" lengthAdjust="spacing" textLength="103" x="166.5" y="27.1543">ProtocolProvider</text><line style="stroke:#A80036;stroke-width:1.5;" x1="138.5" x2="271.5" y1="39" y2="39"/><line style="stroke:#A80036;stroke-width:1.5;" x1="138.5" x2="271.5" y1="47" y2="47"/><!--MD5=[08f9b7d05c8590f2209f8e6d3ba64969]
class WsProtocolProvider--><rect codeLine="3" fill="#FEFECE" filter="url(#f13ed4tjvoql0q)" height="124.8281" id="WsProtocolProvider" style="stroke:#A80036;stroke-width:1.5;" width="396" x="7" y="115"/><ellipse cx="140.25" cy="131" fill="#ADD1B2" rx="11" ry="11" style="stroke:#A80036;stroke-width:1.0;"/><path d="M143.2188,136.6406 Q142.6406,136.9375 142,137.0781 Q141.3594,137.2344 140.6563,137.2344 Q138.1563,137.2344 136.8281,135.5938 Q135.5156,133.9375 135.5156,130.8125 Q135.5156,127.6875 136.8281,126.0313 Q138.1563,124.375 140.6563,124.375 Q141.3594,124.375 142,124.5313 Q142.6563,124.6875 143.2188,124.9844 L143.2188,127.7031 Q142.5938,127.125 142,126.8594 Q141.4063,126.5781 140.7813,126.5781 Q139.4375,126.5781 138.75,127.6563 Q138.0625,128.7188 138.0625,130.8125 Q138.0625,132.9063 138.75,133.9844 Q139.4375,135.0469 140.7813,135.0469 Q141.4063,135.0469 142,134.7813 Q142.5938,134.5 143.2188,133.9219 L143.2188,136.6406 Z " fill="#000000"/><text fill="#000000" font-family="sans-serif" font-size="12" lengthAdjust="spacing" textLength="121" x="160.75" y="135.1543">WsProtocolProvider</text><line style="stroke:#A80036;stroke-width:1.5;" x1="8" x2="402" y1="147" y2="147"/><line style="stroke:#A80036;stroke-width:1.5;" x1="8" x2="402" y1="155" y2="155"/><ellipse cx="18" cy="166" fill="#84BE84" rx="3" ry="3" style="stroke:#038048;stroke-width:1.0;"/><text fill="#000000" font-family="sans-serif" font-size="11" lengthAdjust="spacing" textLength="236" x="27" y="169.2104">boolean supportsProtocol(String protocol)</text><ellipse cx="18" cy="178.8047" fill="#84BE84" rx="3" ry="3" style="stroke:#038048;stroke-width:1.0;"/><text fill="#000000" font-family="sans-serif" font-size="11" lengthAdjust="spacing" textLength="306" x="27" y="182.0151">void augmentInitialResponse(HttpResponse response)</text><ellipse cx="18" cy="191.6094" fill="#84BE84" rx="3" ry="3" style="stroke:#038048;stroke-width:1.0;"/><text fill="#000000" font-family="sans-serif" font-size="11" lengthAdjust="spacing" textLength="292" x="27" y="194.8198">Encoder&lt;?&gt; createRequestEncoder(String protocol)</text><ellipse cx="18" cy="204.4141" fill="#84BE84" rx="3" ry="3" style="stroke:#038048;stroke-width:1.0;"/><text fill="#000000" font-family="sans-serif" font-size="11" lengthAdjust="spacing" textLength="304" x="27" y="207.6245">Decoder&lt;?,?&gt; createRequestDecoder(String protocol)</text><ellipse cx="18" cy="217.2188" fill="#84BE84" rx="3" ry="3" style="stroke:#038048;stroke-width:1.0;"/><text fill="#000000" font-family="sans-serif" font-size="11" lengthAdjust="spacing" textLength="302" x="27" y="220.4292">Encoder&lt;?&gt; createResponseEncoder(String protocol)</text><ellipse cx="18" cy="230.0234" fill="#84BE84" rx="3" ry="3" style="stroke:#038048;stroke-width:1.0;"/><text fill="#000000" font-family="sans-serif" font-size="11" lengthAdjust="spacing" textLength="370" x="27" y="233.2339">ResponseDecoder&lt;?,?&gt; createResponseDecoder(String protocol)</text><!--MD5=[75d1758b25ffacdcc9db847b0168ebe6]
reverse link ProtocolProvider to WsProtocolProvider--><path codeLine="12" d="M205,75.67 C205,88.05 205,101.77 205,114.99 " fill="none" id="ProtocolProvider-backto-WsProtocolProvider" style="stroke:#A80036;stroke-width:1.0;"/><polygon fill="none" points="198,75.22,205,55.22,212,75.22,198,75.22" style="stroke:#A80036;stroke-width:1.0;"/><!--MD5=[08ca303335e61cd5b1c1305750e638c1]
@startuml
class ProtocolProvider
 
 class WsProtocolProvider {
 	+boolean supportsProtocol(String protocol)
 	+void augmentInitialResponse(HttpResponse response)
 	+Encoder<?> createRequestEncoder(String protocol)
 	+Decoder<?,?> createRequestDecoder(String protocol)
 	+Encoder<?> createResponseEncoder(String protocol)
 	+ResponseDecoder<?,?> createResponseDecoder(String protocol)
 }
 
 ProtocolProvider <|- - WsProtocolProvider
@enduml

PlantUML version 1.2022.1(Tue Feb 01 19:19:58 CET 2022)
(GPL source distribution)
Java Runtime: Java(TM) SE Runtime Environment
JVM: Java HotSpot(TM) 64-Bit Server VM
Default Encoding: UTF-8
Language: de
Country: DE
--></g></svg>