<?xml version="1.0" encoding="UTF-8" standalone="no"?><svg xmlns="http://www.w3.org/2000/svg" xmlns:xlink="http://www.w3.org/1999/xlink" contentScriptType="application/ecmascript" contentStyleType="text/css" height="249px" preserveAspectRatio="none" style="width:410px;height:249px;" version="1.1" viewBox="0 0 410 249" width="410px" zoomAndPan="magnify"><defs><filter height="300%" id="fmgg8vw" width="300%" x="-1" y="-1"><feGaussianBlur result="blurOut" stdDeviation="2.0"/><feColorMatrix in="blurOut" result="blurOut2" type="matrix" values="0 0 0 0 0 0 0 0 0 0 0 0 0 0 0 0 0 0 .4 0"/><feOffset dx="4.0" dy="4.0" in="blurOut2" result="blurOut3"/><feBlend in="SourceGraphic" in2="blurOut3" mode="normal"/></filter></defs><g><!--class ProtocolProvider--><rect fill="#FEFECE" filter="url(#fmgg8vw)" height="48" style="stroke: #A80036; stroke-width: 1.5;" width="129" x="139" y="8"/><ellipse cx="154" cy="24" fill="#ADD1B2" rx="11" ry="11" style="stroke: #A80036; stroke-width: 1.0;"/><path d="M156.9688,29.6406 Q156.3906,29.9375 155.75,30.0859 Q155.1094,30.2344 154.4063,30.2344 Q151.9063,30.2344 150.5859,28.5859 Q149.2656,26.9375 149.2656,23.8125 Q149.2656,20.6875 150.5859,19.0313 Q151.9063,17.375 154.4063,17.375 Q155.1094,17.375 155.7578,17.5313 Q156.4063,17.6875 156.9688,17.9844 L156.9688,20.7031 Q156.3438,20.125 155.75,19.8516 Q155.1563,19.5781 154.5313,19.5781 Q153.1875,19.5781 152.5,20.6484 Q151.8125,21.7188 151.8125,23.8125 Q151.8125,25.9063 152.5,26.9766 Q153.1875,28.0469 154.5313,28.0469 Q155.1563,28.0469 155.75,27.7734 Q156.3438,27.5 156.9688,26.9219 L156.9688,29.6406 Z "/><text fill="#000000" font-family="sans-serif" font-size="12" lengthAdjust="spacingAndGlyphs" textLength="97" x="168" y="28.1543">ProtocolProvider</text><line style="stroke: #A80036; stroke-width: 1.5;" x1="140" x2="267" y1="40" y2="40"/><line style="stroke: #A80036; stroke-width: 1.5;" x1="140" x2="267" y1="48" y2="48"/><!--class WsProtocolProvider--><rect fill="#FEFECE" filter="url(#fmgg8vw)" height="124.8281" style="stroke: #A80036; stroke-width: 1.5;" width="395" x="6" y="116"/><ellipse cx="141.75" cy="132" fill="#ADD1B2" rx="11" ry="11" style="stroke: #A80036; stroke-width: 1.0;"/><path d="M144.7188,137.6406 Q144.1406,137.9375 143.5,138.0859 Q142.8594,138.2344 142.1563,138.2344 Q139.6563,138.2344 138.3359,136.5859 Q137.0156,134.9375 137.0156,131.8125 Q137.0156,128.6875 138.3359,127.0313 Q139.6563,125.375 142.1563,125.375 Q142.8594,125.375 143.5078,125.5313 Q144.1563,125.6875 144.7188,125.9844 L144.7188,128.7031 Q144.0938,128.125 143.5,127.8516 Q142.9063,127.5781 142.2813,127.5781 Q140.9375,127.5781 140.25,128.6484 Q139.5625,129.7188 139.5625,131.8125 Q139.5625,133.9063 140.25,134.9766 Q140.9375,136.0469 142.2813,136.0469 Q142.9063,136.0469 143.5,135.7734 Q144.0938,135.5 144.7188,134.9219 L144.7188,137.6406 Z "/><text fill="#000000" font-family="sans-serif" font-size="12" lengthAdjust="spacingAndGlyphs" textLength="115" x="162.25" y="136.1543">WsProtocolProvider</text><line style="stroke: #A80036; stroke-width: 1.5;" x1="7" x2="400" y1="148" y2="148"/><line style="stroke: #A80036; stroke-width: 1.5;" x1="7" x2="400" y1="156" y2="156"/><ellipse cx="17" cy="167.9023" fill="#84BE84" rx="3" ry="3" style="stroke: #038048; stroke-width: 1.0;"/><text fill="#000000" font-family="sans-serif" font-size="11" lengthAdjust="spacingAndGlyphs" textLength="235" x="26" y="170.2104">boolean supportsProtocol(String protocol)</text><ellipse cx="17" cy="180.707" fill="#84BE84" rx="3" ry="3" style="stroke: #038048; stroke-width: 1.0;"/><text fill="#000000" font-family="sans-serif" font-size="11" lengthAdjust="spacingAndGlyphs" textLength="305" x="26" y="183.0151">void augmentInitialResponse(HttpResponse response)</text><ellipse cx="17" cy="193.5117" fill="#84BE84" rx="3" ry="3" style="stroke: #038048; stroke-width: 1.0;"/><text fill="#000000" font-family="sans-serif" font-size="11" lengthAdjust="spacingAndGlyphs" textLength="293" x="26" y="195.8198">Encoder&lt;?&gt; createRequestEncoder(String protocol)</text><ellipse cx="17" cy="206.3164" fill="#84BE84" rx="3" ry="3" style="stroke: #038048; stroke-width: 1.0;"/><text fill="#000000" font-family="sans-serif" font-size="11" lengthAdjust="spacingAndGlyphs" textLength="305" x="26" y="208.6245">Decoder&lt;?,?&gt; createRequestDecoder(String protocol)</text><ellipse cx="17" cy="219.1211" fill="#84BE84" rx="3" ry="3" style="stroke: #038048; stroke-width: 1.0;"/><text fill="#000000" font-family="sans-serif" font-size="11" lengthAdjust="spacingAndGlyphs" textLength="302" x="26" y="221.4292">Encoder&lt;?&gt; createResponseEncoder(String protocol)</text><ellipse cx="17" cy="231.9258" fill="#84BE84" rx="3" ry="3" style="stroke: #038048; stroke-width: 1.0;"/><text fill="#000000" font-family="sans-serif" font-size="11" lengthAdjust="spacingAndGlyphs" textLength="369" x="26" y="234.2339">ResponseDecoder&lt;?,?&gt; createResponseDecoder(String protocol)</text><path d="M203.5,76.6169 C203.5,88.9439 203.5,102.5549 203.5,115.7067 " fill="none" style="stroke: #A80036; stroke-width: 1.0;"/><polygon fill="none" points="196.5001,76.1915,203.5,56.1915,210.5001,76.1915,196.5001,76.1915" style="stroke: #A80036; stroke-width: 1.0;"/></g></svg>